<?xml version="1.0" encoding="UTF-8" standalone="no"?><svg xmlns="http://www.w3.org/2000/svg" xmlns:xlink="http://www.w3.org/1999/xlink" contentScriptType="application/ecmascript" contentStyleType="text/css" height="69px" preserveAspectRatio="none" style="width:555px;height:69px;" version="1.1" viewBox="0 0 555 69" width="555px" zoomAndPan="magnify"><defs><filter height="300%" id="fsqeptcfk3kz6" width="300%" x="-1" y="-1"><feGaussianBlur result="blurOut" stdDeviation="2.0"/><feColorMatrix in="blurOut" result="blurOut2" type="matrix" values="0 0 0 0 0 0 0 0 0 0 0 0 0 0 0 0 0 0 .4 0"/><feOffset dx="4.0" dy="4.0" in="blurOut2" result="blurOut3"/><feBlend in="SourceGraphic" in2="blurOut3" mode="normal"/></filter></defs><g><ellipse cx="16" cy="33" fill="#000000" filter="url(#fsqeptcfk3kz6)" rx="10" ry="10" style="stroke: none; stroke-width: 1.0;"/><rect fill="#FEFECE" filter="url(#fsqeptcfk3kz6)" height="50" rx="12.5" ry="12.5" style="stroke: #A80036; stroke-width: 1.5;" width="50" x="61" y="8"/><line style="stroke: #A80036; stroke-width: 1.5;" x1="61" x2="111" y1="34.2969" y2="34.2969"/><text fill="#000000" font-family="sans-serif" font-size="14" lengthAdjust="spacingAndGlyphs" textLength="17" x="77.5" y="25.9951">s1</text><rect fill="#FEFECE" filter="url(#fsqeptcfk3kz6)" height="50" rx="12.5" ry="12.5" style="stroke: #A80036; stroke-width: 1.5;" width="50" x="152" y="8"/><line style="stroke: #A80036; stroke-width: 1.5;" x1="152" x2="202" y1="34.2969" y2="34.2969"/><text fill="#000000" font-family="sans-serif" font-size="14" lengthAdjust="spacingAndGlyphs" textLength="17" x="168.5" y="25.9951">s2</text><rect fill="#FEFECE" filter="url(#fsqeptcfk3kz6)" height="50" rx="12.5" ry="12.5" style="stroke: #A80036; stroke-width: 1.5;" width="50" x="244" y="8"/><line style="stroke: #A80036; stroke-width: 1.5;" x1="244" x2="294" y1="34.2969" y2="34.2969"/><text fill="#000000" font-family="sans-serif" font-size="14" lengthAdjust="spacingAndGlyphs" textLength="17" x="260.5" y="25.9951">s3</text><rect fill="#FEFECE" filter="url(#fsqeptcfk3kz6)" height="50" rx="12.5" ry="12.5" style="stroke: #A80036; stroke-width: 1.5;" width="50" x="339" y="8"/><line style="stroke: #A80036; stroke-width: 1.5;" x1="339" x2="389" y1="34.2969" y2="34.2969"/><text fill="#000000" font-family="sans-serif" font-size="14" lengthAdjust="spacingAndGlyphs" textLength="17" x="355.5" y="25.9951">s4</text><rect fill="#FEFECE" filter="url(#fsqeptcfk3kz6)" height="50" rx="12.5" ry="12.5" style="stroke: #A80036; stroke-width: 1.5;" width="50" x="439" y="8"/><line style="stroke: #A80036; stroke-width: 1.5;" x1="439" x2="489" y1="34.2969" y2="34.2969"/><text fill="#000000" font-family="sans-serif" font-size="14" lengthAdjust="spacingAndGlyphs" textLength="17" x="455.5" y="25.9951">s5</text><ellipse cx="534" cy="33" fill="none" filter="url(#fsqeptcfk3kz6)" rx="10" ry="10" style="stroke: #000000; stroke-width: 1.0;"/><ellipse cx="534.5" cy="33.5" fill="#000000" rx="6" ry="6" style="stroke: none; stroke-width: 1.0;"/><!--MD5=[0851647b0d029610cd0ab4962f9816f7]
link *start to s1--><path d="M26.1172,33 C35.9441,33 45.7711,33 55.5981,33 " fill="none" id="*start-&gt;s1" style="stroke: #A80036; stroke-width: 1.0;"/><polygon fill="#A80036" points="60.7369,33,51.7369,29,55.7369,33,51.7369,37,60.7369,33" style="stroke: #A80036; stroke-width: 1.0;"/><!--MD5=[d077887d53ded09ce69bd222ebbe95e1]
link s1 to s2--><path d="M111.349,33 C122.294,33 135.189,33 146.64,33 " fill="none" id="s1-&gt;s2" style="stroke: #A80036; stroke-width: 1.0;"/><polygon fill="#A80036" points="151.787,33,142.787,29,146.787,33,142.787,37,151.787,33" style="stroke: #A80036; stroke-width: 1.0;"/><text fill="#000000" font-family="sans-serif" font-size="13" lengthAdjust="spacingAndGlyphs" textLength="4" x="129.5" y="26.0669">f</text><!--MD5=[1bb14e5b120dc78dcb30347d6f04721d]
link s2 to s3--><path d="M202.139,33 C213.397,33 226.769,33 238.585,33 " fill="none" id="s2-&gt;s3" style="stroke: #A80036; stroke-width: 1.0;"/><polygon fill="#A80036" points="243.891,33,234.891,29,238.891,33,234.891,37,243.891,33" style="stroke: #A80036; stroke-width: 1.0;"/><text fill="#000000" font-family="sans-serif" font-size="13" lengthAdjust="spacingAndGlyphs" textLength="5" x="220.5" y="26.0669">r</text><!--MD5=[fa256d74c8a04631f0cc686406bb2928]
link s3 to s4--><path d="M294.458,33 C306.481,33 320.925,33 333.526,33 " fill="none" id="s3-&gt;s4" style="stroke: #A80036; stroke-width: 1.0;"/><polygon fill="#A80036" points="338.801,33,329.801,29,333.801,33,329.801,37,338.801,33" style="stroke: #A80036; stroke-width: 1.0;"/><text fill="#000000" font-family="sans-serif" font-size="13" lengthAdjust="spacingAndGlyphs" textLength="8" x="312.5" y="26.0669">o</text><!--MD5=[59ca31688f28a32c4872efeae2cdc579]
link s4 to s5--><path d="M389.234,33 C402.735,33 419.46,33 433.665,33 " fill="none" id="s4-&gt;s5" style="stroke: #A80036; stroke-width: 1.0;"/><polygon fill="#A80036" points="438.774,33,429.774,29,433.774,33,429.774,37,438.774,33" style="stroke: #A80036; stroke-width: 1.0;"/><text fill="#000000" font-family="sans-serif" font-size="13" lengthAdjust="spacingAndGlyphs" textLength="13" x="407.5" y="26.0669">m</text><!--MD5=[504f62f7a5e61e8a0008f1533b2a0cf2]
link s5 to *end--><path d="M489.156,33 C499.001,33 508.847,33 518.692,33 " fill="none" id="s5-&gt;*end" style="stroke: #A80036; stroke-width: 1.0;"/><polygon fill="#A80036" points="523.84,33,514.84,29,518.84,33,514.84,37,523.84,33" style="stroke: #A80036; stroke-width: 1.0;"/><!--MD5=[8343970f69fec1a888d6da3151e85d2b]
@startuml
[*]->s1
s1->s2:f
s2->s3:r
s3->s4:o
s4->s5:m
s5->[*]
@enduml

PlantUML version 1.2019.11(Sun Sep 22 10:02:15 UTC 2019)
(GPL source distribution)
Java Runtime: Java(TM) SE Runtime Environment
JVM: Java HotSpot(TM) 64-Bit Server VM
Java Version: 1.7.0_25-b15
Operating System: Linux
Default Encoding: UTF-8
Language: en
Country: US
--></g></svg>