<?xml version="1.0" encoding="UTF-8" standalone="no"?><svg xmlns="http://www.w3.org/2000/svg" xmlns:xlink="http://www.w3.org/1999/xlink" contentScriptType="application/ecmascript" contentStyleType="text/css" height="342px" preserveAspectRatio="none" style="width:588px;height:342px;" version="1.1" viewBox="0 0 588 342" width="588px" zoomAndPan="magnify"><defs><filter height="300%" id="fs9wjus4s4au0" width="300%" x="-1" y="-1"><feGaussianBlur result="blurOut" stdDeviation="2.0"/><feColorMatrix in="blurOut" result="blurOut2" type="matrix" values="0 0 0 0 0 0 0 0 0 0 0 0 0 0 0 0 0 0 .4 0"/><feOffset dx="4.0" dy="4.0" in="blurOut2" result="blurOut3"/><feBlend in="SourceGraphic" in2="blurOut3" mode="normal"/></filter></defs><g><ellipse cx="223" cy="321" fill="#000000" filter="url(#fs9wjus4s4au0)" rx="10" ry="10" style="stroke: none; stroke-width: 1.0;"/><rect fill="#FEFECE" filter="url(#fs9wjus4s4au0)" height="50" rx="12.5" ry="12.5" style="stroke: #A80036; stroke-width: 1.5;" width="50" x="526" y="144.5"/><line style="stroke: #A80036; stroke-width: 1.5;" x1="526" x2="576" y1="170.7969" y2="170.7969"/><text fill="#000000" font-family="sans-serif" font-size="14" lengthAdjust="spacingAndGlyphs" textLength="17" x="542.5" y="162.4951">s3</text><ellipse cx="223" cy="18" fill="none" filter="url(#fs9wjus4s4au0)" rx="10" ry="10" style="stroke: #000000; stroke-width: 1.0;"/><ellipse cx="223.5" cy="18.5" fill="#000000" rx="6" ry="6" style="stroke: none; stroke-width: 1.0;"/><rect fill="#FEFECE" filter="url(#fs9wjus4s4au0)" height="161.2969" rx="12.5" ry="12.5" style="stroke: #A80036; stroke-width: 1.5;" width="434" x="6" y="89"/><rect fill="#FFFFFF" height="129" rx="12.5" ry="12.5" style="stroke: #FFFFFF; stroke-width: 1.0;" width="428" x="9" y="118.2969"/><line style="stroke: #A80036; stroke-width: 1.5;" x1="6" x2="440" y1="115.2969" y2="115.2969"/><text fill="#000000" font-family="sans-serif" font-size="14" lengthAdjust="spacingAndGlyphs" textLength="28" x="209" y="106.9951">field</text><ellipse cx="27" cy="153.2969" fill="#000000" filter="url(#fs9wjus4s4au0)" rx="10" ry="10" style="stroke: none; stroke-width: 1.0;"/><rect fill="#FEFECE" filter="url(#fs9wjus4s4au0)" height="50" rx="12.5" ry="12.5" style="stroke: #A80036; stroke-width: 1.5;" width="50" x="55" y="128.2969"/><line style="stroke: #A80036; stroke-width: 1.5;" x1="55" x2="105" y1="154.5938" y2="154.5938"/><text fill="#000000" font-family="sans-serif" font-size="14" lengthAdjust="spacingAndGlyphs" textLength="17" x="71.5" y="146.292">s1</text><rect fill="#FEFECE" filter="url(#fs9wjus4s4au0)" height="50" rx="12.5" ry="12.5" style="stroke: #A80036; stroke-width: 1.5;" width="50" x="226" y="128.2969"/><line style="stroke: #A80036; stroke-width: 1.5;" x1="226" x2="276" y1="154.5938" y2="154.5938"/><text fill="#000000" font-family="sans-serif" font-size="14" lengthAdjust="spacingAndGlyphs" textLength="17" x="242.5" y="146.292">s2</text><ellipse cx="251" cy="225.2969" fill="none" filter="url(#fs9wjus4s4au0)" rx="10" ry="10" style="stroke: #000000; stroke-width: 1.0;"/><ellipse cx="251.5" cy="225.7969" fill="#000000" rx="6" ry="6" style="stroke: none; stroke-width: 1.0;"/><!--MD5=[163e49cf066973940558776dd9cd4add]
link *start*field to s1--><path d="M37.3516,153.2969 C41.4123,153.2969 45.4731,153.2969 49.5339,153.2969 " fill="none" id="*start*field-&gt;s1" style="stroke: #A80036; stroke-width: 1.0;"/><polygon fill="#A80036" points="54.6775,153.2969,45.6775,149.2969,49.6775,153.2969,45.6775,157.2969,54.6775,153.2969" style="stroke: #A80036; stroke-width: 1.0;"/><!--MD5=[d077887d53ded09ce69bd222ebbe95e1]
link s1 to s2--><path d="M105.2316,153.2969 C136.008,153.2969 187.983,153.2969 220.84,153.2969 " fill="none" id="s1-&gt;s2" style="stroke: #A80036; stroke-width: 1.0;"/><polygon fill="#A80036" points="225.943,153.2969,216.943,149.2969,220.943,153.2969,216.943,157.2969,225.943,153.2969" style="stroke: #A80036; stroke-width: 1.0;"/><text fill="#000000" font-family="sans-serif" font-size="13" lengthAdjust="spacingAndGlyphs" textLength="101" x="115" y="146.3638">accepted_chars</text><!--MD5=[81dec36d2cf465b1e399bc92e9f830d9]
link s2 to s2--><path d="M276.176,145.4527 C285.91,145.104 294,147.7188 294,153.2969 C294,157.8291 288.659,160.4051 281.435,161.0247 " fill="none" id="s2-&gt;s2" style="stroke: #A80036; stroke-width: 1.0;"/><polygon fill="#A80036" points="276.176,161.1411,285.2618,164.9421,281.1748,161.0311,285.0858,156.944,276.176,161.1411" style="stroke: #A80036; stroke-width: 1.0;"/><text fill="#000000" font-family="sans-serif" font-size="13" lengthAdjust="spacingAndGlyphs" textLength="101" x="300" y="157.8638">accepted_chars</text><!--MD5=[9059272db24e435f3540ae061e3e9be2]
link s2 to *end*field--><path d="M251,178.3869 C251,188.8671 251,200.7974 251,209.8691 " fill="none" id="s2-&gt;*end*field" style="stroke: #A80036; stroke-width: 1.0;"/><polygon fill="#A80036" points="251,215.1097,255,206.1097,251,210.1097,247,206.1097,251,215.1097" style="stroke: #A80036; stroke-width: 1.0;"/><!--MD5=[347f18f137a38e8f83d80523542fea30]
reverse link field to *start--><path d="M223,255.2285 C223,277.9086 223,299.3409 223,310.9709 " fill="none" id="field&lt;-*start" style="stroke: #A80036; stroke-width: 1.0;"/><polygon fill="#A80036" points="223,250.0649,219,259.0649,223,255.0649,227,259.0649,223,250.0649" style="stroke: #A80036; stroke-width: 1.0;"/><!--MD5=[2fd1ce87d7f3b8f77090ca1d8113dadb]
link field to s3--><path d="M440.11,188.406 C447.832,188.82 455.481,189.187 463,189.5 C480.762,190.239 485.567,192.987 503,189.5 C509.017,188.297 515.222,186.322 521.092,184.072 " fill="none" id="field-&gt;s3" style="stroke: #A80036; stroke-width: 1.0;"/><polygon fill="#A80036" points="525.932,182.127,516.0896,181.7708,521.2925,183.9911,519.0721,189.194,525.932,182.127" style="stroke: #A80036; stroke-width: 1.0;"/><text fill="#000000" font-family="sans-serif" font-size="13" lengthAdjust="spacingAndGlyphs" textLength="38" x="464" y="185.5669">space</text><!--MD5=[80ac1581d06edbd4f5b888caf8ac3b16]
link s3 to field--><path d="M525.654,169.5 C506.355,169.5 477.699,169.5 445.593,169.5 " fill="none" id="s3-&gt;field" style="stroke: #A80036; stroke-width: 1.0;"/><polygon fill="#A80036" points="440.411,169.5,449.411,173.5,445.411,169.5,449.411,165.5,440.411,169.5" style="stroke: #A80036; stroke-width: 1.0;"/><text fill="#000000" font-family="sans-serif" font-size="13" lengthAdjust="spacingAndGlyphs" textLength="49" x="458.5" y="162.5669">comma</text><!--MD5=[1126b381a365a63d5868e18e7ac09509]
reverse link *end to field--><path d="M223,33.572 C223,46.868 223,67.637 223,88.93 " fill="none" id="*end&lt;-field" style="stroke: #A80036; stroke-width: 1.0;"/><polygon fill="#A80036" points="223,28.352,219,37.352,223,33.352,227,37.352,223,28.352" style="stroke: #A80036; stroke-width: 1.0;"/><!--MD5=[a32d9299d07edf82826fa170bcd43ec4]
@startuml
state "field" as field {
[*]->s1
s1->s2:accepted_chars
s2->s2:accepted_chars
s2-down->[*]
}

[*] -up-> field
field -> s3: space
s3->field: comma
field-up->[*]
@enduml

PlantUML version 1.2019.11(Sun Sep 22 10:02:15 UTC 2019)
(GPL source distribution)
Java Runtime: Java(TM) SE Runtime Environment
JVM: Java HotSpot(TM) 64-Bit Server VM
Java Version: 1.7.0_25-b15
Operating System: Linux
Default Encoding: UTF-8
Language: en
Country: US
--></g></svg>