<?xml version="1.0" encoding="UTF-8" standalone="no"?><svg xmlns="http://www.w3.org/2000/svg" xmlns:xlink="http://www.w3.org/1999/xlink" contentScriptType="application/ecmascript" contentStyleType="text/css" height="531px" preserveAspectRatio="none" style="width:739px;height:531px;" version="1.1" viewBox="0 0 739 531" width="739px" zoomAndPan="magnify"><defs><filter height="300%" id="f1cuubjs84myuk" width="300%" x="-1" y="-1"><feGaussianBlur result="blurOut" stdDeviation="2.0"/><feColorMatrix in="blurOut" result="blurOut2" type="matrix" values="0 0 0 0 0 0 0 0 0 0 0 0 0 0 0 0 0 0 .4 0"/><feOffset dx="4.0" dy="4.0" in="blurOut2" result="blurOut3"/><feBlend in="SourceGraphic" in2="blurOut3" mode="normal"/></filter></defs><g><ellipse cx="119" cy="160" fill="#000000" filter="url(#f1cuubjs84myuk)" rx="10" ry="10" style="stroke: none; stroke-width: 1.0;"/><rect fill="#FEFECE" filter="url(#f1cuubjs84myuk)" height="50" rx="12.5" ry="12.5" style="stroke: #A80036; stroke-width: 1.5;" width="99" x="164.5" y="135"/><line style="stroke: #A80036; stroke-width: 1.5;" x1="164.5" x2="263.5" y1="161.2969" y2="161.2969"/><text fill="#000000" font-family="sans-serif" font-size="14" lengthAdjust="spacingAndGlyphs" textLength="79" x="174.5" y="152.9951">s_new_field</text><ellipse cx="16" cy="510" fill="none" filter="url(#f1cuubjs84myuk)" rx="10" ry="10" style="stroke: #000000; stroke-width: 1.0;"/><ellipse cx="16.5" cy="510.5" fill="#000000" rx="6" ry="6" style="stroke: none; stroke-width: 1.0;"/><rect fill="#FEFECE" filter="url(#f1cuubjs84myuk)" height="50" rx="12.5" ry="12.5" style="stroke: #A80036; stroke-width: 1.5;" width="114" x="179" y="389"/><line style="stroke: #A80036; stroke-width: 1.5;" x1="179" x2="293" y1="415.2969" y2="415.2969"/><text fill="#000000" font-family="sans-serif" font-size="14" lengthAdjust="spacingAndGlyphs" textLength="94" x="189" y="406.9951">s_record_end</text><rect fill="#FEFECE" filter="url(#f1cuubjs84myuk)" height="50" rx="12.5" ry="12.5" style="stroke: #A80036; stroke-width: 1.5;" width="113" x="377.5" y="8"/><line style="stroke: #A80036; stroke-width: 1.5;" x1="377.5" x2="490.5" y1="34.2969" y2="34.2969"/><text fill="#000000" font-family="sans-serif" font-size="14" lengthAdjust="spacingAndGlyphs" textLength="93" x="387.5" y="25.9951">s_no_capture</text><rect fill="#FEFECE" filter="url(#f1cuubjs84myuk)" height="50" rx="12.5" ry="12.5" style="stroke: #A80036; stroke-width: 1.5;" width="88" x="282" y="262"/><line style="stroke: #A80036; stroke-width: 1.5;" x1="282" x2="370" y1="288.2969" y2="288.2969"/><text fill="#000000" font-family="sans-serif" font-size="14" lengthAdjust="spacingAndGlyphs" textLength="68" x="292" y="279.9951">s_capture</text><!--MD5=[d40819049485911ddf65fa28b481c915]
link *start to s_new_field--><path d="M129.02,160 C139.008,160 148.996,160 158.984,160 " fill="none" id="*start-&gt;s_new_field" style="stroke: #A80036; stroke-width: 1.0;"/><polygon fill="#A80036" points="164.207,160,155.207,156,159.207,160,155.207,164,164.207,160" style="stroke: #A80036; stroke-width: 1.0;"/><!--MD5=[4d5ca74d4776a2e2f5c128b45b76d458]
link s_new_field to *end--><path d="M164.209,178.613 C120.638,194.056 64.0924,214.18 63,215 C42.3823,230.479 37.5838,237.689 29,262 C-0.5702,345.748 9.1549,455.3985 13.9817,494.4317 " fill="none" id="s_new_field-&gt;*end" style="stroke: #A80036; stroke-width: 1.0;"/><polygon fill="#A80036" points="14.6531,499.6668,17.4756,490.231,14.017,494.7074,9.5406,491.2489,14.6531,499.6668" style="stroke: #A80036; stroke-width: 1.0;"/><!--MD5=[3f62b07ad836679aab27617095463343]
link s_record_end to *end--><path d="M179.63,439.0853 C129.325,460.5794 59.2065,490.539 29.8195,503.0953 " fill="none" id="s_record_end-&gt;*end" style="stroke: #A80036; stroke-width: 1.0;"/><polygon fill="#A80036" points="25.1399,505.0948,34.9877,505.2369,29.7378,503.1302,31.8444,497.8803,25.1399,505.0948" style="stroke: #A80036; stroke-width: 1.0;"/><!--MD5=[4196377a776725563764bbdb7f2808c3]
link s_new_field to s_new_field--><path d="M263.894,148.41 C282.834,147.963 298.5,151.826 298.5,160 C298.5,167.408 285.634,171.275 269.125,171.602 " fill="none" id="s_new_field-&gt;s_new_field" style="stroke: #A80036; stroke-width: 1.0;"/><polygon fill="#A80036" points="263.894,171.59,272.8837,175.6131,268.894,171.6029,272.9043,167.6132,263.894,171.59" style="stroke: #A80036; stroke-width: 1.0;"/><text fill="#000000" font-family="sans-serif" font-size="13" lengthAdjust="spacingAndGlyphs" textLength="70" x="304.5" y="164.5669">c_delimiter</text><!--MD5=[a074524b8c27c08aab89ec86c413af15]
reverse link s_no_capture to s_new_field--><path d="M389.105,60.793 C366.393,74.233 338.337,90.661 313,105 C295.45,114.932 275.996,125.613 259.011,134.833 " fill="none" id="s_no_capture&lt;-s_new_field" style="stroke: #A80036; stroke-width: 1.0;"/><polygon fill="#A80036" points="393.574,58.147,383.7919,59.2919,389.272,60.6951,387.8688,66.1751,393.574,58.147" style="stroke: #A80036; stroke-width: 1.0;"/><text fill="#000000" font-family="sans-serif" font-size="13" lengthAdjust="spacingAndGlyphs" textLength="48" x="341" y="101.0669">c_blank</text><!--MD5=[ed0a0b76fa5421688dbd2e05309b6868]
link s_no_capture to s_new_field--><path d="M377.325,35.49 C333.652,39.616 274.567,52.113 237,88 C225.652,98.841 219.893,115.318 216.976,129.67 " fill="none" id="s_no_capture-&gt;s_new_field" style="stroke: #A80036; stroke-width: 1.0;"/><polygon fill="#A80036" points="216.024,134.847,221.5859,126.7189,216.9284,129.9295,213.7178,125.272,216.024,134.847" style="stroke: #A80036; stroke-width: 1.0;"/><text fill="#000000" font-family="sans-serif" font-size="13" lengthAdjust="spacingAndGlyphs" textLength="70" x="238" y="101.0669">c_delimiter</text><!--MD5=[ea88fdd488c41c238c015d7133d4a257]
link s_new_field to s_capture--><path d="M213.764,185.077 C214.749,199.87 218.143,218.507 228,232 C240.201,248.702 259.206,260.852 277.245,269.347 " fill="none" id="s_new_field-&gt;s_capture" style="stroke: #A80036; stroke-width: 1.0;"/><polygon fill="#A80036" points="281.805,271.429,275.2779,264.0536,277.2563,269.3532,271.9566,271.3316,281.805,271.429" style="stroke: #A80036; stroke-width: 1.0;"/><text fill="#000000" font-family="sans-serif" font-size="13" lengthAdjust="spacingAndGlyphs" textLength="48" x="229" y="228.0669">c_other</text><!--MD5=[6d9d6485c4671de4c771748aa2c208f9]
link s_capture to s_new_field--><path d="M315.446,261.713 C308.411,247.197 298.223,228.932 286,215 C277.448,205.253 266.875,196.151 256.49,188.3 " fill="none" id="s_capture-&gt;s_new_field" style="stroke: #A80036; stroke-width: 1.0;"/><polygon fill="#A80036" points="252.369,185.241,257.2112,193.8173,256.3837,188.2213,261.9797,187.3938,252.369,185.241" style="stroke: #A80036; stroke-width: 1.0;"/><text fill="#000000" font-family="sans-serif" font-size="13" lengthAdjust="spacingAndGlyphs" textLength="70" x="300" y="228.0669">c_delimiter</text><!--MD5=[b4f4a14ae84d392a03fbdb085df0d283]
link s_new_field to s_record_end--><path d="M164.314,178.492 C102.1715,203.318 8.034,252.442 44,312 C71.9902,358.351 129.093,384.494 173.783,398.509 " fill="none" id="s_new_field-&gt;s_record_end" style="stroke: #A80036; stroke-width: 1.0;"/><polygon fill="#A80036" points="178.617,399.993,171.1868,393.5283,173.8371,398.5259,168.8395,401.1761,178.617,399.993" style="stroke: #A80036; stroke-width: 1.0;"/><text fill="#000000" font-family="sans-serif" font-size="13" lengthAdjust="spacingAndGlyphs" textLength="86" x="45" y="291.5669">c_record_end</text><!--MD5=[e2f65813a6ddd95b944710e1f34107c1]
link s_record_end to s_new_field--><path d="M221.982,388.631 C211.392,368.741 197.735,339.525 192,312 C183.265,270.076 194.333,220.891 203.678,190.33 " fill="none" id="s_record_end-&gt;s_new_field" style="stroke: #A80036; stroke-width: 1.0;"/><polygon fill="#A80036" points="205.278,185.219,198.7711,192.6122,203.7837,189.9905,206.4054,195.0031,205.278,185.219" style="stroke: #A80036; stroke-width: 1.0;"/><text fill="#000000" font-family="sans-serif" font-size="13" lengthAdjust="spacingAndGlyphs" textLength="70" x="193" y="291.5669">c_delimiter</text><!--MD5=[3367f0514667521b2733b13b54687196]
link s_no_capture to s_no_capture--><path d="M490.74,21.376 C510.011,21.315 525.5,25.189 525.5,33 C525.5,40.078 512.779,43.924 496.051,44.538 " fill="none" id="s_no_capture-&gt;s_no_capture" style="stroke: #A80036; stroke-width: 1.0;"/><polygon fill="#A80036" points="490.74,44.624,499.804,48.4769,495.7393,44.5426,499.6737,40.4779,490.74,44.624" style="stroke: #A80036; stroke-width: 1.0;"/><text fill="#000000" font-family="sans-serif" font-size="13" lengthAdjust="spacingAndGlyphs" textLength="48" x="531.5" y="37.5669">c_blank</text><!--MD5=[fb924eb3fcb5159c14e7dda2e813e504]
link s_no_capture to s_capture--><path d="M431.269,58.052 C426.025,96.891 411.995,174.838 379,232 C373.582,241.386 366.152,250.33 358.569,258.143 " fill="none" id="s_no_capture-&gt;s_capture" style="stroke: #A80036; stroke-width: 1.0;"/><polygon fill="#A80036" points="354.843,261.885,364.0282,258.3309,358.3714,258.3423,358.36,252.6855,354.843,261.885" style="stroke: #A80036; stroke-width: 1.0;"/><text fill="#000000" font-family="sans-serif" font-size="13" lengthAdjust="spacingAndGlyphs" textLength="48" x="417" y="164.5669">c_other</text><!--MD5=[87c71c17109227ec25108d41929290d1]
link s_no_capture to s_record_end--><path d="M490.522,41.512 C521.051,48.509 556.909,62.002 579,88 C656.991,179.784 665.779,275.476 579,359 C539.876,396.657 385.942,408.056 298.17,411.505 " fill="none" id="s_no_capture-&gt;s_record_end" style="stroke: #A80036; stroke-width: 1.0;"/><polygon fill="#A80036" points="293.005,411.702,302.1505,415.3571,298.0014,411.512,301.8465,407.3628,293.005,411.702" style="stroke: #A80036; stroke-width: 1.0;"/><text fill="#000000" font-family="sans-serif" font-size="13" lengthAdjust="spacingAndGlyphs" textLength="86" x="641" y="228.0669">c_record_end</text><!--MD5=[1ba972c02a02ef28cacbfea2cfa9579a]
link s_record_end to s_no_capture--><path d="M293.12,411.117 C359.963,405.465 467.871,384.82 518,312 C573.03,232.061 497.817,115.167 457.109,62.084 " fill="none" id="s_record_end-&gt;s_no_capture" style="stroke: #A80036; stroke-width: 1.0;"/><polygon fill="#A80036" points="454,58.067,456.3446,67.6327,457.06,62.0213,462.6714,62.7367,454,58.067" style="stroke: #A80036; stroke-width: 1.0;"/><text fill="#000000" font-family="sans-serif" font-size="13" lengthAdjust="spacingAndGlyphs" textLength="48" x="537" y="228.0669">c_blank</text><!--MD5=[d1a3fe11683d5a851a2a1d663a4ec3ff]
link s_record_end to s_capture--><path d="M228.785,388.766 C225.911,374.27 224.936,356.007 233,342 C242.707,325.139 259.92,313.058 276.921,304.658 " fill="none" id="s_record_end-&gt;s_capture" style="stroke: #A80036; stroke-width: 1.0;"/><polygon fill="#A80036" points="281.703,302.386,271.8573,302.6357,277.1869,304.5319,275.2907,309.8615,281.703,302.386" style="stroke: #A80036; stroke-width: 1.0;"/><text fill="#000000" font-family="sans-serif" font-size="13" lengthAdjust="spacingAndGlyphs" textLength="48" x="234" y="355.0669">c_other</text><!--MD5=[e865d3794cfb06ca3692bfb5893cd78a]
link s_capture to s_record_end--><path d="M314.615,312.257 C307.501,326.422 297.682,344.336 287,359 C280.475,367.957 272.584,376.986 264.979,385.029 " fill="none" id="s_capture-&gt;s_record_end" style="stroke: #A80036; stroke-width: 1.0;"/><polygon fill="#A80036" points="261.275,388.893,270.3903,385.1633,264.7347,385.2833,264.6148,379.6277,261.275,388.893" style="stroke: #A80036; stroke-width: 1.0;"/><text fill="#000000" font-family="sans-serif" font-size="13" lengthAdjust="spacingAndGlyphs" textLength="86" x="300" y="355.0669">c_record_end</text><!--MD5=[4273777971b46ecd9327155a12fb16e0]
link s_capture to s_capture--><path d="M370.269,275.495 C389.023,274.628 405,278.463 405,287 C405,294.737 391.878,298.612 375.459,298.625 " fill="none" id="s_capture-&gt;s_capture" style="stroke: #A80036; stroke-width: 1.0;"/><polygon fill="#A80036" points="370.269,298.505,379.174,302.7122,375.2677,298.6207,379.3592,294.7144,370.269,298.505" style="stroke: #A80036; stroke-width: 1.0;"/><text fill="#000000" font-family="sans-serif" font-size="13" lengthAdjust="spacingAndGlyphs" textLength="100" x="411" y="291.5669">c_other|c_blank</text><!--MD5=[f3f5cfc0d46d6f680ee9a1bfe706ed4c]
@startuml
[*] -> s_new_field
s_new_field -down-> [*]
s_record_end -down-> [*]
s_new_field -> s_new_field: c_delimiter
s_new_field -up-> s_no_capture: c_blank
s_new_field -down-> s_capture: c_other
s_new_field -> s_record_end: c_record_end
s_no_capture -> s_no_capture: c_blank
s_no_capture -> s_capture: c_other
s_no_capture -> s_new_field: c_delimiter
s_no_capture -> s_record_end: c_record_end
s_record_end -> s_new_field: c_delimiter
s_record_end -> s_no_capture: c_blank
s_record_end -> s_capture: c_other
s_capture -> s_capture: c_other|c_blank
s_capture -> s_new_field: c_delimiter
s_capture -down-> s_record_end: c_record_end
@enduml

PlantUML version 1.2019.11(Sun Sep 22 10:02:15 UTC 2019)
(GPL source distribution)
Java Runtime: Java(TM) SE Runtime Environment
JVM: Java HotSpot(TM) 64-Bit Server VM
Java Version: 1.7.0_25-b15
Operating System: Linux
Default Encoding: UTF-8
Language: en
Country: US
--></g></svg>