<?xml version="1.0" encoding="UTF-8" standalone="no"?><svg xmlns="http://www.w3.org/2000/svg" xmlns:xlink="http://www.w3.org/1999/xlink" contentScriptType="application/ecmascript" contentStyleType="text/css" height="298px" preserveAspectRatio="none" style="width:1219px;height:298px;" version="1.1" viewBox="0 0 1219 298" width="1219px" zoomAndPan="magnify"><defs><filter height="300%" id="f1xnhe2cya0jpi" width="300%" x="-1" y="-1"><feGaussianBlur result="blurOut" stdDeviation="2.0"/><feColorMatrix in="blurOut" result="blurOut2" type="matrix" values="0 0 0 0 0 0 0 0 0 0 0 0 0 0 0 0 0 0 .4 0"/><feOffset dx="4.0" dy="4.0" in="blurOut2" result="blurOut3"/><feBlend in="SourceGraphic" in2="blurOut3" mode="normal"/></filter></defs><g><ellipse cx="849" cy="143.252" fill="#000000" filter="url(#f1xnhe2cya0jpi)" rx="10" ry="10" style="stroke: none; stroke-width: 1.0;"/><rect fill="#FEFECE" filter="url(#f1xnhe2cya0jpi)" height="50" rx="12.5" ry="12.5" style="stroke: #A80036; stroke-width: 1.5;" width="99" x="894.5" y="118.252"/><line style="stroke: #A80036; stroke-width: 1.5;" x1="894.5" x2="993.5" y1="144.5489" y2="144.5489"/><text fill="#000000" font-family="sans-serif" font-size="14" lengthAdjust="spacingAndGlyphs" textLength="79" x="904.5" y="136.2471">s_new_field</text><ellipse cx="883" cy="253.252" fill="none" filter="url(#f1xnhe2cya0jpi)" rx="10" ry="10" style="stroke: #000000; stroke-width: 1.0;"/><ellipse cx="883.5" cy="253.752" fill="#000000" rx="6" ry="6" style="stroke: none; stroke-width: 1.0;"/><rect fill="#FEFECE" filter="url(#f1xnhe2cya0jpi)" height="50" rx="12.5" ry="12.5" style="stroke: #A80036; stroke-width: 1.5;" width="114" x="6" y="228.252"/><line style="stroke: #A80036; stroke-width: 1.5;" x1="6" x2="120" y1="254.5489" y2="254.5489"/><text fill="#000000" font-family="sans-serif" font-size="14" lengthAdjust="spacingAndGlyphs" textLength="94" x="16" y="246.2471">s_record_end</text><rect fill="#FEFECE" filter="url(#f1xnhe2cya0jpi)" height="50" rx="12.5" ry="12.5" style="stroke: #A80036; stroke-width: 1.5;" width="113" x="401.5" y="228.252"/><line style="stroke: #A80036; stroke-width: 1.5;" x1="401.5" x2="514.5" y1="254.5489" y2="254.5489"/><text fill="#000000" font-family="sans-serif" font-size="14" lengthAdjust="spacingAndGlyphs" textLength="93" x="411.5" y="246.2471">s_no_capture</text><rect fill="#FEFECE" filter="url(#f1xnhe2cya0jpi)" height="50" rx="12.5" ry="12.5" style="stroke: #A80036; stroke-width: 1.5;" width="88" x="1049" y="228.252"/><line style="stroke: #A80036; stroke-width: 1.5;" x1="1049" x2="1137" y1="254.5489" y2="254.5489"/><text fill="#000000" font-family="sans-serif" font-size="14" lengthAdjust="spacingAndGlyphs" textLength="68" x="1059" y="246.2471">s_capture</text><rect fill="#FEFECE" filter="url(#f1xnhe2cya0jpi)" height="50" rx="12.5" ry="12.5" style="stroke: #A80036; stroke-width: 1.5;" width="85" x="567.5" y="228.252"/><line style="stroke: #A80036; stroke-width: 1.5;" x1="567.5" x2="652.5" y1="254.5489" y2="254.5489"/><text fill="#000000" font-family="sans-serif" font-size="14" lengthAdjust="spacingAndGlyphs" textLength="65" x="577.5" y="246.2471">s_q_initial</text><rect fill="#FEFECE" filter="url(#f1xnhe2cya0jpi)" height="50" rx="12.5" ry="12.5" style="stroke: #A80036; stroke-width: 1.5;" width="86" x="928" y="228.252"/><line style="stroke: #A80036; stroke-width: 1.5;" x1="928" x2="1014" y1="254.5489" y2="254.5489"/><text fill="#000000" font-family="sans-serif" font-size="14" lengthAdjust="spacingAndGlyphs" textLength="66" x="938" y="246.2471">s_escape</text><rect fill="#FEFECE" filter="url(#f1xnhe2cya0jpi)" height="50" rx="12.5" ry="12.5" style="stroke: #A80036; stroke-width: 1.5;" width="193" x="155.5" y="228.252"/><line style="stroke: #A80036; stroke-width: 1.5;" x1="155.5" x2="348.5" y1="254.5489" y2="254.5489"/><text fill="#000000" font-family="sans-serif" font-size="14" lengthAdjust="spacingAndGlyphs" textLength="173" x="165.5" y="246.2471">s_redundant_record_end</text><rect fill="#FEFECE" filter="url(#f1xnhe2cya0jpi)" height="50" rx="12.5" ry="12.5" style="stroke: #A80036; stroke-width: 1.5;" width="104" x="497" y="118.252"/><line style="stroke: #A80036; stroke-width: 1.5;" x1="497" x2="601" y1="144.5489" y2="144.5489"/><text fill="#000000" font-family="sans-serif" font-size="14" lengthAdjust="spacingAndGlyphs" textLength="84" x="507" y="136.2471">s_q_capture</text><rect fill="#FEFECE" filter="url(#f1xnhe2cya0jpi)" height="50" rx="12.5" ry="12.5" style="stroke: #A80036; stroke-width: 1.5;" width="150" x="688" y="228.252"/><line style="stroke: #A80036; stroke-width: 1.5;" x1="688" x2="838" y1="254.5489" y2="254.5489"/><text fill="#000000" font-family="sans-serif" font-size="14" lengthAdjust="spacingAndGlyphs" textLength="130" x="698" y="246.2471">s_q_escape_quote</text><rect fill="#FEFECE" filter="url(#f1xnhe2cya0jpi)" height="50" rx="12.5" ry="12.5" style="stroke: #A80036; stroke-width: 1.5;" width="78" x="708" y="118.252"/><line style="stroke: #A80036; stroke-width: 1.5;" x1="708" x2="786" y1="144.5489" y2="144.5489"/><text fill="#000000" font-family="sans-serif" font-size="14" lengthAdjust="spacingAndGlyphs" textLength="58" x="718" y="136.2471">s_q_final</text><rect fill="#FEFECE" filter="url(#f1xnhe2cya0jpi)" height="50" rx="12.5" ry="12.5" style="stroke: #A80036; stroke-width: 1.5;" width="102" x="498" y="8.252"/><line style="stroke: #A80036; stroke-width: 1.5;" x1="498" x2="600" y1="34.5489" y2="34.5489"/><text fill="#000000" font-family="sans-serif" font-size="14" lengthAdjust="spacingAndGlyphs" textLength="82" x="508" y="26.2471">s_q_escape</text><!--MD5=[d40819049485911ddf65fa28b481c915]
link *start to s_new_field--><path d="M859.02,143.252 C869.008,143.252 878.996,143.252 888.984,143.252 " fill="none" id="*start-&gt;s_new_field" style="stroke: #A80036; stroke-width: 1.0;"/><polygon fill="#A80036" points="894.207,143.252,885.207,139.252,889.207,143.252,885.207,147.252,894.207,143.252" style="stroke: #A80036; stroke-width: 1.0;"/><!--MD5=[4d5ca74d4776a2e2f5c128b45b76d458]
link s_new_field to *end--><path d="M930.31,168.489 C917.853,190.5458 899.953,222.2365 890.128,239.6313 " fill="none" id="s_new_field-&gt;*end" style="stroke: #A80036; stroke-width: 1.0;"/><polygon fill="#A80036" points="887.583,244.1386,895.4924,238.27,890.0423,239.7852,888.527,234.3351,887.583,244.1386" style="stroke: #A80036; stroke-width: 1.0;"/><!--MD5=[3f62b07ad836679aab27617095463343]
link s_record_end to *end--><path d="M95.2764,228.2078 C112.206,216.6499 133.882,204.1936 155.5,198.252 C228.568,178.17 768.934,165.987 837.5,198.252 C855.476,206.7108 868.781,226.1438 876.216,239.4894 " fill="none" id="s_record_end-&gt;*end" style="stroke: #A80036; stroke-width: 1.0;"/><polygon fill="#A80036" points="878.687,244.0991,877.9602,234.2771,876.3246,239.6924,870.9094,238.0569,878.687,244.0991" style="stroke: #A80036; stroke-width: 1.0;"/><!--MD5=[4196377a776725563764bbdb7f2808c3]
link s_new_field to s_new_field--><path d="M993.894,122.689 C1012.83,121.896 1028.5,128.75 1028.5,143.252 C1028.5,156.394 1015.63,163.256 999.125,163.837 " fill="none" id="s_new_field-&gt;s_new_field" style="stroke: #A80036; stroke-width: 1.0;"/><polygon fill="#A80036" points="993.894,163.815,1002.8768,167.8535,998.894,163.8364,1002.9111,159.8536,993.894,163.815" style="stroke: #A80036; stroke-width: 1.0;"/><text fill="#000000" font-family="sans-serif" font-size="13" lengthAdjust="spacingAndGlyphs" textLength="70" x="1000.116" y="113.7469">c_delimiter</text><!--MD5=[a074524b8c27c08aab89ec86c413af15]
reverse link s_no_capture to s_new_field--><path d="M519.782,239.8806 C535.704,235.9281 552.521,231.6907 568,228.252 C711.817,196.3036 751.654,206.2186 894,168.252 C894.121,168.22 894.242,168.187 894.363,168.155 " fill="none" id="s_no_capture&lt;-s_new_field" style="stroke: #A80036; stroke-width: 1.0;"/><polygon fill="#A80036" points="514.872,241.0968,524.5695,242.8169,519.7255,239.8953,522.6471,235.0513,514.872,241.0968" style="stroke: #A80036; stroke-width: 1.0;"/><text fill="#000000" font-family="sans-serif" font-size="13" lengthAdjust="spacingAndGlyphs" textLength="48" x="655.543" y="217.2415">c_blank</text><!--MD5=[ed0a0b76fa5421688dbd2e05309b6868]
link s_no_capture to s_new_field--><path d="M514.752,232.5189 C520.877,231.0194 527.038,229.5764 533,228.252 C676.817,196.3036 716.654,206.2186 859,168.252 C868.772,165.646 879.147,162.294 889.307,158.928 " fill="none" id="s_no_capture-&gt;s_new_field" style="stroke: #A80036; stroke-width: 1.0;"/><polygon fill="#A80036" points="894.273,157.277,884.4707,156.3203,889.5283,158.8543,886.9944,163.9119,894.273,157.277" style="stroke: #A80036; stroke-width: 1.0;"/><text fill="#000000" font-family="sans-serif" font-size="13" lengthAdjust="spacingAndGlyphs" textLength="70" x="706.13" y="212.3903">c_delimiter</text><!--MD5=[ea88fdd488c41c238c015d7133d4a257]
link s_new_field to s_capture--><path d="M966.595,168.489 C987.385,185.303 1018.18,207.7159 1044.35,225.1262 " fill="none" id="s_new_field-&gt;s_capture" style="stroke: #A80036; stroke-width: 1.0;"/><polygon fill="#A80036" points="1048.84,228.0956,1043.5376,219.796,1044.6688,225.3385,1039.1263,226.4698,1048.84,228.0956" style="stroke: #A80036; stroke-width: 1.0;"/><text fill="#000000" font-family="sans-serif" font-size="13" lengthAdjust="spacingAndGlyphs" textLength="48" x="957.966" y="195.1989">c_other</text><!--MD5=[6d9d6485c4671de4c771748aa2c208f9]
link s_capture to s_new_field--><path d="M1071.14,228.0956 C1050.44,211.2301 1019.5,188.703 993.112,171.246 " fill="none" id="s_capture-&gt;s_new_field" style="stroke: #A80036; stroke-width: 1.0;"/><polygon fill="#A80036" points="988.92,168.489,994.2416,176.7763,993.0975,171.2364,998.6375,170.0923,988.92,168.489" style="stroke: #A80036; stroke-width: 1.0;"/><text fill="#000000" font-family="sans-serif" font-size="13" lengthAdjust="spacingAndGlyphs" textLength="70" x="1031.73" y="193.4009">c_delimiter</text><!--MD5=[b3b6142a1a0a4e1c08eb27d3731fe2ed]
reverse link s_q_initial to s_new_field--><path d="M657.627,232.7155 C661.793,231.1545 665.96,229.6448 670,228.252 C760.154,197.1741 785.225,197.4656 876,168.252 C881.959,166.334 888.184,164.25 894.344,162.138 " fill="none" id="s_q_initial&lt;-s_new_field" style="stroke: #A80036; stroke-width: 1.0;"/><polygon fill="#A80036" points="652.745,234.5676,662.5787,235.1138,657.4197,232.7934,659.7401,227.6344,652.745,234.5676" style="stroke: #A80036; stroke-width: 1.0;"/><text fill="#000000" font-family="sans-serif" font-size="13" lengthAdjust="spacingAndGlyphs" textLength="51" x="721.444" y="193.4449">c_quote</text><!--MD5=[b4f4a14ae84d392a03fbdb085df0d283]
link s_new_field to s_record_end--><path d="M894.44,157.971 C882.734,161.908 870.509,165.796 859,168.252 C538.89,236.5504 444.828,165.129 125.389,227.3927 " fill="none" id="s_new_field-&gt;s_record_end" style="stroke: #A80036; stroke-width: 1.0;"/><polygon fill="#A80036" points="120.194,228.4131,129.7965,230.6023,125.1001,227.4488,128.2536,222.7525,120.194,228.4131" style="stroke: #A80036; stroke-width: 1.0;"/><text fill="#000000" font-family="sans-serif" font-size="13" lengthAdjust="spacingAndGlyphs" textLength="86" x="420.105" y="196.3679">c_record_end</text><!--MD5=[e2f65813a6ddd95b944710e1f34107c1]
link s_record_end to s_new_field--><path d="M120.354,237.5779 C132.218,233.9925 144.466,230.5349 156,228.252 C477.085,164.697 571.152,236.1436 889.195,169.269 " fill="none" id="s_record_end-&gt;s_new_field" style="stroke: #A80036; stroke-width: 1.0;"/><polygon fill="#A80036" points="894.368,168.173,884.734,166.1268,889.4767,169.2101,886.3934,173.9528,894.368,168.173" style="stroke: #A80036; stroke-width: 1.0;"/><text fill="#000000" font-family="sans-serif" font-size="13" lengthAdjust="spacingAndGlyphs" textLength="70" x="436.368" y="212.8272">c_delimiter</text><!--MD5=[3367f0514667521b2733b13b54687196]
link s_no_capture to s_no_capture--><path d="M514.74,232.6282 C534.011,232.52 549.5,239.3945 549.5,253.252 C549.5,265.8103 536.779,272.6336 520.051,273.722 " fill="none" id="s_no_capture-&gt;s_no_capture" style="stroke: #A80036; stroke-width: 1.0;"/><polygon fill="#A80036" points="514.74,273.8757,523.8527,277.6117,519.7379,273.73,523.6196,269.6151,514.74,273.8757" style="stroke: #A80036; stroke-width: 1.0;"/><text fill="#000000" font-family="sans-serif" font-size="13" lengthAdjust="spacingAndGlyphs" textLength="48" x="521.191" y="223.6939">c_blank</text><!--MD5=[fb924eb3fcb5159c14e7dda2e813e504]
link s_no_capture to s_capture--><path d="M496.844,228.1624 C517.047,216.5928 542.66,204.1399 567.5,198.252 C664.155,175.342 919.768,168.368 1014.5,198.252 C1031.61,203.6509 1048.24,214.2616 1061.75,224.7348 " fill="none" id="s_no_capture-&gt;s_capture" style="stroke: #A80036; stroke-width: 1.0;"/><polygon fill="#A80036" points="1065.84,227.9748,1061.2623,219.2544,1061.9183,224.8731,1056.2996,225.5291,1065.84,227.9748" style="stroke: #A80036; stroke-width: 1.0;"/><text fill="#000000" font-family="sans-serif" font-size="13" lengthAdjust="spacingAndGlyphs" textLength="48" x="781.402" y="191.6699">c_other</text><!--MD5=[a1d571d047d8f0df85f709e8a0a0816c]
link s_no_capture to s_q_initial--><path d="M514.703,253.252 C530.422,253.252 546.141,253.252 561.86,253.252 " fill="none" id="s_no_capture-&gt;s_q_initial" style="stroke: #A80036; stroke-width: 1.0;"/><polygon fill="#A80036" points="567.191,253.252,558.191,249.252,562.191,253.252,558.191,257.252,567.191,253.252" style="stroke: #A80036; stroke-width: 1.0;"/><text fill="#000000" font-family="sans-serif" font-size="13" lengthAdjust="spacingAndGlyphs" textLength="51" x="515.36" y="266.3189">c_quote</text><!--MD5=[0391467f4ba44d019a7aaf749dcac0dd]
link s_no_capture to s_escape--><path d="M496.844,228.1624 C517.047,216.5928 542.66,204.1399 567.5,198.252 C708.05,164.937 754.747,154.797 892.5,198.252 C909.615,203.6509 926.24,214.2616 939.752,224.7348 " fill="none" id="s_no_capture-&gt;s_escape" style="stroke: #A80036; stroke-width: 1.0;"/><polygon fill="#A80036" points="943.843,227.9748,939.2712,219.2514,939.9234,224.8705,934.3043,225.5227,943.843,227.9748" style="stroke: #A80036; stroke-width: 1.0;"/><text fill="#000000" font-family="sans-serif" font-size="13" lengthAdjust="spacingAndGlyphs" textLength="60" x="655.309" y="183.2469">c_escape</text><!--MD5=[87c71c17109227ec25108d41929290d1]
link s_no_capture to s_record_end--><path d="M419.933,228.2074 C405.617,220.1772 388.807,212.3155 372.333,208.252 C276.25,184.552 245.806,184.78 149.667,208.252 C134.722,211.9007 119.482,218.6167 106.035,225.7671 " fill="none" id="s_no_capture-&gt;s_record_end" style="stroke: #A80036; stroke-width: 1.0;"/><polygon fill="#A80036" points="101.5466,228.2048,111.3644,227.4236,105.9402,225.8181,107.5457,220.3939,101.5466,228.2048" style="stroke: #A80036; stroke-width: 1.0;"/><text fill="#000000" font-family="sans-serif" font-size="13" lengthAdjust="spacingAndGlyphs" textLength="86" x="173.28" y="186.6309">c_record_end</text><!--MD5=[1ba972c02a02ef28cacbfea2cfa9579a]
link s_record_end to s_no_capture--><path d="M91.2358,228.0822 C109.745,213.3263 135.268,196.0881 161.333,188.252 C246.175,162.746 275.886,162.546 360.667,188.252 C384.711,195.5423 408.235,210.954 426.133,224.9411 " fill="none" id="s_record_end-&gt;s_no_capture" style="stroke: #A80036; stroke-width: 1.0;"/><polygon fill="#A80036" points="430.095,228.0861,425.5327,219.3577,426.1788,224.9775,420.559,225.6236,430.095,228.0861" style="stroke: #A80036; stroke-width: 1.0;"/><text fill="#000000" font-family="sans-serif" font-size="13" lengthAdjust="spacingAndGlyphs" textLength="48" x="211.352" y="165.1159">c_blank</text><!--MD5=[d1a3fe11683d5a851a2a1d663a4ec3ff]
link s_record_end to s_capture--><path d="M101.5466,228.2048 C116.033,220.1743 133.032,212.3132 149.667,208.252 C243.647,185.307 927.286,181.775 1020.33,208.252 C1033.06,211.8732 1045.74,218.4309 1056.85,225.4402 " fill="none" id="s_record_end-&gt;s_capture" style="stroke: #A80036; stroke-width: 1.0;"/><polygon fill="#A80036" points="1061.19,228.2496,1055.8043,220.0038,1056.9913,225.5347,1051.4604,226.7217,1061.19,228.2496" style="stroke: #A80036; stroke-width: 1.0;"/><text fill="#000000" font-family="sans-serif" font-size="13" lengthAdjust="spacingAndGlyphs" textLength="48" x="582.366" y="185.7959">c_other</text><!--MD5=[e865d3794cfb06ca3692bfb5893cd78a]
link s_capture to s_record_end--><path d="M1069.42,228.1457 C1053.79,213.4144 1031.94,196.1798 1008.67,188.252 C964.107,173.073 206.414,174.699 161.333,188.252 C137.101,195.5371 113.337,210.9487 95.2419,224.937 " fill="none" id="s_capture-&gt;s_record_end" style="stroke: #A80036; stroke-width: 1.0;"/><polygon fill="#A80036" points="91.2358,228.0822,100.7849,225.6707,95.1686,224.9946,95.8446,219.3783,91.2358,228.0822" style="stroke: #A80036; stroke-width: 1.0;"/><text fill="#000000" font-family="sans-serif" font-size="13" lengthAdjust="spacingAndGlyphs" textLength="86" x="492.906" y="173.5509">c_record_end</text><!--MD5=[439f32c6285a9b3d307d5dd097c20173]
link s_record_end to s_q_initial--><path d="M95.2764,228.2078 C112.206,216.6499 133.882,204.1936 155.5,198.252 C236.282,176.05 452.68,172.807 532.5,198.252 C549.452,203.656 565.875,214.2675 579.206,224.74 " fill="none" id="s_record_end-&gt;s_q_initial" style="stroke: #A80036; stroke-width: 1.0;"/><polygon fill="#A80036" points="583.242,227.9797,578.7279,219.2263,579.343,224.8496,573.7197,225.4647,583.242,227.9797" style="stroke: #A80036; stroke-width: 1.0;"/><text fill="#000000" font-family="sans-serif" font-size="13" lengthAdjust="spacingAndGlyphs" textLength="51" x="286.711" y="176.4939">c_quote</text><!--MD5=[7052538060ed127048ac044055a491d1]
link s_record_end to s_redundant_record_end--><path d="M120.217,253.252 C130.226,253.252 140.235,253.252 150.245,253.252 " fill="none" id="s_record_end-&gt;s_redundant_record_end" style="stroke: #A80036; stroke-width: 1.0;"/><polygon fill="#A80036" points="155.479,253.252,146.479,249.252,150.479,253.252,146.479,257.252,155.479,253.252" style="stroke: #A80036; stroke-width: 1.0;"/><text fill="#000000" font-family="sans-serif" font-size="13" lengthAdjust="spacingAndGlyphs" textLength="86" x="73.046" y="266.3189">c_record_end</text><!--MD5=[125d3e079e66e25c978f0688f230b84d]
link s_redundant_record_end to s_no_capture--><path d="M348.562,253.252 C364.31,253.252 380.057,253.252 395.804,253.252 " fill="none" id="s_redundant_record_end-&gt;s_no_capture" style="stroke: #A80036; stroke-width: 1.0;"/><polygon fill="#A80036" points="401.144,253.252,392.144,249.252,396.144,253.252,392.144,257.252,401.144,253.252" style="stroke: #A80036; stroke-width: 1.0;"/><text fill="#000000" font-family="sans-serif" font-size="13" lengthAdjust="spacingAndGlyphs" textLength="48" x="350.766" y="266.3189">c_blank</text><!--MD5=[a562738e6d902bfae31be4e5f3a901f6]
link s_redundant_record_end to s_capture--><path d="M305.738,228.2491 C333.646,216.6238 368.691,204.0955 401.5,198.252 C535.612,174.365 884.588,157.27 1014.5,198.252 C1031.61,203.6509 1048.24,214.2616 1061.75,224.7348 " fill="none" id="s_redundant_record_end-&gt;s_capture" style="stroke: #A80036; stroke-width: 1.0;"/><polygon fill="#A80036" points="1065.84,227.9748,1061.2623,219.2544,1061.9183,224.8731,1056.2996,225.5291,1065.84,227.9748" style="stroke: #A80036; stroke-width: 1.0;"/><text fill="#000000" font-family="sans-serif" font-size="13" lengthAdjust="spacingAndGlyphs" textLength="48" x="635.573" y="170.5529">c_other</text><!--MD5=[c5489087c1b661d66f7ef4ac51645143]
link s_redundant_record_end to s_q_initial--><path d="M302.785,228.2501 C359.657,203.6939 454.132,173.27 532.5,198.252 C549.452,203.656 565.875,214.2675 579.206,224.74 " fill="none" id="s_redundant_record_end-&gt;s_q_initial" style="stroke: #A80036; stroke-width: 1.0;"/><polygon fill="#A80036" points="583.242,227.9797,578.7279,219.2263,579.343,224.8496,573.7197,225.4647,583.242,227.9797" style="stroke: #A80036; stroke-width: 1.0;"/><text fill="#000000" font-family="sans-serif" font-size="13" lengthAdjust="spacingAndGlyphs" textLength="51" x="387.402" y="186.4519">c_quote</text><!--MD5=[b12e7435cc3275b51807fb0ab6007538]
link s_redundant_record_end to s_new_field--><path d="M348.852,233.9736 C360.675,231.94 372.601,229.9818 384,228.252 C601.793,195.2015 661.53,218.5415 876,168.252 C880.386,167.224 884.883,166.01 889.372,164.684 " fill="none" id="s_redundant_record_end-&gt;s_new_field" style="stroke: #A80036; stroke-width: 1.0;"/><polygon fill="#A80036" points="894.235,163.204,884.4604,161.9971,889.4515,164.6595,886.7891,169.6506,894.235,163.204" style="stroke: #A80036; stroke-width: 1.0;"/><text fill="#000000" font-family="sans-serif" font-size="13" lengthAdjust="spacingAndGlyphs" textLength="70" x="586.946" y="218.3895">c_delimiter</text><!--MD5=[e40eb5c4129223306e837ce212c5b920]
link s_redundant_record_end to s_escape--><path d="M305.738,228.2491 C333.646,216.6238 368.691,204.0955 401.5,198.252 C508.921,179.119 788.444,165.427 892.5,198.252 C909.615,203.6509 926.24,214.2616 939.752,224.7348 " fill="none" id="s_redundant_record_end-&gt;s_escape" style="stroke: #A80036; stroke-width: 1.0;"/><polygon fill="#A80036" points="943.843,227.9748,939.2712,219.2514,939.9234,224.8705,934.3043,225.5227,943.843,227.9748" style="stroke: #A80036; stroke-width: 1.0;"/><text fill="#000000" font-family="sans-serif" font-size="13" lengthAdjust="spacingAndGlyphs" textLength="60" x="562.449" y="175.4169">c_escape</text><!--MD5=[9f770233fe4aefea9b21737d5b2577be]
link s_redundant_record_end to s_redundant_record_end--><path d="M348.621,233.3222 C368.892,235.3831 383.5,242.0264 383.5,253.252 C383.5,263.5129 371.295,269.9452 353.716,272.5489 " fill="none" id="s_redundant_record_end-&gt;s_redundant_record_end" style="stroke: #A80036; stroke-width: 1.0;"/><polygon fill="#A80036" points="348.621,273.1818,358.0451,276.043,353.5829,272.5661,357.0599,268.1039,348.621,273.1818" style="stroke: #A80036; stroke-width: 1.0;"/><text fill="#000000" font-family="sans-serif" font-size="13" lengthAdjust="spacingAndGlyphs" textLength="86" x="356.97" y="224.6516">c_record_end</text><!--MD5=[4273777971b46ecd9327155a12fb16e0]
link s_capture to s_capture--><path d="M1137.27,243.0458 C1156.02,242.2767 1172,245.6787 1172,253.252 C1172,260.1152 1158.88,263.5527 1142.46,263.5644 " fill="none" id="s_capture-&gt;s_capture" style="stroke: #A80036; stroke-width: 1.0;"/><polygon fill="#A80036" points="1137.27,263.4581,1146.1882,267.6373,1142.269,263.5581,1146.3482,259.6389,1137.27,263.4581" style="stroke: #A80036; stroke-width: 1.0;"/><text fill="#000000" font-family="sans-serif" font-size="13" lengthAdjust="spacingAndGlyphs" textLength="48" x="1143.49" y="234.1039">c_other</text><!--MD5=[4273777971b46ecd9327155a12fb16e0]
link s_capture to s_capture--><path d="M1137.17,235.3489 C1171.69,228.5392 1207,234.5069 1207,253.252 C1207,271.0452 1175.18,277.3257 1142.43,272.0936 " fill="none" id="s_capture-&gt;s_capture-1" style="stroke: #A80036; stroke-width: 1.0;"/><polygon fill="#A80036" points="1137.17,271.155,1145.3194,276.6856,1142.091,272.0405,1146.7361,268.8121,1137.17,271.155" style="stroke: #A80036; stroke-width: 1.0;"/><text fill="#000000" font-family="sans-serif" font-size="13" lengthAdjust="spacingAndGlyphs" textLength="48" x="1143.22" y="253.4059">c_blank</text><!--MD5=[5e874bf7b49b1bc9264400b23ffdd0c1]
link s_capture to s_escape--><path d="M1048.77,270.585 C1039,272.2353 1029.24,272.4441 1019.47,271.2113 " fill="none" id="s_capture-&gt;s_escape" style="stroke: #A80036; stroke-width: 1.0;"/><polygon fill="#A80036" points="1014.37,270.4353,1022.6756,275.7284,1019.3145,271.1783,1023.8645,267.8172,1014.37,270.4353" style="stroke: #A80036; stroke-width: 1.0;"/><text fill="#000000" font-family="sans-serif" font-size="13" lengthAdjust="spacingAndGlyphs" textLength="60" x="1001.375" y="285.0669">c_escape</text><!--MD5=[338e708d6fc703db56e898085e4cb14d]
link s_escape to s_capture--><path d="M1014.37,264.7075 C1024.13,265.8644 1033.9,266.0602 1043.66,265.2951 " fill="none" id="s_escape-&gt;s_capture" style="stroke: #A80036; stroke-width: 1.0;"/><polygon fill="#A80036" points="1048.77,264.8073,1039.4329,261.6737,1043.7923,265.2788,1040.1873,269.6381,1048.77,264.8073" style="stroke: #A80036; stroke-width: 1.0;"/><text fill="#000000" font-family="sans-serif" font-size="13" lengthAdjust="spacingAndGlyphs" textLength="70" x="960.761" y="261.8187">c_delimiter</text><!--MD5=[338e708d6fc703db56e898085e4cb14d]
link s_escape to s_capture--><path d="M1014.37,258.9797 C1024.13,259.5582 1033.9,259.6561 1043.66,259.2735 " fill="none" id="s_escape-&gt;s_capture-1" style="stroke: #A80036; stroke-width: 1.0;"/><polygon fill="#A80036" points="1048.77,259.0296,1039.5863,255.4714,1043.7759,259.2724,1039.9749,263.462,1048.77,259.0296" style="stroke: #A80036; stroke-width: 1.0;"/><text fill="#000000" font-family="sans-serif" font-size="13" lengthAdjust="spacingAndGlyphs" textLength="51" x="1032.76" y="255.5688">c_quote</text><!--MD5=[338e708d6fc703db56e898085e4cb14d]
link s_escape to s_capture--><path d="M1014.37,253.252 C1024.13,253.252 1033.9,253.252 1043.66,253.252 " fill="none" id="s_escape-&gt;s_capture-2" style="stroke: #A80036; stroke-width: 1.0;"/><polygon fill="#A80036" points="1048.77,253.252,1039.77,249.252,1043.77,253.252,1039.77,257.252,1048.77,253.252" style="stroke: #A80036; stroke-width: 1.0;"/><text fill="#000000" font-family="sans-serif" font-size="13" lengthAdjust="spacingAndGlyphs" textLength="60" x="1001.761" y="266.3189">c_escape</text><!--MD5=[338e708d6fc703db56e898085e4cb14d]
link s_escape to s_capture--><path d="M1014.37,247.5242 C1024.13,246.9458 1033.9,246.8478 1043.66,247.2304 " fill="none" id="s_escape-&gt;s_capture-3" style="stroke: #A80036; stroke-width: 1.0;"/><polygon fill="#A80036" points="1048.77,247.4743,1039.9749,243.0419,1043.7759,247.2315,1039.5863,251.0325,1048.77,247.4743" style="stroke: #A80036; stroke-width: 1.0;"/><text fill="#000000" font-family="sans-serif" font-size="13" lengthAdjust="spacingAndGlyphs" textLength="86" x="944.761" y="243.069">c_record_end</text><!--MD5=[338e708d6fc703db56e898085e4cb14d]
link s_escape to s_capture--><path d="M1014.37,241.7964 C1024.13,240.6396 1033.9,240.4437 1043.66,241.2089 " fill="none" id="s_escape-&gt;s_capture-4" style="stroke: #A80036; stroke-width: 1.0;"/><polygon fill="#A80036" points="1048.77,241.6966,1040.1873,236.8658,1043.7923,241.2251,1039.4329,244.8301,1048.77,241.6966" style="stroke: #A80036; stroke-width: 1.0;"/><text fill="#000000" font-family="sans-serif" font-size="13" lengthAdjust="spacingAndGlyphs" textLength="48" x="1032.76" y="236.8191">c_blank</text><!--MD5=[338e708d6fc703db56e898085e4cb14d]
link s_escape to s_capture--><path d="M1014.37,236.0687 C1024.13,234.3334 1033.9,234.0396 1043.66,235.1873 " fill="none" id="s_escape-&gt;s_capture-5" style="stroke: #A80036; stroke-width: 1.0;"/><polygon fill="#A80036" points="1048.77,235.9189,1040.4336,230.6744,1043.8213,235.2047,1039.2909,238.5924,1048.77,235.9189" style="stroke: #A80036; stroke-width: 1.0;"/><text fill="#000000" font-family="sans-serif" font-size="13" lengthAdjust="spacingAndGlyphs" textLength="48" x="982.761" y="230.5692">c_other</text><!--MD5=[81e2cbc33faf6744f25c8317173142c8]
link s_q_initial to s_q_capture--><path d="M567.498,239.5346 C540.619,223.4118 520.655,195.1196 518.27,173.54 " fill="none" id="s_q_initial-&gt;s_q_capture" style="stroke: #A80036; stroke-width: 1.0;"/><polygon fill="#A80036" points="518.041,168.489,514.4514,177.6604,518.2667,173.4839,522.4433,177.2992,518.041,168.489" style="stroke: #A80036; stroke-width: 1.0;"/><text fill="#000000" font-family="sans-serif" font-size="13" lengthAdjust="spacingAndGlyphs" textLength="70" x="462.648" y="221.5814">c_delimiter</text><!--MD5=[81e2cbc33faf6744f25c8317173142c8]
link s_q_initial to s_q_capture--><path d="M574.056,228.0956 C560.196,211.9936 547.733,190.7305 541.942,173.647 " fill="none" id="s_q_initial-&gt;s_q_capture-1" style="stroke: #A80036; stroke-width: 1.0;"/><polygon fill="#A80036" points="540.365,168.489,539.1704,178.2651,541.8265,173.2706,546.821,175.9268,540.365,168.489" style="stroke: #A80036; stroke-width: 1.0;"/><text fill="#000000" font-family="sans-serif" font-size="13" lengthAdjust="spacingAndGlyphs" textLength="60" x="555.196" y="212.9746">c_escape</text><!--MD5=[81e2cbc33faf6744f25c8317173142c8]
link s_q_initial to s_q_capture--><path d="M596.356,228.0956 C587.183,211.8548 575.044,190.3635 565.354,173.206 " fill="none" id="s_q_initial-&gt;s_q_capture-2" style="stroke: #A80036; stroke-width: 1.0;"/><polygon fill="#A80036" points="562.69,168.489,563.6357,178.2923,565.1501,172.8419,570.6004,174.3563,562.69,168.489" style="stroke: #A80036; stroke-width: 1.0;"/><text fill="#000000" font-family="sans-serif" font-size="13" lengthAdjust="spacingAndGlyphs" textLength="86" x="492.531" y="194.3739">c_record_end</text><!--MD5=[81e2cbc33faf6744f25c8317173142c8]
link s_q_initial to s_q_capture--><path d="M618.656,228.0956 C614.252,211.716 602.37,189.9958 588.562,172.767 " fill="none" id="s_q_initial-&gt;s_q_capture-3" style="stroke: #A80036; stroke-width: 1.0;"/><polygon fill="#A80036" points="585.014,168.489,587.682,177.9696,588.2065,172.3371,593.839,172.8616,585.014,168.489" style="stroke: #A80036; stroke-width: 1.0;"/><text fill="#000000" font-family="sans-serif" font-size="13" lengthAdjust="spacingAndGlyphs" textLength="48" x="605.854" y="192.7509">c_blank</text><!--MD5=[81e2cbc33faf6744f25c8317173142c8]
link s_q_initial to s_q_capture--><path d="M640.954,228.1973 C641.506,209.861 627.04,184.788 605.378,166.828 " fill="none" id="s_q_initial-&gt;s_q_capture-4" style="stroke: #A80036; stroke-width: 1.0;"/><polygon fill="#A80036" points="601.251,163.56,605.8233,172.2832,605.1708,166.6641,610.7899,166.0116,601.251,163.56" style="stroke: #A80036; stroke-width: 1.0;"/><text fill="#000000" font-family="sans-serif" font-size="13" lengthAdjust="spacingAndGlyphs" textLength="48" x="628.691" y="204.3768">c_other</text><!--MD5=[b8cdefd575446bd673945c6bf0596ecd]
link s_q_initial to s_q_escape_quote--><path d="M652.732,253.252 C662.636,253.252 672.539,253.252 682.443,253.252 " fill="none" id="s_q_initial-&gt;s_q_escape_quote" style="stroke: #A80036; stroke-width: 1.0;"/><polygon fill="#A80036" points="687.622,253.252,678.622,249.252,682.622,253.252,678.622,257.252,687.622,253.252" style="stroke: #A80036; stroke-width: 1.0;"/><text fill="#000000" font-family="sans-serif" font-size="13" lengthAdjust="spacingAndGlyphs" textLength="51" x="644.873" y="266.3189">c_quote</text><!--MD5=[2c09ae1db88f26954dbb554c7704a7cf]
link s_q_initial to s_q_final--><path d="M640.643,228.0956 C661.861,211.3689 690.144,189.073 712.21,171.678 " fill="none" id="s_q_initial-&gt;s_q_final" style="stroke: #A80036; stroke-width: 1.0;"/><polygon fill="#A80036" points="716.255,168.489,706.7107,170.9193,712.3283,171.5843,711.6633,177.202,716.255,168.489" style="stroke: #A80036; stroke-width: 1.0;"/><text fill="#000000" font-family="sans-serif" font-size="13" lengthAdjust="spacingAndGlyphs" textLength="51" x="679.449" y="211.3588">c_quote</text><!--MD5=[8822ed1ececfebeadc8c007c949d1ebd]
link s_q_capture to s_q_capture--><path d="M601.235,138.104 C620.345,137.964 636,139.68 636,143.252 C636,146.489 623.143,148.202 606.509,148.391 " fill="none" id="s_q_capture-&gt;s_q_capture" style="stroke: #A80036; stroke-width: 1.0;"/><polygon fill="#A80036" points="601.235,148.4,610.2418,152.3846,606.235,148.3914,610.2281,144.3846,601.235,148.4" style="stroke: #A80036; stroke-width: 1.0;"/><text fill="#000000" font-family="sans-serif" font-size="13" lengthAdjust="spacingAndGlyphs" textLength="70" x="607.682" y="129.1679">c_delimiter</text><!--MD5=[8822ed1ececfebeadc8c007c949d1ebd]
link s_q_capture to s_q_capture--><path d="M601.033,133.897 C636.388,131.164 671,134.282 671,143.252 C671,151.766 639.814,155.008 606.409,152.978 " fill="none" id="s_q_capture-&gt;s_q_capture-1" style="stroke: #A80036; stroke-width: 1.0;"/><polygon fill="#A80036" points="601.033,152.607,609.7361,157.2173,606.0211,152.9514,610.2871,149.2363,601.033,152.607" style="stroke: #A80036; stroke-width: 1.0;"/><text fill="#000000" font-family="sans-serif" font-size="13" lengthAdjust="spacingAndGlyphs" textLength="86" x="607.24" y="151.9479">c_record_end</text><!--MD5=[8822ed1ececfebeadc8c007c949d1ebd]
link s_q_capture to s_q_capture--><path d="M601.27,130.851 C651.34,124.213 706,128.347 706,143.252 C706,157.662 654.909,162.004 606.27,156.279 " fill="none" id="s_q_capture-&gt;s_q_capture-2" style="stroke: #A80036; stroke-width: 1.0;"/><polygon fill="#A80036" points="601.27,155.653,609.7031,160.7405,606.2312,156.2744,610.6973,152.8025,601.27,155.653" style="stroke: #A80036; stroke-width: 1.0;"/><text fill="#000000" font-family="sans-serif" font-size="13" lengthAdjust="spacingAndGlyphs" textLength="48" x="547.343" y="148.9079">c_blank</text><!--MD5=[8822ed1ececfebeadc8c007c949d1ebd]
link s_q_capture to s_q_capture--><path d="M601.098,128.62 C665.201,117.213 741,122.09 741,143.252 C741,163.835 669.29,169.012 606.381,158.783 " fill="none" id="s_q_capture-&gt;s_q_capture-3" style="stroke: #A80036; stroke-width: 1.0;"/><polygon fill="#A80036" points="601.098,157.884,609.298,163.3392,606.0269,158.7241,610.6421,155.453,601.098,157.884" style="stroke: #A80036; stroke-width: 1.0;"/><text fill="#000000" font-family="sans-serif" font-size="13" lengthAdjust="spacingAndGlyphs" textLength="48" x="547.145" y="119.6789">c_other</text><!--MD5=[a5c8b7e23d16cd53f5a293dd836daaa5]
reverse link s_q_escape to s_q_capture--><path d="M604.825,48.79 C636.56,70.233 635.347,109.962 601.185,130.007 " fill="none" id="s_q_escape&lt;-s_q_capture" style="stroke: #A80036; stroke-width: 1.0;"/><polygon fill="#A80036" points="600.352,46.015,605.8944,54.1564,604.6018,48.6492,610.109,47.3567,600.352,46.015" style="stroke: #A80036; stroke-width: 1.0;"/><text fill="#000000" font-family="sans-serif" font-size="13" lengthAdjust="spacingAndGlyphs" textLength="60" x="628.748" y="83.8629">c_escape</text><!--MD5=[7d886d9045ec1a11f38100cb81361f24]
link s_q_escape to s_q_capture--><path d="M497.648,46.015 C462.955,65.741 461.21,105.455 492.413,127.192 " fill="none" id="s_q_escape-&gt;s_q_capture" style="stroke: #A80036; stroke-width: 1.0;"/><polygon fill="#A80036" points="496.815,130.007,491.3893,121.7874,492.6032,127.3125,487.0781,128.5263,496.815,130.007" style="stroke: #A80036; stroke-width: 1.0;"/><text fill="#000000" font-family="sans-serif" font-size="13" lengthAdjust="spacingAndGlyphs" textLength="60" x="409.262" y="83.3339">c_escape</text><!--MD5=[7d886d9045ec1a11f38100cb81361f24]
link s_q_escape to s_q_capture--><path d="M504.351,58.489 C494.768,74.747 493.958,96.24 501.921,113.384 " fill="none" id="s_q_escape-&gt;s_q_capture-1" style="stroke: #A80036; stroke-width: 1.0;"/><polygon fill="#A80036" points="504.399,118.096,503.7494,108.2686,502.0714,113.6708,496.6692,111.9928,504.399,118.096" style="stroke: #A80036; stroke-width: 1.0;"/><text fill="#000000" font-family="sans-serif" font-size="13" lengthAdjust="spacingAndGlyphs" textLength="70" x="425.5" y="101.3589">c_delimiter</text><!--MD5=[7d886d9045ec1a11f38100cb81361f24]
link s_q_escape to s_q_capture--><path d="M526.676,58.489 C521.925,74.609 521.486,95.873 525.359,112.943 " fill="none" id="s_q_escape-&gt;s_q_capture-2" style="stroke: #A80036; stroke-width: 1.0;"/><polygon fill="#A80036" points="526.7,118.096,528.3056,108.3789,525.4413,113.257,520.5632,110.3928,526.7,118.096" style="stroke: #A80036; stroke-width: 1.0;"/><text fill="#000000" font-family="sans-serif" font-size="13" lengthAdjust="spacingAndGlyphs" textLength="86" x="523.75" y="84.0909">c_record_end</text><!--MD5=[7d886d9045ec1a11f38100cb81361f24]
link s_q_escape to s_q_capture--><path d="M549,58.489 C549,74.609 549,95.873 549,112.943 " fill="none" id="s_q_escape-&gt;s_q_capture-3" style="stroke: #A80036; stroke-width: 1.0;"/><polygon fill="#A80036" points="549,118.096,553,109.096,549,113.096,545,109.096,549,118.096" style="stroke: #A80036; stroke-width: 1.0;"/><text fill="#000000" font-family="sans-serif" font-size="13" lengthAdjust="spacingAndGlyphs" textLength="48" x="500" y="101.0909">c_blank</text><!--MD5=[7d886d9045ec1a11f38100cb81361f24]
link s_q_escape to s_q_capture--><path d="M571.324,58.489 C576.075,74.609 576.514,95.873 572.641,112.943 " fill="none" id="s_q_escape-&gt;s_q_capture-4" style="stroke: #A80036; stroke-width: 1.0;"/><polygon fill="#A80036" points="571.3,118.096,577.4368,110.3928,572.5587,113.257,569.6944,108.3789,571.3,118.096" style="stroke: #A80036; stroke-width: 1.0;"/><text fill="#000000" font-family="sans-serif" font-size="13" lengthAdjust="spacingAndGlyphs" textLength="48" x="551.25" y="101.0909">c_other</text><!--MD5=[7d886d9045ec1a11f38100cb81361f24]
link s_q_escape to s_q_capture--><path d="M593.649,58.489 C603.232,74.747 604.042,96.24 596.079,113.384 " fill="none" id="s_q_escape-&gt;s_q_capture-5" style="stroke: #A80036; stroke-width: 1.0;"/><polygon fill="#A80036" points="593.601,118.096,601.3308,111.9928,595.9286,113.6708,594.2506,108.2686,593.601,118.096" style="stroke: #A80036; stroke-width: 1.0;"/><text fill="#000000" font-family="sans-serif" font-size="13" lengthAdjust="spacingAndGlyphs" textLength="51" x="602.5" y="101.3589">c_quote</text><!--MD5=[619557f3b5f2b9af9259bc4829ddde4b]
link s_q_capture to s_q_final--><path d="M601.207,143.252 C635.133,143.252 669.058,143.252 702.984,143.252 " fill="none" id="s_q_capture-&gt;s_q_final" style="stroke: #A80036; stroke-width: 1.0;"/><polygon fill="#A80036" points="707.989,143.252,698.989,139.252,702.989,143.252,698.989,147.252,707.989,143.252" style="stroke: #A80036; stroke-width: 1.0;"/><text fill="#000000" font-family="sans-serif" font-size="13" lengthAdjust="spacingAndGlyphs" textLength="51" x="655.481" y="139.3189">c_quote</text><!--MD5=[0a41b514a83dd29aaec5369ea872c7ae]
link s_q_capture to s_q_escape_quote--><path d="M586.183,168.489 C617.475,185.512 662.474,208.2725 699.382,225.7714 " fill="none" id="s_q_capture-&gt;s_q_escape_quote" style="stroke: #A80036; stroke-width: 1.0;"/><polygon fill="#A80036" points="704.303,228.0956,697.8739,220.6346,699.7821,225.9599,694.4568,227.8681,704.303,228.0956" style="stroke: #A80036; stroke-width: 1.0;"/><text fill="#000000" font-family="sans-serif" font-size="13" lengthAdjust="spacingAndGlyphs" textLength="51" x="645.857" y="195.1299">c_quote</text><!--MD5=[2914d8bae8b44555ba06c3a972c96305]
link s_q_escape_quote to s_q_capture--><path d="M726.609,228.0987 C693.329,209.9055 644.16,185.122 605.8,167.223 " fill="none" id="s_q_escape_quote-&gt;s_q_capture" style="stroke: #A80036; stroke-width: 1.0;"/><polygon fill="#A80036" points="601.177,165.075,607.653,172.4953,605.7113,167.1822,611.0245,165.2404,601.177,165.075" style="stroke: #A80036; stroke-width: 1.0;"/><text fill="#000000" font-family="sans-serif" font-size="13" lengthAdjust="spacingAndGlyphs" textLength="51" x="665.618" y="191.8619">c_quote</text><!--MD5=[526afc4aad7e636776b9d0d2006c840e]
link s_q_final to s_q_final--><path d="M786.211,123.081 C804.733,120.737 821,127.461 821,143.252 C821,157.563 807.64,164.426 791.35,163.843 " fill="none" id="s_q_final-&gt;s_q_final" style="stroke: #A80036; stroke-width: 1.0;"/><polygon fill="#A80036" points="786.211,163.423,794.8554,168.1426,791.1944,163.8302,795.5069,160.1692,786.211,163.423" style="stroke: #A80036; stroke-width: 1.0;"/><text fill="#000000" font-family="sans-serif" font-size="13" lengthAdjust="spacingAndGlyphs" textLength="48" x="792.265" y="114.1419">c_blank</text><!--MD5=[ffc3cc837ea584e1de3a30abdfd28aea]
link s_q_final to s_new_field--><path d="M772.541,118.077 C794.495,99.575 827.437,79.124 858.5,88.252 C877.074,93.71 895.428,104.588 910.34,115.24 " fill="none" id="s_q_final-&gt;s_new_field" style="stroke: #A80036; stroke-width: 1.0;"/><polygon fill="#A80036" points="914.452,118.233,909.5296,109.7024,910.4096,115.2904,904.8216,116.1704,914.452,118.233" style="stroke: #A80036; stroke-width: 1.0;"/><text fill="#000000" font-family="sans-serif" font-size="13" lengthAdjust="spacingAndGlyphs" textLength="70" x="787.527" y="84.3269">c_delimiter</text><!--MD5=[14c8bf4f6141639d8bda72a3f0550aa0]
link s_q_final to s_record_end--><path d="M707.959,162.431 C702.037,164.677 695.925,166.718 690,168.252 C451.102,230.1177 379.409,177.053 138,228.252 C133.771,229.149 129.441,230.1906 125.102,231.3275 " fill="none" id="s_q_final-&gt;s_record_end" style="stroke: #A80036; stroke-width: 1.0;"/><polygon fill="#A80036" points="120.008,232.7028,129.7398,234.2167,124.8349,231.3986,127.6531,226.4937,120.008,232.7028" style="stroke: #A80036; stroke-width: 1.0;"/><text fill="#000000" font-family="sans-serif" font-size="13" lengthAdjust="spacingAndGlyphs" textLength="86" x="328.056" y="198.3179">c_record_end</text><!--MD5=[c6eff1cb1ceb44d2d723f4ad436a8d8f]
@startuml
[*] -> s_new_field
s_new_field -> [*]
s_record_end -> [*]
s_new_field -> s_new_field: c_delimiter
s_new_field -up-> s_no_capture: c_blank
s_new_field -> s_capture: c_other
s_new_field -up-> s_q_initial: c_quote
s_new_field -> s_record_end: c_record_end
s_no_capture -> s_no_capture: c_blank
s_no_capture -> s_capture: c_other
s_no_capture -> s_q_initial: c_quote
s_no_capture -> s_new_field: c_delimiter
s_no_capture -> s_escape: c_escape
s_no_capture -> s_record_end: c_record_end
s_record_end -> s_new_field: c_delimiter
s_record_end -> s_no_capture: c_blank
s_record_end -> s_capture: c_other
s_record_end -> s_q_initial: c_quote
s_record_end -> s_redundant_record_end: c_record_end
s_redundant_record_end -> s_no_capture: c_blank
s_redundant_record_end -> s_capture: c_other
s_redundant_record_end -> s_q_initial: c_quote
s_redundant_record_end -> s_new_field: c_delimiter
s_redundant_record_end -> s_escape: c_escape
s_redundant_record_end -> s_redundant_record_end: c_record_end
s_capture -> s_capture: c_other
s_capture -> s_capture: c_blank
s_capture -> s_escape: c_escape
s_capture -> s_new_field: c_delimiter
s_capture -> s_record_end: c_record_end
s_escape -> s_capture: c_delimiter
s_escape -> s_capture: c_quote
s_escape -> s_capture: c_escape
s_escape -> s_capture: c_record_end
s_escape -> s_capture: c_blank
s_escape -> s_capture: c_other
s_q_initial -> s_q_capture: c_delimiter
s_q_initial -> s_q_capture: c_escape
s_q_initial -> s_q_capture: c_record_end
s_q_initial -> s_q_capture: c_blank
s_q_initial -> s_q_capture: c_other
s_q_initial -> s_q_escape_quote: c_quote
s_q_initial -> s_q_final: c_quote
s_q_capture -> s_q_capture: c_delimiter
s_q_capture -> s_q_capture: c_record_end
s_q_capture -> s_q_capture: c_blank
s_q_capture -> s_q_capture: c_other
s_q_capture -up-> s_q_escape: c_escape
s_q_capture -> s_q_final: c_quote
s_q_capture -> s_q_escape_quote: c_quote
s_q_escape_quote -> s_q_capture: c_quote
s_q_escape -> s_q_capture: c_escape
s_q_escape -> s_q_capture: c_delimiter
s_q_escape -> s_q_capture: c_record_end
s_q_escape -> s_q_capture: c_blank
s_q_escape -> s_q_capture: c_other
s_q_escape -> s_q_capture: c_quote
s_q_final -> s_q_final: c_blank
s_q_final -> s_new_field: c_delimiter
s_q_final -> s_record_end: c_record_end
@enduml

PlantUML version 1.2019.12beta6(Unknown compile time)
(GPL source distribution)
Java Runtime: Java(TM) SE Runtime Environment
JVM: Java HotSpot(TM) 64-Bit Server VM
Java Version: 1.7.0_25-b15
Operating System: Linux
Default Encoding: UTF-8
Language: en
Country: US
--></g></svg>