<?xml version="1.0" standalone="no"?>
<!DOCTYPE svg PUBLIC "-//W3C//DTD SVG 20010904//EN"
 "http://www.w3.org/TR/2001/REC-SVG-20010904/DTD/svg10.dtd">
<svg version="1.0" xmlns="http://www.w3.org/2000/svg"
 width="213.000000pt" height="53.000000pt" viewBox="0 0 213.000000 53.000000"
 preserveAspectRatio="xMidYMid meet">

<g transform="translate(0.000000,53.000000) scale(0.100000,-0.100000)"
fill="#000000" stroke="none">
<path d="M97 431 c-58 -70 -56 -220 4 -284 l30 -32 -23 45 c-33 65 -33 198 0
254 28 48 23 57 -11 17z"/>
<path d="M2004 425 c44 -65 47 -192 6 -262 -27 -47 -19 -53 13 -11 37 47 51
118 37 184 -11 54 -45 114 -68 122 -7 2 -2 -13 12 -33z"/>
<path d="M680 443 c-34 -12 -60 -47 -60 -80 0 -30 4 -36 45 -53 36 -16 45 -24
45 -44 0 -36 -42 -63 -75 -48 -17 8 -25 20 -25 37 0 38 -16 30 -28 -15 -10
-40 -5 -49 15 -29 8 8 13 8 17 0 10 -16 68 -13 92 4 12 8 27 28 34 45 10 25
10 34 -3 54 -9 13 -30 27 -47 31 -36 8 -44 19 -36 50 12 49 86 44 86 -6 0 -41
16 -36 27 10 10 36 9 39 -11 38 -11 -1 -30 2 -41 5 -11 3 -27 4 -35 1z"/>
<path d="M1481 441 c-10 -7 -12 -20 -7 -50 5 -34 3 -42 -14 -51 -28 -15 -53
-67 -46 -96 15 -59 86 -51 112 12 18 43 13 72 -22 123 -13 19 -24 39 -24 43 0
12 34 10 47 -3 8 -8 13 -7 18 1 14 23 -35 39 -64 21z m25 -170 c-7 -48 -29
-69 -51 -51 -21 17 -14 73 12 102 17 19 18 19 31 1 8 -11 11 -31 8 -52z"/>
<path d="M180 428 c0 -7 18 -37 40 -67 l39 -54 -40 -47 c-21 -25 -39 -50 -39
-54 0 -3 44 -5 98 -4 l97 3 2 45 3 45 -14 -32 c-12 -26 -21 -33 -58 -38 -24
-4 -56 -5 -71 -3 l-27 3 41 48 42 48 -32 44 c-17 24 -31 46 -31 50 0 3 26 5
58 3 54 -3 58 -5 75 -38 l18 -35 -3 45 -3 45 -97 3 c-75 2 -98 0 -98 -10z"/>
<path d="M1775 430 c-3 -5 1 -10 9 -10 20 0 20 2 -6 -107 -18 -75 -25 -93 -40
-93 -10 0 -18 -4 -18 -10 0 -5 25 -10 55 -10 30 0 55 5 55 10 0 6 -9 10 -21
10 -15 0 -19 5 -15 18 3 9 8 29 12 45 5 22 12 27 35 27 23 0 29 -4 29 -22 1
-33 16 -4 25 47 7 39 7 39 -10 18 -9 -13 -27 -23 -41 -23 -27 0 -28 1 -13 53
10 38 11 38 57 35 43 -3 47 -5 50 -30 5 -43 22 -33 22 12 l0 40 -89 0 c-50 0
-93 -4 -96 -10z"/>
<path d="M994 335 c-20 -20 -23 -29 -15 -44 6 -10 22 -22 36 -25 30 -8 33 -31
4 -46 -28 -15 -56 -5 -40 14 15 18 -5 34 -22 17 -18 -18 5 -45 40 -49 23 -2
36 3 52 24 24 31 15 59 -25 75 -30 11 -27 33 6 37 17 3 21 0 17 -12 -3 -8 -2
-18 4 -21 19 -12 23 28 4 41 -26 19 -32 18 -61 -11z"/>
<path d="M1114 285 c-12 -18 -15 -38 -11 -71 5 -49 18 -64 54 -64 28 0 43 27
43 80 0 23 -5 50 -10 61 -15 27 -56 24 -76 -6z m60 -1 c3 -9 6 -33 6 -54 0
-51 -8 -70 -31 -70 -17 0 -19 8 -19 70 0 62 2 70 19 70 10 0 22 -7 25 -16z"/>
<path d="M812 238 c-9 -9 -8 -16 5 -30 13 -15 14 -23 5 -43 -6 -14 -8 -25 -3
-25 10 0 31 46 31 69 0 26 -23 44 -38 29z"/>
<path d="M1282 238 c-9 -9 -8 -16 5 -30 13 -15 14 -23 5 -43 -6 -14 -8 -25 -3
-25 10 0 31 46 31 69 0 26 -23 44 -38 29z"/>
<path d="M430 229 c0 -7 8 -18 18 -25 15 -11 15 -16 4 -34 -15 -25 -11 -38 6
-18 10 13 15 39 13 71 -1 19 -41 25 -41 6z"/>
<path d="M1580 229 c0 -7 8 -18 18 -25 14 -11 15 -16 5 -33 -16 -25 -16 -34
-2 -26 16 10 30 55 24 76 -7 20 -45 27 -45 8z"/>
</g>
</svg>
