<?xml version="1.0" standalone="no"?>
<!DOCTYPE svg PUBLIC "-//W3C//DTD SVG 20010904//EN"
 "http://www.w3.org/TR/2001/REC-SVG-20010904/DTD/svg10.dtd">
<svg version="1.0" xmlns="http://www.w3.org/2000/svg"
 width="225.000000pt" height="46.000000pt" viewBox="0 0 225.000000 46.000000"
 preserveAspectRatio="xMidYMid meet">

<g transform="translate(0.000000,46.000000) scale(0.100000,-0.100000)"
fill="#000000" stroke="none">
<path d="M143 375 c-3 -9 -3 -29 1 -45 4 -23 1 -32 -14 -40 -28 -15 -53 -67
-46 -96 4 -14 17 -30 31 -36 34 -15 71 11 86 62 11 37 10 43 -20 91 -22 36
-29 55 -22 62 8 8 15 7 23 -1 17 -17 38 -15 38 3 0 21 -68 21 -77 0z m33 -120
c10 -39 -9 -80 -37 -80 -21 0 -24 4 -23 37 2 62 47 94 60 43z"/>
<path d="M599 361 c-47 -47 -38 -82 26 -104 49 -17 57 -46 21 -75 -36 -28 -75
-19 -83 20 -7 35 -18 26 -28 -22 -6 -29 -5 -33 7 -23 9 8 19 9 28 3 45 -29
130 19 130 73 0 26 -28 57 -51 57 -9 0 -24 6 -34 14 -17 12 -18 18 -7 40 9 21
19 26 47 26 32 0 36 -3 42 -31 7 -36 18 -28 28 21 6 29 5 33 -7 23 -9 -8 -19
-9 -28 -3 -27 18 -61 10 -91 -19z"/>
<path d="M2021 364 c-50 -42 -37 -95 28 -109 34 -7 45 -28 31 -55 -25 -48 -91
-44 -101 5 l-6 30 -11 -28 c-16 -39 -16 -63 1 -49 8 7 18 7 27 2 42 -27 112 5
124 56 9 35 -11 64 -54 78 -56 18 -49 76 9 76 32 0 51 -16 51 -44 1 -17 2 -18
9 -6 5 8 11 28 15 44 6 26 6 28 -9 16 -12 -10 -19 -10 -27 -2 -19 19 -55 14
-87 -14z"/>
<path d="M1170 373 c0 -3 18 -30 40 -60 45 -59 44 -66 -9 -117 -17 -16 -28
-33 -25 -38 6 -10 181 -11 187 -1 10 17 17 83 10 83 -5 0 -14 -13 -20 -30 -11
-29 -13 -30 -78 -30 l-67 0 36 40 c20 22 36 45 36 51 0 6 -13 28 -30 49 -16
21 -30 41 -30 44 0 11 85 6 110 -7 14 -7 26 -23 28 -35 2 -12 8 -22 14 -22 6
0 8 10 4 23 -3 12 -6 30 -6 40 0 15 -11 17 -100 17 -55 0 -100 -3 -100 -7z"/>
<path d="M1730 319 c0 -9 9 -28 21 -43 l20 -26 -125 0 c-72 0 -127 -4 -131
-10 -4 -6 40 -10 125 -10 l131 0 -20 -26 c-12 -15 -21 -34 -21 -43 0 -9 8 -3
20 16 11 18 29 38 40 45 25 16 25 25 0 33 -11 4 -29 23 -40 43 -10 20 -19 30
-20 21z"/>
<path d="M860 315 c0 -5 16 -26 35 -46 l36 -36 -36 -27 c-19 -15 -35 -32 -35
-38 0 -7 15 2 33 20 18 18 38 32 45 32 6 0 28 -14 49 -32 l38 -32 -38 40 -37
40 35 34 c19 19 35 38 35 44 0 6 -18 -8 -40 -29 l-40 -39 -40 39 c-22 21 -40
35 -40 30z"/>
<path d="M350 280 c0 -15 5 -20 18 -18 9 2 17 10 17 18 0 8 -8 16 -17 18 -13
2 -18 -3 -18 -18z"/>
<path d="M353 184 c-7 -19 2 -28 22 -21 19 8 19 23 0 31 -9 3 -18 -1 -22 -10z"/>
</g>
</svg>
