<svg id="Layer_1" data-name="Layer 1" xmlns="http://www.w3.org/2000/svg" viewBox="0 0 655.47 925.61"><defs><style>.cls-2{fill:#fff}.cls-3{fill:#a4cde6}.cls-4{fill:#ecbaac}.cls-5{fill:#b6e4fa}.cls-6{fill:#371914}.cls-7{fill:#ceb9b6}</style></defs><path d="M357.41 656.69c-3.57-3.14-10.36-4.2-14.72-6.21-6.12-2.81-11.94-6-17.95-8.94C314.07 636.25 304 629.67 294 623a287.63 287.63 0 0 1-53.19-44.91c-35.07-38.21-62.26-82.38-76.36-132.72-13.45-47.78-17.73-98.13-8.45-147.68a337.3 337.3 0 0 1 59.62-137.83c28.55-39 68.55-74.47 112.56-95.47 47.13-22.5 95.12-33.19 147.34-34.83 48.87-1.53 102 11 144.88 33.87 21.48 11.43 42.14 23.44 60.78 38.91 9.56 8 17.72 17.91 27.16 25.71 2.27 1.88 4.79 2.88 6.9 4.79 0 0 1.52 3.16 1.61 3.29 2 2.82 6.85 6.12 9.1 9.39a155 155 0 0 1 9 14c2.83 5.25 7 8.91 10.59 13.62 3.8 5 6.24 8.17 8.8 14 2.3 5.24 5.86 9.83 8.3 14.68 11.77 23.47 22.3 47.29 28 73.53 2.53 11.8 5.49 23.35 7.46 35.27 2.15 13 1.93 26.73 2.47 39.94.23 5.65-1.07 10.81-.9 16.38.2 6.94 1.17 12.94.7 19.25-.86 11.42-4.35 24.12-5.78 34-.7 4.83-3.36 9.36-4.34 14.32-.48 2.44.84 6.33.15 8.41-.35 1.06-1 2.55-1.28 3.45s-2.29-.36-2.42.62c-.17 1.25 2.15 2.38 1.65 3.65-.64 1.58-2.3 2.68-2.89 4.07-.51 1.21.54 2.61.07 3.58-1 2-2.47 3.45-3.52 5.44-1.52 2.9-4.47 8.09-5.19 11.31-.66 2.93 2 .87 1.43 2.51-.73 2.15-3 2.49-3.65 4.2-1.5 3.93-.12 5.82-3.05 9.59-2.26 2.91-4.31 5.28-5.83 8.77a163.94 163.94 0 0 1-14 25.85c-19.33 28.62-40.86 57.06-68.29 78.41-28.54 22.22-59.17 41.73-93.55 54.07-17.51 6.29-37.1 13.77-56 15.52-16.5 1.53-32.47 3.69-49.09 4.81a241.27 241.27 0 0 1-64-4.5c-10.41-2.18-20.57-4.24-30.79-7-5.75-1.56-11.5-3.12-17.19-4.91-3.05-.99-13.51-3.65-15.4-5.67z" transform="translate(-145.11 -29.44)" fill="#b0d0e3"/><path class="cls-2" d="M578.94 169.29c-1.78-3.94-1.37-7.24-6.5-9-8.37-3-21.57-.33-30.39-.34-19.18 0-38.32-.38-57.48.69-18.45 1-35.89 1-54 5.28-7.53 1.77-13.58 6.3-20.35 9.9a159.63 159.63 0 0 0-22.72 14.33c-12.35 9.55-23.71 19.7-32.55 32.65-8.7 12.74-10.27 25.14-8.93 40.39.64 7.34 3.6 14.71 4 21.89.43 7.75-3.68 15.45-4 23.3-.69 15.9 1.45 31.47 4 47.07a266.82 266.82 0 0 0 10.12 42.09c4.47 13.06 7.2 27.23 14.66 39.08 7.84 12.46 27.36 15.95 40.85 18.49a137.36 137.36 0 0 0 52.88 0 69.54 69.54 0 0 0 20.57-7.85c7-3.89 14.45-7.05 21.29-11 11.74-6.84 24.63-17.07 31.35-29.09 4-7.26 2.85-15.12 5-22.74s7.33-7.11 13.75-9.21c14.71-4.81 21.66-19.65 27.93-32.45 6.1-12.44 18.13-22.86 21.33-36.33 1.55-6.51 1.42-12.57-1.34-18.34-1.6-3.33-4.2-6.08-5.81-9.39-1.4-2.87-1.86-5.63-3-8.65-3.43-8.9-10.05-16.6-13.74-25.54-3.49-8.43-7-17.17-9.35-26-2.58-9.85-2.65-17.18 1.12-26.56 2.07-5.16 8.33-21.31-2.69-16.79M499 773.89c1.87 1.64 5.43-3.71 5.54-4.83.33-3.39-4.71-7.81-7.37-8.34s-10 1.24-7.54 4.8c.32.45 5.69-.24 7.21.92 3.09 2.33 1.64 4.41 2.16 7.45z" transform="translate(-145.11 -29.44)"/><path class="cls-2" d="M535.35 756.09c-10.53-5.24-22.12-3.94-33.58-4.06-11.89-.13-23.37-.87-35.2.49-10.37 1.2-20.15 3.44-23.3 14.67-3.51 12.54 5.55 18.78 16.59 19.25 5.45.23 29.57 3.14 28.82-6.31-.47-5.82-11.27-5.87-14.9-5-5.45 1.29-8.94 6-15.23 5.9-11.69-.12-14.68-18.16-4.3-22.55 11.52-4.86 16.41 10.67 28.55 6.84 5.43-1.72 6.76-8.91 13.71-8.47 7.12.45 6.48 6.46 11 9.69s10.53-2 15.6-3.5c1.69-.5 18.16-4.04 12.24-6.95zM484 761c-2.78 4.16-8.94 2-8-2.76 1.23-6.35 11.47-2.5 8 2.76z" transform="translate(-145.11 -29.44)"/><path class="cls-2" d="M466 772.27c6.4-1.93 15.79.23 22.6-.15 1.88-.11 8.82.8 6.8-2.78-1.05-1.86-6.66-1-8.14-1-6.69 0-13.49-.15-20.17 0-1.8 0-6-1-6.74 1.61s4.11 2.8 5.65 2.32z" transform="translate(-145.11 -29.44)"/><path class="cls-2" d="M452.54 774.72c2.23 1.89 3.92 3.33 7.31 3 7.2-.67 3.38-1.1 1.72-3.2-1.86-2.36-6.59-4.4-2.46-8.34 1.16-1.11 6.51-.12 7.05-1.22 2.42-4.86-9.46-3.52-10.76-2.83-3.97 2.1-7.16 8.96-2.86 12.59zM375.85 515.39a3.63 3.63 0 0 0 4.5.42c-1.43-6.1-9.97-5.21-4.5-.42zM551 762.89c-3.24-3.36-20.74-1.13-23.87 2.57s-.44 19.9 2.05 24.28c3.06 5.38 9.61 1.8 15.45 1.18 1.3-.14 7.27-.15 7-2.34-.45-4.21-8.87-.79-11-2-5-2.83 1.64-2 2.37-2.47 3.34-2.37 2.28-.52 2.76-5.29.38-3.73-1.34-6.57-2.08-9.08-.42-1.4-3.3-3.26.57-5.08 8.7-4.09 2.31 14 4.33 16.74 2.52 3.43 2.88-3.23 3-4.77.13-2.24.71-12.42-.58-13.74z" transform="translate(-145.11 -29.44)"/><path class="cls-3" d="M516.1 727.89c2.28-.84 3.25-7.94 5.17-9.72 2.78-2.59 9.79-3.61 13.2-2.83 1.47.34 21.34 13.23 15.33 3.43-1.56-2.54-7.8-5.78-10.53-7.07-4.35-2.07-7-2.17-11.72-1.15-4.95 1.06-9 3.34-11.43 8.08-.41.8-3.12 10.42-.02 9.26z" transform="translate(-145.11 -29.44)"/><path class="cls-2" d="M480 758.16c-2.74.23.21 2.5.21 2.47.01.18 2.79-2.71-.21-2.47zM492.9 776.77c.91.67 4.63.13 4.15-1.51-.65-2.2-6.34-.11-4.15 1.51zM354.83 273.54c6.26-2.73 9.27-5.84 16.52-5.32 3.52.26 5 .33 8.13 2.65 1.13.85 4.78 5.53 6.34 4.79 3.35-1.6-5.5-9.1-6.47-9.68a21.46 21.46 0 0 0-12.27-3 20 20 0 0 0-11.29 5.32c-.52.59-4.29 6.7-.96 5.24zM381.24 280.53c-1.18-.74-3.72 6.92-2.06 8.08a20.87 20.87 0 0 0 5.53-1.63c2.5-3.2-.45-4.57-3.47-6.45zM359.75 282.58c-1.2-3-4 .72-3.62 2.57.32 1.65 4.15 3.2 5.51 3.6.93-1.75-1.22-4.5-1.89-6.17zM510.79 732.74c-.8.33-9.11.12-10.49.18-2.87.14-6.45.27-9.31.17-6.42-.22-12.12-.14-18.56.17-10.92.52-21.51.29-32.39.1-7.08-.12-13.85 1.24-20.86 1.4-3.43.08-15.52-2-16.86 2.67-1.91 6.54 27.92 2.88 31.53 2.68 22.27-1.19 45.19-1.22 67.62-2 5-.18 10.09-.61 15.14-.64 3.48 0 6.86-.78 10.27-.86 2.38 0 6.81 1.48 9 0 4.32-3-1.19-3.4-4-3.79-5.32-.74-15.79-2.27-21.09-.08z" transform="translate(-145.11 -29.44)"/><path class="cls-2" d="M374.81 272.05c-3.59 0-4.36-1.08-8.09-.07.82.53 9.25 2.37 9.75 1.92.23-1.1-.32-1.72-1.66-1.85zM411.41 744.47c-.84 0-2.78-.29-2.88.76-.53 5.9 9.3-1.06 2.88-.76zM364.47 272.61c-1-.61-4.54 1.35-4.75 2.41-.28 1.37 6.43-1.39 4.75-2.41zM408.55 854.33c-.7.64-1.54 4.91.76 4.53 2.48-.42 1.6-6.68-.76-4.53zM527.67 563.65c-1.75-2.23-3 0-4.95.14-4.15.29-1.76 1.83-5.18-.55-1.14-.79-7.82-11-8.88-10.18s2.32 9.58 3.17 10.89a26.82 26.82 0 0 0 9.54 8.24c1.79.78 7 2.66 9.12 1.06 6.03-4.58-.8-7.03-2.82-9.6z" transform="translate(-145.11 -29.44)"/><path class="cls-4" d="M497.29 587.81c2.65-.42 21.2.7 21.93-1.27.61-1.66-5.77-5.41-7-6.25-4.61-3.15-5.1-2.63-10.13-2.75-2 0-5.17-.53-6.64.64-1.64 1.32-1.24 10.13 1.84 9.63z" transform="translate(-145.11 -29.44)"/><path class="cls-2" d="M493.85 722.77c-2 1.51-1.35 6.73 1.69 6.26 3.33-.51 2.7-9.62-1.69-6.26zM495.85 605.31c2.12 6.59 3.46 2.54 7.61.06 3.57-2.14 7.69-3.53 11.67-5 1.69-.64 6.92-1.43 7.85-2.47 2.27-2.53.5-6-2.2-7.27-4.6-2.2-15.09-.44-20.18.43-4.39.75-3.31-.54-5 3.26-.97 2.25-.6 8.43.25 10.99zM499.08 536.4c-.09-2.58-5.2.21-6.12.47-3.76 1.07-2-4.66-4.23 1.9-.25.73.32 7 .44 8 .44 3.46 1.31 4.33 2.68 7.23 1.94 4.12 2.62 8.6 3.11 13.53.28 2.8-.53 4.64 1.7 6.12.58.38 8.46 1.05 9 .16 1-1.6-4.34-5.72-4.88-6.79-1.34-2.58-1.92-7.2-2.53-10.11-1.46-6.99 1.06-13.53.83-20.51z" transform="translate(-145.11 -29.44)"/><path class="cls-3" d="M501 547.61c-1.25 4.39 2 16 4 19.86 2.66 5 8.37 8.28 12.15 12.38 3.36 3.62 7.1 6.72 9.48 10.95.26.48 2.19 4.88 2.45 4.91 3.25.44 1.13-5.61.81-6.77-3.28-11.9-19.23-17.08-23.72-28.43-2-5.06-2.17-11.78-1.79-17.19.22-3.21 2.94-13.1 1.39-14.85-6.24 3.66-3.11 13.27-4.77 19.14z" transform="translate(-145.11 -29.44)"/><path class="cls-2" d="M510.77 533.34c4.41 1.16 4.05 1.67 5.16 6.44.64 2.73 2.48 3.75 1.47 6.74-.83 2.43-4.19 2.7-4.06 5.7.13 2.74 5.27 8 7.46 8.59.84.21 4.29-2 5.75-1.87 1.76.16 4.21 1.91 5.53 2.95 6 4.71.23 5.32 2.47 10.11.54 1.14 9.29 3.25 10.37 3 6.49-1.24 1.93-5.34 2-8.74s3-4.58 0-8.78c-1.75-2.5-3.54-1.52-7.21-3.06-3.32-1.38-6.68-4.72-9.14-7.25-4.2-4.3-12-19.24-7.35-25.62 4.34-6 3.2 1.07 3 3.81-.4 5.46.13 11.29 3.39 15.75 4.23 5.8 10.49 11.11 18.12 11.28-1.27-2.75.82-2.77.41-5.42-.71-4.65.53-2.46-4.55-5.34-6.52-3.69-11.43-11.24-8.13-18.88 1.29-3 4.09-5.43 6.75-7.19 1.84-1.21 6.11-2 7.21-3.8 3-5-.9-17.5-.76-23.13.17.1-16.63 18.11-19.1 20.38s-27.33 22.08-18.79 24.33zM546 560.48c2.24-1.72.79 3.6.44 3.61-1.08 0-.96-3.22-.44-3.61z" transform="translate(-145.11 -29.44)"/><path class="cls-2" d="M507.27 544c-1.68 6.79 6.38 4.13 6.51-1 0-1.48-2-7.59-4.69-6.29-2.19 1.1-1.25 4.98-1.82 7.29zM403.27 771.27c-.72-3.48.34-13-3.11-15.49s-9.39.59-12.88 1.72c-2.91.94-12.29 3.08-12.83 7.28-.49 3.88 6.45 3.89 8.83 8 2.28 3.91-2 4.93-1.19 9 1.22 6.4 6.55 3.68 10.13 3.84 4.83.22 4.37 3.66 7.28.45 1.89-2.07 4.27-12.4 3.77-14.8z" transform="translate(-145.11 -29.44)"/><path class="cls-4" d="M493.91 640.36c-3.44-11.12-11.28 8.54-7.61 14.22.89 1.39 6 3 7.28 1.8s.4-3.73.46-5.49c.12-3.28.8-7.49-.13-10.53z" transform="translate(-145.11 -29.44)"/><path class="cls-2" d="M495.21 666.56a3.26 3.26 0 0 0-1.43-3.44c-.79.14-.87 17.91.71 18.17 1.51-2.67 1.51-11.69.72-14.73zM495.51 690.88c-1.9-2.27.81-5.18-.95-7.06-2 2.72-1.18 9.48-1.05 12.75.1 2.59-1.18 17.2 1.58 16.7 2.08-.37 1.55-21.05.42-22.39zM496.57 640c.53 6 5.1-5.86 5.1-5.85.54-1.6 4.93-10.75 4.76-10.91-1.49-1.42-6 4.93-6.9 6-3.19 4.11-2.18 5.45-2.96 10.76z" transform="translate(-145.11 -29.44)"/><path class="cls-4" d="M464.21 656.92c-3.13-.81-11.86-.06-13.17 3.15-.44 1.09.35 6.42.35 8.18 0 2.09.13 4.17.14 6.26 0 9.72-.92 19.5-.55 29.11.11 3 0 8.94 2.81 10 .88.33 6.06-.91 7.46-1.12 2.62-.4 4.91-.72 7.49-.87 3.47-.2 28 2.86 22-6.83-3.54-5.74-17.93 3-21.81-4.25-4.19-7.82 6.28-6.86 9.95-6.67 4.92.26 10 1.85 11.8-3 1-2.57-.41-13.28-.27-16.47.12-2.71 1.15-11.53-1-14.13-4.41-5.21-18.72-1.7-25.2-3.36zm3.86 7.5c.07 3.71.69 8.32-3.65 10-3.27 1.27-8.18-1.06-9.79-4-5.93-10.86 13.29-14.12 13.44-6z" transform="translate(-145.11 -29.44)"/><path class="cls-2" d="M489.21 583.07c2.14-1.45-1.74-2.81-1.81-.86a1.48 1.48 0 0 0 1.81.86z" transform="translate(-145.11 -29.44)"/><path class="cls-4" d="M484.86 621.77c1.51 1.39 7.61-5.82 8.21-7.34 1-2.49-.13-5.86-.36-8.39-.35-3.83 1.44-17.8-1.7-19.73-.89-.55-6.2.5-6.77 1.08-1.94 2 .2 9.11.29 11.81.14 4.33-2.81 19.66.33 22.57zM485 556.47c-.27 4.84-.9 9.75-1 14.59 0 2.3-1.17 5.83 1.55 6.7 1.65.53 5.19-2.34 5.8-3.45 1.06-1.94.53-11 0-13.29-.35-1.22-6.1-9.12-6.35-4.55z" transform="translate(-145.11 -29.44)"/><path class="cls-2" d="M466.42 652.71c2.9 2.78 19.87 4.84 15.47-3.58-2-3.85-1.76-1.14-4.7-.56-2.05.43-10.08 1.95-10.77 4.14z" transform="translate(-145.11 -29.44)"/><path class="cls-4" d="M481.06 579.93c-1 0 1.05-3.85-2.53-2.39s-1.31 9.92 1.89 8.12c1.22-.66.58-4.66.64-5.73z" transform="translate(-145.11 -29.44)"/><path class="cls-2" d="M514.59 805.91c7.06 1.56 16.06-1.27 23.06-1.69 3.1-.18 11.86 1.57 14-1.4 1.15-1.62.23-6.92-1.18-8.08-3.67-3-15.26.53-19.23 2-6.33 2.32-13 4.35-18.52 8.2a2.63 2.63 0 0 0 1.87.97zM550.82 705.19c.61-1.81-16-3.18-17.38-3.53-5.6-1.42-10.24-4-14.94-7.21a45 45 0 0 1-11.2-11.07c-3.94-5.33-5.2-11.64-8.87-17.07-1.9 4.61.68 10.75.61 15.55-.07 5.28.21 10.2.23 15.5 0 6.68.61 13.33 1 20 .34 5.6-2.28 14.25 6.61 11.76 3.81-1.07 2.07.46 4.07-3.89 1.49-3.24 1.68-6.75 3.74-9.86a19.44 19.44 0 0 1 13.08-8.71c7-1.06 11.79 2.75 17.66 5.32 9.1 3.94 3.43-.98 5.39-6.79z" transform="translate(-145.11 -29.44)"/><path class="cls-5" d="M550.51 649.38c-2.36-3.17 2.54-7.81-2.43-9.56-1.6-.56-6.16 1.69-7.46 2.78-4.34 3.64-5.64 10.35-4 15.63 1.11 3.7 8 12.41 13 8.09 1.38-1.18 2.46-14.85.89-16.94z" transform="translate(-145.11 -29.44)"/><path class="cls-2" d="M476 537.37c-.79 3.46-4.26 9-5.85 12.35-1.19 2.5-2.2 2.35-2.94 5.31-.69 2.79.4 6.05.66 8.83.91 10 1.63 19.75 2.52 29.78.85 9.58 2.19 19.22 3 28.73.13 1.51-1.1 13.25 1.13 14 1.37.45 5.46-6.15 5.95-7.44 1.94-5-.16-11.34.09-16.7.27-6 2-11.87.06-17.94-1-3.16-.79-2.37-2.89-5.08-1.51-1.95-3.63-2.59-4.33-5.36-1.75-7 3.9-7 6.79-11.05 2.39-3.32 1-9.52 1.33-13.61.47-6.06 4.09-7.52 4.37-14.22.16-3.71.89-13.54-1.52-16.87-2.15-3-3-2.54-4.83-1.05-.34.23-3.36 9.39-3.54 10.32z" transform="translate(-145.11 -29.44)"/><path class="cls-5" d="M512.32 656.72c-.87 8.95 7.12 19.81 13 25.15 3.48 3.16 21.81 12.36 25.23 6.18 3.8-6.88-8.1-7.23-11.16-8-5-1.33-7.59-3.14-11.43-7a25.52 25.52 0 0 1-7.08-24.29c2.89-12.68 9.88-19 22.21-22.76 3.13-1 10.08-1.57 6.88-7-2.17-3.67-7-.82-10.28 0-18.82 4.62-26.24 19.64-27.37 37.72z" transform="translate(-145.11 -29.44)"/><path class="cls-5" d="M533.94 645.65c2.08-5.62 9.47-6.39 13.56-9.37 5.78-4.22 2.16-9.43-5.14-7.24-12.32 3.69-20.72 15.25-18.12 28.4 1.1 5.51 3.26 11 7.3 15 2.53 2.55 13.63 8.13 17.25 6.2 8.85-4.7-4.83-8.46-7.64-10.11-8.41-4.89-10.3-14.53-7.21-22.88z" transform="translate(-145.11 -29.44)"/><path class="cls-2" d="M551.4 733.85c-.21-1 0-5.14-.41-5.66-.88-1.28-1.77-.49-2.72-1.35-2.07-1.85-6-3.63-8.5-5.31-4.46-3-11.78-5-16.24-.62-1.39 1.39-3.8 6.14-2 8 .3.31 7.1 0 8.2.1 4.85.52 14 2 9.48 8.7-1.91 2.8-5.45 1.5-7.16 3.49-.74.86-.67 5.24-.29 6.67.85 3.22.3 2.3 2.84 4.47 1 .88 5.06 4.44 6 4.87 3.31 1.5 9.14 2.33 10.81-1.34 1.23-2.7-.14-7.5-.34-10.31-.28-3.75 1.07-8.14.33-11.71zM482.37 810.59c-.09-1.3-.65-2-1.7-2-.71.24-3.2 9.21-2.2 9.93 4.85 3.48 4.33-6.26 3.9-7.93zM496.12 807.27c4.73 4.33 6.86-.21 11.65-3.4 2.93-2 3.36-1.64 6.7-3.42 1.82-1 8.34-3.21 9.38-4.49 3.29-4.07 1.63-11.3.74-16.14-.38-2-1-7.09-1.91-8.74-1.93-3.61-.31-3-4.26-2.78s-9.48 4.7-12.93 6.46a94.38 94.38 0 0 0-11.88 6.74c-3.77 2.69-7.32 4.81-6.23 9.69 1.01 4.47 5.2 12.81 8.74 16.08zm2.81-24.09c7-15.81 8.69 8.67 11.4 11 1 .81 7.4-3.18 5.9 1.19-.32.92-12.9 7.48-14.35 6.27-2.18-1.82 4.46-4.81 4.8-5.89.71-2.25-.47-4.84-1.25-7-.68-1.89-.23-3.47-1.95-4.52-.22-.23-5.99 2.22-4.55-1.05z" transform="translate(-145.11 -29.44)"/><path class="cls-2" d="M460.3 822.47c1.6 3.2 3.17 6.57 5 9.66 3.2 5.51 2.41 5 6.73 1.66 3.75-2.86 11.56-7.45 12.15-12.21h-.06c-6.43 2-11 5-15.47-1.86-3.35-5.16-3.07-11.18 2.47-14.84 5-3.3 11.52-1.59 14.55 3.87a12.53 12.53 0 0 1 1.15 5.77c-.22 2.74-3 4.63-2.7 7.06q.09-.06.06 0c3-1.14 7.9-4.11 9-7.4.91-2.82-.24-4.08-1.53-7.12-2.14-5-5.23-16.11-11.57-14.5-4.13 1.05-9.28 9.13-12.16 12.06s-7.62 5.3-9.69 8.85c-2.76 4.63-.23 4.33 2.07 9z" transform="translate(-145.11 -29.44)"/><path class="cls-2" d="M474.29 806.65c-7.87.18-3.45 14.61.12 13.13 1.85-.78 3.59-13.21-.12-13.13zM528.89 441.62c-3.18 1.58-6.21 6.72-9.18 9-4.53 3.49-8.76 7.4-13.3 10.87-7.05 5.39-15.34 11.79-23.29 15.85-4.63 2.37-25.76 11.16-24.49 16.23.77 3.05 6.86 7.6 9 10.14 3.13 3.78 6.57 7.41 9.77 11 4.12 4.63 11.83 19.32 19 17.3 3.68-1 7.6-6 10.59-8.35 3.73-3 7.61-5.78 11.28-8.81A151.6 151.6 0 0 0 539 493.92c3.36-4.09 6.89-7.11 9-12.15 2-4.79 1.52-11.25 1.72-16.78.26-7.34-.59-14.55-.45-21.83.09-4.61 2.19-13.39-.16-17.36-2.79-4.71-5.94 1.41-9.37 5-3.06 3.2-6.87 8.85-10.85 10.82z" transform="translate(-145.11 -29.44)"/><path class="cls-4" d="M548 578.48c-4.17-1.14-8.88-1.15-13.18-1.66-6.53-.76-8.05-.84-4.51 5.34 3.09 5.41 7.52 5.24 14.09 4.09 1.58-.27 4.2-.08 5.25-1.48 1.35-1.77.55-5.69-1.65-6.29z" transform="translate(-145.11 -29.44)"/><path class="cls-2" d="M378.56 444.85c1.49 2.56 8.53 6.72 11.27 8.66 5.14 3.65 11.08 6.45 16.33 9.8 9.4 6 20.08 11.33 30.13 16.17 4.62 2.23 11.11 7.8 16.18 8.23 5.23.46 10.36-5.42 15.49-7.74 9-4.06 16.45-9.45 24.7-14.69 9.63-6.12 19.49-14.79 27.28-22.24 1.59-1.52 9.93-6.33 9.76-8-.33-3.12-7.56 2.31-9.45 2.74-11 2.52-22.5 4.11-33.72 6.85-11.88 2.9-24.59 2.69-36.71 5.38-11.82 2.62-24 5.44-36.48 5.35-6.62-.05-13.86-2.64-20.15-4.46-2.47-.72-16.19-7.36-16.57-9.06a7.44 7.44 0 0 0 1.94 3.01zM375.12 498.42c-3.28 11.31 12.05 16.47 19.14 22.19 3.72 3 7 6.09 11.47 8 6.71 2.83 8.35.27 13.33-4.78 6.51-6.61 13-13.38 19.55-20.07 2.91-3 7.65-5.85 9.54-9.7 2.84-5.79-2.44-5.65-7.48-8.48-16.73-9.41-33.89-17.84-49.65-28.06-2.19-1.42-5.23-2.31-7.33-4-1.35-1.1-3.09-4.39-5.11-4.4-3.68 0-3 12.06-3.2 15.11-.5 6.2-.28 12.4-.43 18.68-.11 4.65 1.38 11.3.17 15.51zM374.16 524.86c.9 4.59-1.22 10.37-1.56 14.9a81.78 81.78 0 0 0 .48 13.76c.43 4.18-1.07 5 3.34 6.79 2.38 1 6.15 1.09 6.78-2 .7-3.49-4-3.92-4.79-5.84-1.08-2.74-.54-1 .9-3.54 2.42-4.34 6.81-5.86 2-10.55-3.5-3.4-7.66-1.15-3.24-6.42 3.15-3.76 8-4.6 3.42-9.49-4.76-5.13-8.57-3.96-7.33 2.39z" transform="translate(-145.11 -29.44)"/><path class="cls-5" d="M546.6 606.88c-20-.61-34.87 12.86-42.59 30.07-8 17.83-1.57 43.92 15.84 54.81 5.51 3.45 23.46 13.18 29.89 7.76 7-5.87-3.76-6.92-6.89-7.15a26.63 26.63 0 0 1-11.34-3.08c-17-9.33-27.62-29.62-20.67-48.6a44.31 44.31 0 0 1 19.5-22.29c3.88-2.06 8.31-2.94 12.62-3.73 2-.38 6.47.11 7.54-2.22 1.22-2.64-1.44-5.45-3.9-5.57z" transform="translate(-145.11 -29.44)"/><path class="cls-5" d="M547.37 598.42c-16.1.2-33.07 2.75-45.86 13.18-6 4.92-9.45 9.78-14.08 15.77-1.53 2-16.31 15.66-15.51 17.43 2.33 5.14 17.47-11.59 18.64-12.59 6.54-5.58 13-10.32 19.56-15.52 5.94-4.69 13-7.55 20-10.44 5.46-2.26 10.79-1.25 16.32-2.55 2-.47 3.22 1.2 3.89-1.49.38-1.55-1.49-3.81-2.96-3.79z" transform="translate(-145.11 -29.44)"/><path class="cls-2" d="M549.29 589.61c-2.65-.56-21.38-1.69-14.77 5.74 1.86 2.1 7.64-.13 10-.58.83-.15 3.8.61 4.47 0s2.5-4.7.3-5.16zM370.21 763.14c2.77-.71 9.81-6.36 10.2-8.38.64-3.29-5.26-13.89-8.17-14.17-5.66-.53-3.14 4.57-1.72 7.19-.11-.2 4.91 6.17 4.56 4.72.39 1.63-3.26 10.23-4.87 10.64zM422.09 692.34c-.23 3.18-5.94 9.46-7.75 12-2.53 3.5-5.11 5.56-8.28 8.42-2.89 2.61-5.14 6.41-8.22 8.75-4.32 3.28-9.58 5.22-13.89 8.71 13.56 7.93 26.53-12.48 34.63-19.74 4.15-3.73 9-4.93 10.29-10.23.41-1.69.95-21.93-.87-21.83-.81.03-5.81 12.58-5.91 13.92z" transform="translate(-145.11 -29.44)"/><path class="cls-2" d="M397.33 739.9c3.86-6.23 7.61-8 14.79-8.28 3.34-.13 13.82 1.54 16.36-1.65 1.43-1.8 1.43-16.1.29-18.35-4.16-8.17-12 5.87-14.81 9.1-3.84 4.37-10 9.4-15.1 11.8-6.67 3.15-11.69 1.92-18.84 1.09-6.79-.79-17.21 4.13-3.7 4.32 3.25.07 20.09 3.45 21.01 1.97z" transform="translate(-145.11 -29.44)"/><path class="cls-3" d="M432 692.42c1.81 5.33.12 13.23.18 18.84.05 4.57-1.23 12.28.48 16.55 1 2.61 2.56 5.16 6.71 2.88 2.59-1.42.68-.73 1.73-2.94 2-4.22.69-13.45.36-18.14a358.84 358.84 0 0 1-.12-39.5c.23-5.3 1.29-10.79.14-16.06-.72-3.23-4.74-12.92-9.95-10.75 2.8 4.64 1 16.9.93 22.08-.07 3.9-.81 8-.69 11.85s-.84 12.13.23 15.19z" transform="translate(-145.11 -29.44)"/><path class="cls-2" d="M444.4 691.19c.78 2.53-.1 23.69 1.9 22.83 4.45-1.94 1.51-18.76 1.47-23-.09-9.11-.93-19.74.16-28.62.73-5.91 2.1-6.43 7.62-7.73 1.23-.29 9.39-.33 9.37-2.25 0 0-13.86-1.7-15.81-1.36-5.56 1-4.62 3.24-4.29 9.62.28 5.34-.7 10.58-.48 16 .08 1.88.77 3.86.76 5.69-.02 2.81-1.6 5.94-.7 8.82zM406.49 783.78c3.72 1.54 16.62 12.58 19.46 10.15 1.75-1.52 1.83-12.21 1.79-14.65-.05-2.87-.24-7.19-1.59-9.82-2-4-17.48-13.61-20-9.55-1 1.61 1.11 9.42.91 11.58-.32 3.02-5.14 10.39-.57 12.29zm2.69-14.49c2.44-2.38 5.61 1.58 8.2 1.48 1.38-.06 3.88-2.22 4.4-2 1.38.5 4.78 11.16 2.81 12.78-3.18 2.61-4.08-5.68-7.28-7.11-.83-.44-13.52.1-8.13-5.15zM449.63 728.29c1.36 4.19 20.48 1.29 24.55 1 3.68-.26 19.3 2.21 15.38-5.56-2.98-5.9-42.87-4.55-39.93 4.56zM391.86 746.72c1.77-.05-.56-2.52-1.06-1.7-.34.9.02 1.47 1.06 1.7zM405 754c2.95.87 12.73 8 15.47 6.09-2.09-5.25-10.68-11.9-16.18-13.09-2.4-.52-4.37-1.47-4.43.72 0-.14 4.78 6.14 5.14 6.28zM387.36 746.39c-.93-2-4.17-7.7-7.63-5.22-2.6 1.85 1.35 6.21 2.62 8.2 1.06 1.65 2.48 4.17 4.26 4.55-.06 0 7.63-2.5 7.55-2.3s-6.43-4.47-6.8-5.23zM445.54 724c-1.46.59-1.46 5.13-.53 5.91 2.49 2.09 2.35-6.63.53-5.91zM488.35 696.45c-2.48.2-17.36.91-14.74 3.17 2 1.69 8.93.94 11 .58.72-.13 3.89-.09 4.41-.62.86-.86 2.04-3.35-.67-3.13zM368.09 754.53a1.26 1.26 0 0 0 1.37 1.23c.82-.44.85-3.09-.63-2.61zM384.7 818c3.65 1.59 16.52 11.43 20 9.77 1.06-.51 3.83-6.61 4.77-7.92 1.61-2.22 3.41-4.4 5.2-6.48 3.23-3.77 10.27-11 7.69-15.83-1.77-3.34-16.46-12-19.58-10.7-1.42.59-6.06 9.43-6.44 10.42-1.48 3.82-2.59 4.23 1.18 3.12 3.33-1 4.89-3.73 9.39-1.67 2.66 1.22 3.66 2.89 4.85 5.48 2.86 6.22-3.2 14.86-10.73 13.2-2.77-.62-5-3.36-6.09-5.85-1-2.25.14-7.67-.77-8.3-2.02 1.44-12.05 13.65-9.47 14.76z" transform="translate(-145.11 -29.44)"/><path class="cls-4" d="M760.79 849c-.84.82-.93-9.75-1.06-11.32-.75-9.13-3.63-16.83-4.65-25.88-1.1-9.84-.34-19.79-1.27-29.65-1.09-11.51-3.61-23.18-5.21-34.54-1.38-9.86-1.68-19.7-3.22-29.55-1.59-10.17-2.21-20.58-3.27-30.76-2.42-23.24-6.47-46.52-10-69.95-2.48-14.88-3.6-30-6-44.93q-3.73-23.65-8.88-47.07c-3.86-17.59-14-28.67-29.23-37.8a347.22 347.22 0 0 0-38-19.73c-12.13-5.37-23-11.72-36-14.54-3.83-.82-7.46-.22-11.2-.87-9-1.55-17.43-9.89-23.61-16.06-4.35-4.34-8.51-8.89-13.07-13-2.26-2-9.31-9.52-12.66-8.14-1.31.54-1.53 2.27-1.56 3.69l-.1 5.75-.72 40c-.08 4.2-.16 8.41.17 12.6.38 5 1.31 9.88 1.51 14.85.15 3.73-.12 7.46-.33 11.18a308 308 0 0 0 .4 40.19c2.31 30 .61 60.9.8 91q.2 29.19.44 58.37c.11 13.93-.66 27.85-.47 41.78.29 20.47.78 40.48.82 60.82 0 2.12 0 4.38 1.24 6.13 3.33 4.89 14.65 0 19.27-.12 12.26-.36 24.93-2 37.12-2.72 24.25-1.38 51.25 1.69 72.61 13.24a428.52 428.52 0 0 1 64.5 42.84c2.94 2.36 9.65 10.09 12.58 5.46 1.48-2.27-2.28-9.96-.95-11.27zM332.79 458.87c-8.57 3.39-16.47 7.83-24.63 11.83-4.44 2.18-9.64 3.29-14.24 5.21s-8.94 3.95-13.28 6.21a110.59 110.59 0 0 0-13.68 8c-3.63 2.64-7.88 4.07-11.88 6.2-6.78 3.62-13.12 8.43-17.27 14.9a62.49 62.49 0 0 0-5.17 10.86q-5.23 13.11-10.14 26.35c-1.63 4.39-3 9-4.82 13.27-1.44 3.36-3.37 6.52-4.78 10-6.41 15.59-9.6 32.27-15.93 47.89-1.58 3.92-3.37 7.77-4.88 11.72a91.37 91.37 0 0 0-5.2 20.45c-.4 3-.42 5.75-1.6 8.49a88.45 88.45 0 0 0-3.14 8.47c-4 13-6.8 26.3-11.79 38.94a113.66 113.66 0 0 0-4.15 11.08c-.69 2.47-1.14 5-1.59 7.53-2 11.18-3.75 22.18-6.58 33.15s-5.59 22.09-9 32.94c-1.37 4.27-2.74 8.8-1.69 13.15a3.52 3.52 0 0 0 1 2 4 4 0 0 0 1.75.68c7.93 1.63 16.11 1.48 24.21 1.33 33.12-.62 66.37-2.4 99.45-1.81q26.19.48 52.38-1.17 12.92-.83 25.8-2.14c6.47-.67 13.15 1.33 14.14-6.94 1-8.79.38-17.65.38-26.47 0-7.67 1.26-15.21.55-22.86a78.13 78.13 0 0 1-.32-12.33c.21-3.22.7-6.41.95-9.62 1.2-15.32-1.72-30.81 0-46.08.5-4.41 1.18-8.8 1.26-13.24.07-3.79-.29-7.57-.41-11.36-.36-11.45 1.47-22.91.87-34.35-.51-9.81-2.87-19.43-.53-29.05 2.4-9.86 2.63-21.43 3-31.55.41-11.24-1.39-22.53-.3-33.73.35-3.53 1-7 1.31-10.57 1.18-12.54.06-25.19 1.18-37.78q1.32-15 1.39-30.12v-1.48a7.21 7.21 0 0 0-.45-2.26 3.44 3.44 0 0 0-2.76-2.3 5.32 5.32 0 0 0-2.83 1c-11.53 6.48-24.23 10.69-36.58 15.56z" transform="translate(-145.11 -29.44)"/><path class="cls-4" d="M366.6 659.49v.35c0 .35.05.69.07 1zM367.48 665.84c-.1-.63-.28-1.25-.42-1.89a23.86 23.86 0 0 1-.41-3.07l.41 10.1a14.44 14.44 0 0 0 .42-5.14z" transform="translate(-145.11 -29.44)"/><path class="cls-5" d="M370.1 669.32c7.6 4.51 16.25-24.69 5.68-30.68-7.36-4.16-5.56 6.3-5.59 10.83-.01 1.72-1.43 19.06-.09 19.85z" transform="translate(-145.11 -29.44)"/><path class="cls-5" d="M368.79 688.61c2.23 9.71 13.67-1.49 17.4-5.81 6-7 9.46-13.77 11-22.93 1.47-8.56.83-19-3.17-27.38-3-6.19-10-15.67-16.38-18.64-8.27-3.86-6.55 3.11-6.68 9.71-.13 6.36.41 6.39 4.64 10.65 3.19 3.21 5.67 6.19 7.32 10.44 3.41 8.77 1.73 16-4.65 22.75-1.72 1.83-6.32 4.31-7.59 6.09-2.07 2.95-2.68 11.51-1.89 15.12z" transform="translate(-145.11 -29.44)"/><path class="cls-2" d="M405.85 810.19c1.89 5.52 5.67-3.31 1.91-6.88-5.57-5.31-1.76 5.48-1.91 6.88zM388.33 834.1c1.8-.54 7.64.75 9.07 1.92.72.6 2.74 5 3.35 4.73 2.32-.8.69-9-.28-10.49-2-3.07-10.33-6.51-13.9-7.39-6.31-1.55-6.15 1-5.78 7 .45 7.13 1.73 5.99 7.54 4.23zM374.68 789.83l-.88 1c.31 2.41 3.75-1.28.88-1zM401.06 803.28c-1.2-1.62-5.07 6.21-1 9.39 5.77 4.51 2.67-7.15 1-9.39z" transform="translate(-145.11 -29.44)"/><path class="cls-2" d="M387.81 801c3.36.21 7.79-5.42 6.73-8.84-1.65-5.32-6.85-1.54-10.14-2.88-.95-.39-6.26-4.79-6.73-5.76-2.37-4.92 4.21-6 .89-10.35s-8-1.08-10 2.81c-1.63 3.1-1 10.39-.68 13.74.26 2.88-.08 10.43 2.22 12.18 4.01 3.03 13.39-1.2 17.71-.9zM376 795.83c-4.68.28-9.29-6.21-3.81-9.28 6.08-3.43 11.98 8.79 3.81 9.28zM384.09 551.75c4.5 5.28-1.75 9.79 3.11 14.09 3 2.66 8.67 3.77 12.29 5.56 4.34 2.15 8.84 5.39 12.85 8 1.58 1 2.86 2.44 4.34 3.57 1.18.89 6.12 6.58 7 6.73 5.09.85 2.41-3.5 2.24-7.52a52.82 52.82 0 0 1 .55-5.72c.55-6 .16-5.36 5.2-6.49 7.16-1.61 6.5-4.68 7.28-11.74.24-2.1.85-4.45.37-6.57-.3-1.29-4.13-10.83-4.9-11.25-2.73-1.46-5.29.92-5.21 3.56.1 3.74 3.24 2.53 4.68 5.13s-.45 10.19-3.55 12-3.84-1.54-7.2-.24c-3 1.15-1.55 5.79-2.83 7.52-1 1.3-8.78 3.83-11.31 3.21-4.23-1-2.77-8.06-8.13-8.22-3.11-.08-3.56 2.53-6.47 1.28a32.32 32.32 0 0 1-3.69-3.93c-2.22-3-3-3.63-2.24-7.18.15-.72 2.6-1.41 2.86-2.89 1.84-10.22-10.2-2.38-7.24 1.1zM420.11 841.2c5.54-.31 13.92-8.43 18-11.48 5.07-3.76 10-9.62 14.4-14.26 1.23-1.32 11.69-11.8 10.17-13.31-2-2-16.9.12-20.44.27-6 .25-12.61-.47-17.1 3.11-5.21 4.15-9.7 11.41-13.13 17-3.34 5.42-9.56 12.06-7.63 19 2.76 9.84 9.96-.02 15.73-.33z" transform="translate(-145.11 -29.44)"/><path class="cls-2" d="M416.67 532.2c-1.42-.73-2.54 1.78-3.71 2-1.92.41-2.37-.14-4.25-.42s-2.93-2.08-5.06-1.54c-1.78.45-2.46 3.38-3.91 3.87-3.19 1.08-3.3-2-5.95-1.54-.57.1-4.2 4.1-4 5.51.46 2.61 3.34 2.85 4.65 5.55 2.63 5.42-2.32 6.48-1.92 10.68.56 5.73 10.81 4.13 14.85 7.07 2.38 1.73 2 5.81 6.9 3.92 3.17-1.21 1.67-3.72 3.51-6.12 3.9-5.08 10.72-1.79 12.35-7.55 1.29-4.57-.54-1.07-2.64-4.6a16.12 16.12 0 0 1-1.72-8.44c.46-2.71 4.59-5.76-.43-8.31-2.58-1.28-5.34 1.6-8.67-.08zm1.49 10.8c7.54 5.21-10.77 22.49-15.57 7.24a9.41 9.41 0 0 1 4.78-11.24c6.41-3 7.19 1.5 10.79 4z" transform="translate(-145.11 -29.44)"/><path class="cls-5" d="M379.47 565.72c-2.7-1.67-8-4.78-7.41 1.47.45 4.52 4.62 4.32 7.82 5.6 5.26 2.1 9.35 5.83 14.11 8.68a69.47 69.47 0 0 1 22.89 22c5.91 9.32 9 18.85 13.14 28.92 5.16 12.67 16.47 15.15 28.63 15.62 1.86.07 5.82 3.06 7.17 0 .42-.94-5.84-4.32-6.75-5.13-3.48-3.09-6.17-7.12-9.06-10.82-6.47-8.26-10.4-18.86-16.41-27.65-5.51-8.06-14.23-16-22.28-21.66-5.16-3.64-11-6.06-16.3-9.53-5.02-3.22-10.72-4.51-15.55-7.5z" transform="translate(-145.11 -29.44)"/><path class="cls-2" d="M415.32 859.89c1.25-.54 4.67-4.83 1.47-5.15-2.6-.26-4.42 5.06-1.47 5.15zM420.88 529.8c4.28-2 3.41-1.77 7 .48 1 .61 1.66 4.05 3.56 3.09 2.44-1.22-3.79-10.38-4.67-12-1.38 1-7.52 4.57-7.69 6.32-.08 1.11-1.08 3.4 1.8 2.11zM442.12 507.73a75.86 75.86 0 0 0 17.52-1.35c5.42-1.17 4.39-2.49-.05-6.91-4.15-4.14-4.34-5.49-8.88-3.16-1.78.91-10.3 11.37-8.59 11.42z" transform="translate(-145.11 -29.44)"/><path class="cls-5" d="M369.34 731.07c11.67-1.62 25.47-10.8 33.68-18.67 9.89-9.48 16.45-21.25 21-34 9.41-26.52 4-58.86-15.09-79.75C401 590 392 582.39 381.38 577.37c-5.49-2.58-7.73-5.51-9.11 1.18-2.26 10.86 7.65 10.7 14.62 15.73a72.45 72.45 0 0 1 29.56 68.09c-2 15.2-9.54 26.65-19.19 38-6.08 7.15-12.36 10.3-20.43 14.73-2.09 1.14-5.94 2.19-7.25 4.08-.44.65-2.39 12.19-.24 11.89z" transform="translate(-145.11 -29.44)"/><path class="cls-5" d="M371.28 714c11-1.66 16.39-11.44 23.51-18.42 7.3-7.16 12.5-13.09 14.5-23.54 4-21.09 5.22-46-10.89-63.06-3.5-3.7-21.4-21.84-26.54-16.76-.86.85-.66 9.1-.58 10.47.36 6.77 4.12 6.2 9.4 9.91 17.89 12.6 25.93 37 17.48 57.31a50.55 50.55 0 0 1-16.61 21.59c-3.28 2.46-10.58 4.13-12.43 7.74-1.01 1.98-1.38 15.3 2.16 14.76z" transform="translate(-145.11 -29.44)"/><path class="cls-2" d="M382.06 533.1c-2.14 1.12 3.91 5.38 4.7 5.2 1.85-.41 1.81-4.6 3.39-5.66 2.9-1.94 12.15 2.06 8.4-4.51-.83-1.45-13.53-11.53-15.06-10.61-1.76 1.06 6.61 11.36-1.43 15.58zM555.22 807.22c-14.43 1.64-29.86 1.78-44.22 3-4 .35-6-1.14-10.06 2-2.65 2-4.95 4.66-7.69 6.85-7.16 5.74-9.12 11.34-11.95 20.13-2.38 7.41-4.31 14.86-6.72 22.3-1.12 3.46-1.73 6.71-2.91 10.1-.76 2.19-1.84 4-2.17 6.36-.24 1.74 1.89 1.25 1.91 3.31s-2.3 5-2.67 7.21c-.39 2.39.05 4.34 0 6.76a70.28 70.28 0 0 0 .36 8.11c.93 9.12 3.55 6.87 12.54 8.85 6.26 1.38 12.23 4 18.24 6.15 6.59 2.31 14.25 3 21 4.64 15.62 3.75 29.35-5.39 44-8.23 6.72-1.29 13-4.28 19.72-5.76 4.62-1 10.36-1 14.74-2.66 1.67-.64 3.91-2.75 4.79-3.07 4.44-1.62 11.39-1.16 16.34-2.31 7.63-1.78 13.07-3.56 20.7-2.69 26.49 3 51.2 14.46 75.33 25.72 6.57 3.06 33.59 18 39.67 10.77 3.94-4.69-8.57-10.43-12.2-12.75-5.27-3.36-10.79-6.92-16.31-10.07-10.9-6.23-22.27-13.91-34-18.46-13.32-5.14-25.78-12.74-40-15.15-2.54-.43-6.53.69-8.77-.49-4.34-2.28-2.06-3.4 1.91-3.65 6.4-.4 15.67 2.47 21.51 5 12.81 5.49 26.37 9.56 38.36 16.87 10.8 6.58 21.88 12.26 32.39 19.13 5.54 3.62 12.27 9.67 18.33 12.29 5.53 2.39 13.85-1.67 10.35-8.76-2.58-5.24-12.32-10.64-17.32-13.65-6.12-3.68-12.08-7.72-17.93-11.54-10.77-7-21.8-13.28-32.77-20.29-6.41-4.1-13.08-7-19.72-10.29-6.94-3.45-14-4.52-21.75-6.5a129.71 129.71 0 0 0-19.66-3.88c-1.39-.14-8.76.67-7.94-2.65s7.37-.86 9.56-.61c16.45 1.88 33.38 6 48.21 13.48 11.7 6 22.92 12.94 34 20 9.43 6 19.19 12.32 28.72 18.68 4.86 3.25 9.49 6.69 14 10.2 5 3.87 15.23 6.18 13.6-4.35-.72-4.7-8.3-10.1-11.86-12.65-6.39-4.57-13.29-9.32-19.36-14.49-9.7-8.25-20.42-17-31.43-23.92-24.33-15.27-48.74-25.94-77.21-30.38-2.32-.36-15-2.12-7.84-4.46 5.17-1.68 16 3 21 4.08 13.88 2.9 28.07 6.68 40.74 12.84 11.87 5.77 22.57 13.61 33.39 20.9 11.37 7.66 21 17 32 25.11 2.86 2.1 5.89 3.87 8.69 6.13 2.59 2.08 5.9 7 8.78 8.19 6.39 2.63 11-6.92 6.43-11.73-18.93-20-42.47-34.41-63.18-52.07m-245.2 38.94c.05-.18-2.11 7.1-3.2 4-.75-2.11 2.83-3.69 2.38-5.48.79.18 1.07.67.9 1.5zm1-7.76l.25-1.47c.22.18.8 1.73-.15 1.49zM465.33 283.2c-.37.05-2.37 9.36-2.37 9.38 1.71 2.95 6.59 1.19 9.88-.52 3.44-1.8 4.78-.95 1.6-4.85-1.5-1.85-6.88-4.32-9.11-4.01zM438 861.27c3.32-3.61 10.14-6.16 14.05-9.1 3.24-2.45 10.63-6.39 12.67-9.64 2.81-4.49-2-8.48-4.16-12.31-1.25-2.23-5.21-11.21-7.74-10.76-.9.16-8.48 8.76-9.53 9.62-3.82 3.11-8 5.83-11.9 8.86-6.43 5-7.72 5.57-3.62 12.84 1.13 2.03 7.65 13.28 10.23 10.49zm2-27.3c4.6-7.87 8.92 8.22 12.33 10 1.7.9 6-2.23 4.6 2-.45 1.34-6.82 5.38-8.17 5.71-4.93 1.17-3.49.14-3.07-2.16 0 0 2.81-1.5 2.94-2 .45-1.48-1.41-3.85-2-5-.17-.33-2.77-5.15-3.67-5.22-.43 0-2.16 1.39-1 1.82-.54-.21-1.4 1.8-2.85 1.09s.54-5.68.89-6.21zM451.55 274.86c-2.8-.92-7.57 2.54-9.92 3.83 3 1.95 9.79-1.58 13.39-1.73 3.33-.13 9.13 2.85 11.79 2.21 3.85-.93-.68-2.61-2.72-3.42-4.09-1.65-8.69.38-12.54-.89z" transform="translate(-145.11 -29.44)"/><path class="cls-2" d="M467.68 923c-.85-8.47-3.41-16.39-3.66-25-.22-7.61 1.53-14.94 2.6-22.33a137.74 137.74 0 0 1 4.47-20.34c1-3.38 9.06-17.89 6.59-20.7.26.29-25.72 22.3-28.9 24.19-2.21 1.31-4.95 2.32-6.9 3.94-3.52 2.94-3 4.73-4.16 8.87-1.83 6.67-5.1 12.61-6.1 19.68s-2.86 14.41-3.36 21.46a72.33 72.33 0 0 0 .32 9.45c.34 5.2-1 4 4.67 4.67a117.31 117.31 0 0 0 18.24 1.11c3.78-.1 8.43 1 12.14.68 5.25-.47 4.54-.79 4.05-5.68zM445.4 291.16c-.59-1.39-.16-8 0-7.82-1.71-2.09-6.66 3.64-7.07 4.75-1.96 5.18 9.56 8.97 7.07 3.07zM401.42 845c-1.58.26-1.26 2.87.1 2.29a1.3 1.3 0 0 0-.1-2.29zM563.15 338.87c4.93-2 6.63-5.41 7.25-10.25.35-2.68.87-14-4.72-14.42-3-.22-3.69 9.65-3.92 12.09s-2.94 14.37 1.39 12.58zM428.76 381.7a2.24 2.24 0 0 0 2.35-1.32c-1.75-2-8.45-4.22-11.13-4.95-4.45-1.2-8.92-.31-13.46.41-2.92.46-25.28-2.13-23.93 4.29.38 1.81 18.67 2.29 21 2.32 8.32.08 16.92-1.97 25.17-.75zM396.12 858.41c-1.95-4.2-1.85-8-6.2-9.87-5-2.17-4.88-.94-3.73 2.67.7 2.2 4 6.36 6 7.36.5.25 5.18 2.55 3.93-.16zM390.48 842c-1.15-1.72-3.74-3.7-5.36-1.86-.83.94 6.09 6.22 7.14 4.27a2.45 2.45 0 0 0-1.78-2.41z" transform="translate(-145.11 -29.44)"/><path class="cls-3" d="M437.26 574.13c-.28-2.19-5.45-2.14-6.79-1.08s-.54 8.4-.59 9.33c-.39 7-2.34 12.43 4.74 16.16 1.22-3.79.54-7 .71-10.7.22-4.57 2.51-9.04 1.93-13.71z" transform="translate(-145.11 -29.44)"/><path class="cls-2" d="M429 858.6c-3.76-2.4-3.8-11.44-8.14-13-2.17-.77-6.06.62-6.31 3.14-.1 1.08 6 4.18 6.43 6 1.4 5.67-5 9.17-9.9 8.68-3.44-.35-7.77-2.79-7.19-7.14.35-2.62 3-3.74 4.27-6-4.84 0-12.34-2.39-10.73 4A14.17 14.17 0 0 0 409 865.35c5.57 1.1 9.84 0 15.47-.71 3.13-.39 11.53-1.64 4.53-6.04z" transform="translate(-145.11 -29.44)"/><path class="cls-6" d="M366 665.92c-.57.6-.48 1 .27 1.22.62-.49.53-.9-.27-1.22z" transform="translate(-145.11 -29.44)"/><path class="cls-7" d="M340.9 197.65a135.18 135.18 0 0 1 5-16.12c6.47-17.11 16.87-33.32 32.2-43.31a125.91 125.91 0 0 1 15.05-8c10.95-5.18 22-10.34 33.6-13.79 14-4.17 27.72-5.69 42.4-7.36 6.66-.76 13.35-1.52 20-1.15a117.73 117.73 0 0 1 15.85 2.31c9.82 1.88 19.5 1.58 29.19 4.9 20.94 7.17 32.77 20.78 41.08 40.6.59 1.4 1.16 3.09.34 4.37-.72 1.1-2.16 1.41-3.46 1.63l-36.41 6-8.1 1.33c-8.71 1.43-17.51 4.83-26.42 3.46-4.15-.63-8.12-2.1-12.16-3.24-18.4-5.19-38-3.57-56.85-.22a155.83 155.83 0 0 0-16.68 3.76 104.73 104.73 0 0 0-45.4 27.76 107.41 107.41 0 0 0-16.59 22.26 43.51 43.51 0 0 0-4.39 10.16c-.65 2.68.36 5.24-1.81 7.59-1.66 1.79-5.31 1.71-6-.64a3.93 3.93 0 0 0-.4-1.27 3.19 3.19 0 0 0-1-.77c-3.39-2.16-3-16.14-2.72-20.11.48-6.8 2.09-13.53 3.68-20.15z" transform="translate(-145.11 -29.44)"/><path class="cls-7" d="M532.38 195.82c4 7.73 2.17 15 .5 22.89l-3.5 16.58a9.86 9.86 0 0 0-.32 2.9 10 10 0 0 0 1.68 4.06L540.82 259c6.93 11.49 3.32 22.67 1.27 35.11a6.91 6.91 0 0 0 .23 4.25c1 1.94 3.58 2.6 5.67 2a12 12 0 0 0 5.19-3.82c4.08-4.57 7.28-9.87 11.34-14.47s9.31-8.57 15.41-9.25c5.86-.65 11.7 1.84 17.58 1.38a5.46 5.46 0 0 0 3.18-1 6.54 6.54 0 0 0 1.75-3.47c2.85-10.52 6-20.95 6.51-31.89 1-24.27-4.58-63.09-34.43-68.43-7.92-1.42-16 .7-23.76 2.8-9.38 2.54-24.38 3.68-31.92 10.5 4.85 4.04 10.45 7.22 13.54 13.11z" transform="translate(-145.11 -29.44)"/><path class="cls-6" d="M785.56 886.3c-.63-5.48-10.21-9.94-14.1-13.37-4.57-4.06-5.84-6-6.86-11.75-.89-5-2-10-2.27-15.17a503.19 503.19 0 0 0-5.82-56.72c-6-35.4-7.83-72.31-12.89-108.41-5.27-37.69-10.17-76.08-17.4-113.81-3.69-19.27-6.29-40.81-13.89-58.91-5.51-13.09-23.87-22-35.53-28.17-14.7-7.83-29-16.16-44-23.37-16.5-7.93-33-16.2-49.85-23.31-8.67-3.66-13.91-6.18-20-13.2-2.75-3.19-7.39-6.16-9.34-9.69-2.61-4.72-1.06-12.26-1.15-17.37-.09-4.79-1.63-13.86 2-16.66 2.15-1.64 8-2.25 10.6-3.5a38.86 38.86 0 0 0 10.19-7.2c11.8-11.17 19.33-28.55 28.47-41.84 4.68-6.82 7-14.64 7.83-23.31a28.68 28.68 0 0 0-1.47-12.38c-1.21-3.35-4.69-6-5.84-9-1-2.73-1.12-.31-1.51-3.56a58.51 58.51 0 0 1 1.59-6 81.16 81.16 0 0 0 3.52-11.75c2.28-11.21 4.11-21.28 3.5-32.81-.48-9-.15-16.75-4.39-24.74-4.65-8.78-7.25-17.74-14.86-24.68-5.58-5.09-12.92-10-21-8.95-9.44 1.27-18.92 4.52-28.18 6.54-7.28 1.59-15.17 3-22.11 5.36-7.12 2.43-5 3.34 0 6.7a45.3 45.3 0 0 1 8.59 7.72c9.74 12 3.15 27.12-1.35 40-3.12 8.9 1.58 12.5 6.68 19.21 5.7 7.49 11.08 13.23 10.44 23-.42 6.4-7.16 22-2.4 26.31 8.2 7.45 13-5.09 16.25-9.76 4.42-6.3 11.55-13.68 19.21-15.7 9.93-2.61 21.26.13 26.49 9.21s3.51 17.44 0 26.67c-3.38 8.92-10.58 15.62-15 24.19-1.52 2.93-2.08 5.5-3.62 8.43-2.35 4.47-6.32 9-9.67 12.82-6.2 7.08-14.08 15.47-24.89 13.4-6.47-1.23-5.29-3.19-4.93-9.72.13-2.3.78-11.48-3.43-6.31-1.14 1.39-.55 10.62-.66 12.67a137.35 137.35 0 0 1-1.72 16.75c-1.22 7.07-2 16-5.05 22.48-4.12 8.77-13.42 13.71-21.76 17.41-15.06 6.67-31.3 11.18-47.26 16.5-17 5.69-33.67 11.84-51.92 10.79-18-1-36.17-7.06-42.33-25.59-4.92-14.82-8.17-30.62-14-45.12-5.94-14.7-9-30.65-11.16-46.56a109.46 109.46 0 0 1 0-25.9c.71-5.61.15-12.71 1.58-18.21 1.46-5.66.65-4.45 5.73-1.37 6.86 4.15 15.44 6.51 23.54 4.73 3.09-.67 5.93-3.3 8.87-4.28 5.74-1.93 4.41-1.42 3.39 4.78-1.42 8.55-5.28 14.17-9.19 21.73-3.57 6.88-10.52 17-2.37 23.61 6.34 5.15 16.45 2.14 23.76 2.73s18.87 6 25.85 2.63 5.44-18.06-2.64-16.28c-5.79 1.28 1 3.24 2.32 5 2.31 3.16 2.1 7.41-2.48 8.5-4.08 1-6.71-2.36-9-4.58-3.87-3.72-4.06-5.16-10.34-4.14-8.41 1.37-16.7 9.62-25.17 3-6.15-4.79-.59-12.75 2.31-18.14 4.81-9 9-14.79 10.53-25.26 1.33-9.1 1.91-18.82-3.5-26.59-5.16-7.4-13.4-9.54-21.34-12.62a60.06 60.06 0 0 0-11.85-3.62c-1.27-.2-9 .95-9.94 0-2.47-2.59 5.28-19 6.74-21.82 7.37-14.1 18.93-25.21 31.13-35.24 14.31-11.77 30-16.77 47.81-20.11 18.46-3.46 36.7-6.16 54.95-1.19 7.38 2 14.4 6.36 22.08 4.13 9.37-2.73 18.46-5.07 27.88-7.28 7.8-1.84 15.9-2.46 23.85-3.53 8.37-1.12 19.68 2.36 15.27-9.85-5.77-16-14.87-29.75-30.24-37.66-14.88-7.66-32.73-11.08-49.33-11.93-18.06-.91-37.43-1.5-55 3.48-29.78 8.44-59.11 18.38-81.31 41-8.39 8.52-16.11 21.83-19.52 33-4.8 15.73-9.61 34.05-4.69 51.11a48.27 48.27 0 0 0 3.43 9.31c2.11 4 2.48 2.48 2.54 7 .14 10 .4 19.29 1.46 29.25 2.09 19.45-1.59 38.42.55 58.18 1.74 16 5.83 31.31 9.94 46.86 1.85 7 5.36 13.83 7.5 20.81 2.51 8.2 8.48 18.82 8.64 27.37.15 8-8.37 11-15.12 13.76-7.06 2.89-13.6 5.93-20.86 8.91-15.59 6.39-30.51 14.23-45.95 21.35a279.15 279.15 0 0 0-44.16 25.2c-7.74 5.46-10.24 14.24-14.54 22.43a204.46 204.46 0 0 0-11.56 27.81c-20.93 61.65-43.32 123.48-58.12 187-3.6 15.46-7.77 30.7-11.35 46.16-1.21 5.21-5.64 16.1-3.75 21.3 2.64 7.24 21.32 6.72 27.43 7.31 9.81.94 19.48.21 29.24-.74 13.07-1.28 25.72-.12 38.83-.77 4.74-.24 9-1.84 13.79-2.23 1.66-.13 2.85-.78 4.54-.54.73.1 1.49 1.91 2.88 2 8.46.45 18.07-.36 26.58-1 9.46-.67 18.6-1 28.05-1.2 9.25-.22 17.42-2.1 26.63-2.37s18.3-1.34 27.53-1.71c1.73-.07 13.18-1.37 14.36 0 1.42 1.65-4.18 10.23-5.25 12.59-7.24 15.94-.49 35.57 13.83 45.44 6.75 4.66 14.8 5.81 23 5.51a104.78 104.78 0 0 0 13.14-1.69c6.19-1 4.07-.83 3.17 3.82-3.25 16.79-8.56 33.43-8.59 50.76 0 14.43 4.82 45.88 25.75 27.76a82.75 82.75 0 0 0 10.26-10.08c2.25-2.78 3.43-5.94 7.09-7.2 6.23-2.14 8.46 1 12.85-4.93 2.81-3.81 2.41-9.08 7.36-9.32 7.33-.36 16.22 5.81 23.19 7.64a72.32 72.32 0 0 0 24.44 1.69c7.8-.73 14.2-3.7 21.56-5.7 9-2.46 18.19-4.66 27.12-7.35 16.13-4.85 31.65-8.9 48.52-11 34.67-4.37 65.43 19 96.76 30.14 7.94 2.82 19 9.21 27.61 4.63 2.93-1.57 3.15-4.51 5.41-6.11 3.73-2.65 6.7-1.3 8.75-6.63 1.52-4 .9-4.23 3.25-6.77 3.18-3.45 6.59-3.76 6.88-9.41.31-5.86-.58-4.18 2.81-9 1.17-1.68 3-4.41 3.23-6.5.42-3.85-1.64-3.72-2.08-7.34zM543 219.29l.22.4c5.49-12.54.91-28.66-10.35-36.44a5.14 5.14 0 0 1-1.64-1.5c-1-1.79.94-4.12 3-4.2s3.89 1.27 5.41 2.67a41.88 41.88 0 0 1 9.89 13.71c3.3 7.37 4.4 15.51 5.46 23.51 2.17-1.13 2.47-4.08 2.33-6.53a54.55 54.55 0 0 0-3.87-17.13c-1.93-4.8-5.49-8.44-8.82-12.28a5.12 5.12 0 0 1-1.43-2.5c-.24-1.82 1.63-3.38 3.46-3.44a8.1 8.1 0 0 1 5 2.07c6.4 4.91 9.6 12.57 10.81 20.37a82.06 82.06 0 0 1 .75 12.63c0 1.63-.25 5.8 1.44 6.76 4.74 2.72 2.85-7.26 2.58-8.94l-2.16-13.22c-.65-4-1.31-8.36-3.77-11.69-2.3-3.1-6.43-5-7.53-8.93-.16-.58 5.15-2.12 5.76-2.07 1.7.13 3.61 1.58 4.9 2.61 3.37 2.71 5.6 6.73 7.78 10.39a38.41 38.41 0 0 1 5.35 21.8c-.16 2.83-.65 5.64-.78 8.47a2.52 2.52 0 0 0 .23 1.44c.57.94 2.12.72 2.82-.13 3.91-4.84 1.92-17 .56-22.37a42.5 42.5 0 0 0-11.58-20.27 3.34 3.34 0 0 1-1.17-1.77c6.17-1.94 13.85 8.37 16.54 12.85a37 37 0 0 1 5.11 15.24c.5 4.95-1.31 11.23 2.26 15.37 2.82-6.11 2.34-14.26.11-20.5-2.33-6.5-6.87-12.21-8-19 0-.33 5.24 4 5.68 4.61a50.8 50.8 0 0 1 9.3 20.56c1 4.92 1.16 11 3.47 15.44 3.36-.83 2.7-6.38 2-8.93-.9-3.13-2.38-6.49-1.28-9.75 12.21 20.44 4.3 48.89-1 70.2a7.82 7.82 0 0 1-1.73 3.83c-2.27 2.27-8.22.45-10.91.1a31.17 31.17 0 0 0-11.35.3 30 30 0 0 0-15.92 9.61c-4.4 5.17-7.3 11.46-13.1 15.4-3.86 2.62-4.56-3.19-4.18-5.86.46-3.33 2.17-6.41 3.22-9.57 2.58-7.76.82-16.35-3.07-23.35a39.44 39.44 0 0 0-7.73-9.57c-5.07-4.78-8-7.57-5.57-14.89 2.06-6.17 4.37-12.3 5.49-18.7s1-13.24-1.78-19.13-7.68-10.22-12.5-14.45c7.29.38 13.57 6 16.54 12.63a35.72 35.72 0 0 1 2.79 13c.14 3.76-.85 7.65.96 11.14zM362 288c-.59 1.88-6-2.13-6-4.16.17-5.63 7.1.67 6 4.16zm2.79-14.79c-.53.74-5.26 2.74-5.06 1.77.44-2.19 5.35-2.16 5.05-1.73zm11.69.65c-.43.39-9.28-1.62-9.75-1.92 1.06-.25 12.01-.06 9.74 1.96zm8.23 13.14c-5.39 2.46-7.54 2.4-5-3.25 1-2.21-.63-3 1.57-3.2 1.46-.14 7.28 4.67 3.43 6.45zm-30.21-17.88c5.95-4.54 11.42-7.14 19-5.41 2.19.51 17.23 9.63 12.36 12-1.55.74-7-5.49-8.59-6.21a19.91 19.91 0 0 0-12-1.15c-3.27.61-6.26 4.05-9.11 4.5-2.08.28-5.4-.85-1.66-3.73zm59.27-95.58c-1.26 1.82-5 3.22-6.7 1.34.53-.29 7.78-2.88 6.7-1.34zm1.73-5.18c-.6.49-4.35 2.56-5.21.94-1.43-2.71 7.06-2.46 5.21-.94zm122.24-50.23c1.07-2.68 13.58 6.33 15 7.43a75.49 75.49 0 0 1 12.49 12.58c4 4.77 5.75 11.17 7.63 17 1.61 5 2.2 5.94-2.61 6.35-8.1.71-4.6-5.73-6.91-11.2-1.24-2.92-2.89-6.5-4.29-9.08a70.56 70.56 0 0 0-8.05-11.46c-1.7-1.83-14.39-8.75-13.26-11.62zM528.92 118c7.85 5.9 15.66 9.81 21.28 16.74 4.22 5.2 11 14.83 11 21.85 0 3.45-4.33 8-7.9 5.89-2.09-1.23-2-5.31-2.59-7.27-2.77-8.92-8.19-14.73-13.38-22.27-4.09-5.95-8.35-9.9-12.93-15.3a4 4 0 0 1 4.52.43zm-34.83-8.87c6.49 2.84 14.14 2.4 20.16 6 7.32 4.32 12.93 10.32 18.16 17 2.8 3.58 4.59 7.86 7.33 11.46 2.46 3.24 5.36 5.3 6.77 9.22 1.06 3 3.56 7.82.62 10.65-3.74 3.59-6-.49-7.67-3.4-3-5.31-5.35-11.41-8.89-16.38-3.42-4.81-7.69-9.38-11.5-14a49.15 49.15 0 0 0-11.68-10.41c-1.8-1.15-17.64-10.25-18.83-9.55a6.32 6.32 0 0 1 5.53-.52zm5.82 19.07c-.87-.66-1.78-1.27-2.66-1.92a24.71 24.71 0 0 0-3.32-2.45c-2.61-1.32-5.48-2-8.2-3-2.41-.92-4.62-2.33-7.07-3.15-3.51-1.17-7.06-2.58-10.6-3.62a51 51 0 0 0-5.52-1.46c-1.53-.26-6.36 1-4.8-1.2 1.74-2.47 6.32-1 8.73-.54s4.58.89 6.88 1.29c4.78.84 9.77 1.34 14.45 2.63A74.66 74.66 0 0 1 507 124a71.64 71.64 0 0 1 15.56 14.29 84.93 84.93 0 0 1 6.34 8.94c1.94 3.13 4.11 5.44 5.41 8.91.9 2.38 3.69 6.27 2 8.77.18-.27-3.14 1-3.45 1-3.36-.28-3.8-3.44-5.61-6.75 2.09.26-3.41-7-4.11-7.95a120.89 120.89 0 0 0-10.69-12.55 117.83 117.83 0 0 0-12.54-10.39zm-68-13.09c2.74-1.28 4.13-2 7.21-1.4 3.25.68 6.53-1.07 9.84.06 2.23.76 2.84 1.62 4.6 2 3 .59 11.52 1 16.06 2A51.5 51.5 0 0 1 483 123c1.56.88 3 2 4.55 2.88s3.54 1.07 5.28 1.89a37.67 37.67 0 0 1 10.24 7.23c1 1 2.48 3.26 3.26 3.93 1.44 1.22 3.23.42 4.93 2.57-2.22-.1 3.24 3.48 3.16 4.9 0-1 3.18 3.31 3.24 3.38a71.44 71.44 0 0 1 5.44 7.7c1.21 1.79 3.87 9.94 3.55 9.82-5.23 4.59-9.77.28-12.35-4.55-2.47-4.62-2.1-4.8-5.37-8.25-2.23-2.37-3.82-6.12-6.37-8.55A92.13 92.13 0 0 0 481.45 131c-4-2.06-8-3.91-10.44-5-4.77-2-8.92-2.78-12.5-4.08-2.38-.86-5-1.79-7.41-2.49-1.09-.3-1.61-1.83-2.38-1.84-.57 0-2.46 1.55-4.5 1.46-.91 0-1.82-1.38-2.53-1.5-4-.71-9.11.22-12.69-1zm-22.5 8.36c6.24-6.42 21.24-3.59 28.94-2.37 3 .47 5.59 1.21 7.31 1.36a41.35 41.35 0 0 1 5.79.48c12.8 2.86 26.72 9.31 37.74 17 7 4.86 11.23 10 16.89 16.16 3.53 3.86 14.24 17.78 1.26 16.49-5.1-.5-2.05-.53-4.32-5.27-1.39-2.9-4.82-6-6.8-8.65s-5.36-5-8.17-7.73a138.28 138.28 0 0 0-11.53-8.28 116.06 116.06 0 0 0-11.34-5.66c-5.46-2.24-10-3.92-15.48-5.69-2.24-.72-4.42-1.51-6.64-2.09-2.38-.62-4.94-.36-7.25-1.18a61.77 61.77 0 0 0-7.6-2.19c-2.53-.52-5.07-1-7.62-1.36s-5-.76-7.54-1c-.65.01-3.05-.49-3.62.05zm-28 13.6c4.53-1.75 8.07-5.53 12.78-7.51 6.59-2.77 16.35-1.81 23-1.66 9.88.23 25.09 4.52 32.12 6.56 9.33 2.7 20.95 6.81 27.9 12.75 2.62 2.23 1.84 2.33 3.65 3.47 3 1.88 5.46 2.92 8.3 6 2.22 2.39 4.41 4.8 6.56 7.26 1.65 1.89 4.45 4.35 4.93 7-2.65.34-5.16-.93-7.65-1.56-2.23-.55-4.89-.94-7.05-2.37-3.41-2.26-6.32-7-9.62-9.75a64.19 64.19 0 0 0-10-6.69c-4.36-2.42-10.85-4.36-16.34-6.44-3.81-1.44-8-2-11.82-3.22-3.48-1.13-6.49-2.31-10.21-2.32a8.35 8.35 0 0 1-1.81.06c-.45-.09-1.14-.62-1.55-.61-2.18 0-5.06-1.51-7.41-1.62-4.68-.22-9.44-.1-14.2-.22a49.29 49.29 0 0 0-13.11 1.44c-3.18.79-8.53 3.81-11.71 3a5.56 5.56 0 0 1 3.24-3.5zM345 183.87a25 25 0 0 1 1.52-3.47c.67-1.32 1.14-2.79 1.76-4.14q1.88-4.15 4.06-8.16a32.61 32.61 0 0 1 2.13-3.9 98.12 98.12 0 0 1 6.95-9 32.51 32.51 0 0 1 4.33-4.13 26.47 26.47 0 0 1 5.67-2.73c2.58-1.08 5.23-2 7.79-3.14 1.53-.69 3-1.64 4.6-2.22a24.4 24.4 0 0 0 4.91-2.35 9.14 9.14 0 0 1 3.38-1 49.2 49.2 0 0 1 7.77-.45 170.22 170.22 0 0 1 19 1.34c5.6.65 11.2 1.41 16.75 2.4a66 66 0 0 1 16.14 5.38c4.05 2 4.23 1.48 8.5 2.95a62.28 62.28 0 0 1 12.6 7.35c2.3 2.11 2 3.21 3.34 4.29.48.4 3.28.5 4.14 2.14-2.26-.1-6.63.93-9.67.9-6.34-.07-11.48-2.49-17.18-5.35-5.35-2.69-5.08-2.21-11.25-3.52-2.19-.47-14.41-3.38-14.12-2.65-7-.66-13.76-2.24-21-2.37-5.29-.09-14.55-.1-18.49 1a82.44 82.44 0 0 0-17.07 7.15 58.14 58.14 0 0 0-9.38 6.76c-1.45 1.24-3 2.47-4.33 3.84a16.79 16.79 0 0 1-2.22 2.46A29 29 0 0 0 349 180c-.95 1.35-1.74 3.11-3 4.2-1.07.93-1.2.52-1-.33zm-6.53 25.57c.69-1.81.64-3.68 1-5.52s1.59-3.54 2.32-5.23 1.34-3.48 2.16-5.17c1.2-2.46 3.31-6.76 6.58-6.76a24.33 24.33 0 0 1 1.72-2.81c1.59-2.11 3.26-4.16 4.95-6.19s4-4.2 5.5-6.52c1.87-2.81 4.84-4.08 7.79-5.64 3.2-1.69 6.1-3.78 9.19-5.34 5.65-2.86 12.35-3.45 18.72-4.13 8.83-.94 16.18 0 24.88.82 3.76.34 6.06 1.59 9 2.4 2.52.69 5.27.1 7.85.37a24.2 24.2 0 0 1 5.37 1.24c.84.3 1.69.82 2.54 1a9.2 9.2 0 0 1 2.17.36c4.26 2.09 2.82 3.24-.62 3.53-2.45.2-8.78-1.31-12.21-1.56-4.85-.36-9.63-.91-14.56-.79a120 120 0 0 0-22.75 2.84c-3.1.75-7.66 1.86-10.51 2.69s-5.48 2.63-7.93 4.22-5.37 1.47-7.89 2.89a72 72 0 0 0-6.12 4.47 89.69 89.69 0 0 0-11.62 9.77c-3.83 3.86-6.68 8.21-9.9 12.73-1.31 1.84-3.11 5.43-4.68 6.61-.42.36-4.42 3.81-2.91-.28zm2.77 19.17c-3.31 2.56-1.81-4.51-1.55-5.77.35-1.72.2-3.37 1-5 1.09-2.26 2.64-4.29 3.86-6.47 1.73-3.1 3.49-6.18 5.45-9.15 2.56-3.89 6.84-11.57 12.31-11.49-.07 0 5.42-6.21 6.8-7.36 3.21-2.68 7.7-4.9 11.53-6.66 4.95-2.26 10.29-5.41 15.75-6.58 1.1-.23 10.1-2 10.83-1.37 1.18 1.11-16.85 8.61-17.14 8.76-4.64 2.35-11.86 7.51-17.32 11.86-6.67 5.3-11.78 11.66-17.11 18.28-2.11 2.61-5 5.17-6.82 8-2.47 3.93-3.83 10.07-7.55 12.95zm30.55-33.21c1.16-1.2 2-2.12 3-2.93a91.76 91.76 0 0 1 9.15-7.34c3.23-2.17 6.33-4.59 9.84-6.29a22.49 22.49 0 0 1 4.86-1.54c1.32-.31 2.55-2.13 3.77-2.18 3.78-.16 1.27 2-.46 3.14a37 37 0 0 1-4.4 2.55c-.64.3-4.77 1.68-4.79 2.07 0 .88-5.49 3.36-6.53 4.05a78.51 78.51 0 0 0-7 5.31A120.23 120.23 0 0 0 367 204.31c-3.37 3.78-7.2 9.08-9.9 12.57-.94 1.21-1.13 2.39-1.93 3.57-2.61 3.85-3.67 8.32-6.09 12.23-.72 1.16-3.84 3.71-3.84 4.5s.46 1.26 1 1.18c-.65 3.13-3.87 2.75-4.41.47-1-4.06 2.45-8 4.05-11.38a26.31 26.31 0 0 1 3-5.34c1.46-1.91 3.07-3.72 4.44-5.7 2.66-3.84 5.1-7.84 8.11-11.42 1.55-1.83 3.32-3.33 5-5s3.74-2.89 5.4-4.59zm230.85 266.88a52.8 52.8 0 0 1 6.68-.86c-.3.5-.11.87.55 1.1 7.09-.61 14.5-4.59 23.1-1.44 4.21 1.55 11.18 5.57 15.59 8.22 11.77 7.08 24.47 12.44 36.25 19.49 9.86 5.9 22.27 12.65 25.82 24.39 2.93 9.67 5 19.3 7.41 29 5.31 21.31 7.09 43.18 11.28 64.81 4.77 24.61 8 49.64 11 74.14 2.35 18.85 5.56 38.19 6.91 57.27.94 13.16 3.31 26.19 4.92 39.26 1.05 8.45 1.11 17 1.78 25.47.48 5.94 2.06 11.7 3.11 17.56 1 5.69 1.19 11.26 1.66 17 .13 1.57.22 12.14 1.06 11.32.57 2.22 2.25 12.9 0 13.48-1.19.3-10.08-7.37-11.34-8.34-8-6.08-15.53-12.65-23.68-18.53-2.86-2.06-5.84-5.88-8.37-7.58-4.26-2.86-8.94-5.37-13.35-8.17a125 125 0 0 0-15.82-8.33 70.73 70.73 0 0 0-8.54-3.57c-21-6.3-44.17-10.15-66-9.41-12.39.42-25.11 2.65-37.63 2.71-5 0-11.19 4.09-16.11 2.22-2.9-1.1-3-3.17-3.08-6-.22-5.24-.54-10.52-.94-15.79a35.55 35.55 0 0 1-.14-5.46c.27-3.76.1-8.33.79-11.87.75-3.79 3.83-7.12 4.94-10.87 1.83-6.15 3.42-9.39 5.5-15.18 2.57-7.19 5.25-14.39 7.56-21.66 2.59-8.18 5.93-15.9 8.27-24.21 3.65-12.94 9.64-25 13.66-37.65 4.32-13.65 9-27.19 13.28-40.87 2.23-7.14 5.86-15 7.91-23.42 2-8.09 8.34-20.17 3.82-28.28a28.22 28.22 0 0 0-5.34-6.31c-3.89-3.79-22.24-18.71-21.73-24.55.21-2.45 2.33-2.67 3.58-4.09 1.89-2.13 3.93-4.58 5.93-6.84 6.33-7.15 17.25-15.23 19.52-24.07 2-7.69-.73-7.15-4.64-12.06-3.2-4-5.5-8-8.87-11.72-1.13-1.19-8.94-9.59-6.3-10.31zm-48 275c.18-5.62.69-11.31.62-15.86l-.51-33.58-.32-21.2-.43-24.93c-.34-22.36.32-44.71 0-67.07-.23-15.18-.08-30.53-1.1-45.53-.29-4.15-3.83-25.23.92-27.57.06.1 8.92 8.58 8.39 8.28 9.62 5.32 17.69 13.4 25.07 21.42 6.82 7.42 12.3 15.75 19.82 22.47 8 7.15 10.91 15.66 8.4 26.07-2.62 10.88-5.82 23.05-10 33.42-3.38 8.43-6.75 18-9.34 26.79-3.07 10.43-6.7 20.67-10.25 30.94-5.76 16.7-12.31 33.11-19 49.45-3.51 8.55-3.14 27.55-10.76 33.07-1.58-4.39-1.76-10.24-1.56-16.17zm-2.15-274.52c-.19-9.8-.06-19.68.22-29.41.11-4-.32-8.16 0-12.22.41-4.89.12-5.18 4.1-2.77 6.46 3.9 12.48 14.24 17.8 19.91 2.72 2.9 4.54 6.59 7.44 9.43 7.74 7.6 12.41 18 20.14 25.29 5.22 4.94 14.92 10.38 17.07 17.66 2.09 7.05-5.63 13.25-9.49 17.52-4.79 5.33-9 15.37-16.5 17.46-9.42 2.63-20-12.42-26.32-17.68-5.21-4.31-11.8-8.89-13.79-15.73-1.2-4.15.25-8.66 0-13-.4-5.4-.62-10.92-.72-16.46zM411.6 844.83c-4.41.31-3.51 2.71-6.28-1.47-1.74-2.64-1.35-6-.45-8.79 2-6.39 7.54-13.84 11.62-18.9s8-11.43 14-12.49c6.39-1.12 13-.11 19.52-.4 2.55-.11 9.32-2.3 11.42-.83 2.48 1.74 1.15 1.07-.53 3.75-3.8 6.09-10.06 10.07-14.71 15.51s-9.11 8.43-14.7 12.48c-5.34 3.89-12.86 10.66-19.89 11.14zm2.31 13.63c2.06-6.15 4.71-2.18 4-1.31.39-.46-5.34 5.31-4 1.31zm-3.22-3.1a3.35 3.35 0 0 1-1.38 3.5c-5.82.97 2.33-8.3 1.38-3.5zm-9.24-75.06a36 36 0 0 1-2.33 6.73c-3.11 2-.42-1.13-3.63-1.48-2.87-.3-6.5 1.89-9.1.9-.86-.34-4.08-3.57-4.3-4.68-.55-2.83 1.75-2.92 2.09-5.58.74-5.81-7.22-5.14-9.33-9.35-2.79-5.56 16.4-12.38 21.74-11.46 4.57.79 5.6 3.68 6.24 8.6a40.4 40.4 0 0 1 .44 7.29c-.27 2.81-2.19 6.31-1.82 9.03zm-31.9-96.86c-.59-6.71-.82-6.92 3.34-10.82a76.22 76.22 0 0 0 7.38-7.33c5.76-7.09 5.53-15.66 1.52-23.6-2.24-4.43-7.33-6.3-9.65-10.12-1.91-3.17-1.45-6.64-1.37-10.35.2-8.88 2.19-11.32 9.81-5.15 14 11.38 20.69 30.64 15.84 48-2.12 7.63-5.95 15-11.9 20.35-2.73 2.48-6 5.91-9.75 7.13-7.29 2.45-4.7-2.18-5.22-8.11zm.4-20.28c-.94-5.56 0-13.22.29-19.06.12-2.09-.39-5.92 1.82-6.69 2.69-.95 6.76 3.93 7.69 5.77 2.42 4.79 1.66 11.62-.05 16.41-1.14 3.21-2.91 7.87-6.78 8.82-4.92 1.23-2.23-.89-2.92-5.25zm-1.13 47.31c.71-4.08-.91-9.82 1.7-12.68 2.86-3.14 8.89-4.64 12.31-7.32A45.34 45.34 0 0 0 397 671.58c8.73-20.54 3.27-44.17-15.07-58.06-3.23-2.45-9.42-4-10.78-7.6-.53-1.38-.29-10.87.54-12.3 4-6.91 21.8 10.41 25.72 14.39 16.48 16.73 15.61 40.5 12.3 61.61-2.05 13-8.49 18.77-16.88 28-4.61 5.08-7 9.49-13.48 12.82-2.48 1.3-11.68 6.62-10.53.03zm-.06 15.45c1.26-5.41-.52-5.81 4.59-9a61.22 61.22 0 0 1 6.33-3.43 51.22 51.22 0 0 0 18.22-13.77c9.07-10.4 14.48-20 17.56-33.56 5.85-25.85-5.5-55.42-27-71-4.9-3.57-14.18-4.89-16.46-10.58-.64-1.59 0-9.48.88-10.06 1.58-1 3.94 1 5.64 1.71a85.23 85.23 0 0 1 14.26 8.22c5.9 4 9.27 8.3 14.41 13.19 20 19 26.23 52.08 17.76 78.17a91.64 91.64 0 0 1-23 37.71c-5.16 5.09-11.81 8.57-17.9 12-4.49 2.42-17.66 10.6-15.29.4zm17.15-203.1c-.21-1.49-5.75-5.5-1.52-5.1 1.75.16 5.46 3.24 6.83 4.39 2.95 2.48 13.72 8.65 5.09 10.62-2.34.53-3.57-1.82-6.16-.09-1.88 1.26-1.36 5.32-3.76 5.73-1.83.3-4.56-4-4.33-5.27s3.4-3 4-4.61.09-3.98-.15-5.67zm36.82 9.71c7.22-3.5 3.14 10.05 3.81 12.59 1 3.89 8.17 8 1.6 12.24-.93.6-2.23-1.08-3.39-.59a23.81 23.81 0 0 0-3.72 2.1c-3.13 2-2.5 3.76-4.33 5.78-5.46 6-7.81-.83-13.46-3.16-2.39-1-6.34 0-8-.92-4.94-2.69-.95-6.15-.38-9.06a9 9 0 0 0-.33-5.85c-.67-1.4-3.6-2.83-3.86-3.55-.7-2-1-2.9 1-5.23 3.4-3.89 1.35.07 5.2-.31 3.28-.32 4.32-4 7.7-4.37 1.72-.2 2.58 1.38 4.16 1.61a16.62 16.62 0 0 0 5.24-.09c.49 0 1.86-1.32 2.72-1.52 2.49-.6 2.62 1.99 6.04.33zm-4.17-4.26c1.86-2.76 5.55-4.94 8.21-6.85.88 1.57 7.11 10.73 4.67 12-1.41.71-5.51-4.8-6.75-5 .09-.05-8.22 2.98-6.13-.15zm-31 17.18c8.16 1 1.21 6 .48 8.89-.67 2.67 3.87 9.78 6.54 10.68s3.57-1.73 6.27-1.66c3.93.11 3.21 3.46 5.2 5.31 1.55 1.44 0 2.19 2.93 2.91 1.17.28 6-1.1 7.23-1.48 2.33-.72 2.17.87 4.08-1.73 2.69-3.64-.56-6.29 5.21-7.64 4.11-1 1.06 2.51 4.82.36.17-.1 3.22-5.15 3.46-5.75 3.19-7.84-7-7-4.63-12.93 3.63-9 9.63 7 10.15 9.28.59 2.58-.1 13.3-1.49 15.4-4.85 7.35-10.31-2.06-11.36 9.4-.14 1.54 1.18 12.33.15 13.12-2.74 2.08-7.33-4.64-9.92-6.61-6.86-5.23-14.56-10.62-22.54-13.89-4.46-1.83-8.56-3.07-8.91-8a13.59 13.59 0 0 0 1.36-5.56 6.88 6.88 0 0 0-2.5-3.84c.01-1.44.91-6.58 3.47-6.26zM436.29 583c.52 4.15-.39 11.58-1.67 15.57-7.56-4-5.52-13.3-4.47-20.8.45-3.22-.84-5.18 3.6-5.09 6.61.09 2 5.98 2.54 10.32zm-51-15.33c9.5 6.9 21.39 10.72 30.39 18.53 7.69 6.67 15.12 13.5 20.36 22.39 5.84 9.92 11.34 20.75 19 29.46 1.6 1.83 2.19 3.24 4.05 4.88.65.58 6.13 3.64 6.25 3.9 1.6 3.53-11.68 2-14.21 1.62-12-1.56-19.25-10.15-22.58-20.87a97 97 0 0 0-14.53-28c-7-9.55-16-15.72-25.7-22.09-3.64-2.39-13.13-4.48-15.34-7.75-6.36-9.37 9.08-4.45 12.31-2.1zm56-61.24c1.71-2.34 9-12.32 12-12.32 2 0 8.75 6.79 9.29 8.41 2 5.9-3.31 3.68-8.17 4.19-1.05.08-14.79 2-13.1-.31zm37.31 24.13c-.33-4.09 1.75-5.28 4.38-3.53s2.42 5.61 2.63 8.4c.43 5.5 1.05 11.58-1 16.71a8.34 8.34 0 0 0-3.42 2.86 9.42 9.42 0 0 0 .26 4.19c-.25 2.06-.16 4-.23 6.13-.06 1.91.63 4.84-.38 6.59-1.39 2.41-4.39 2-5.66 3.78-4.05 5.66-1 9.18 2.48 13.52 3.18 4 3.05 6.06 3.64 11.75.64 6.24-1.06 12.37-.69 18.5.33 5.54.89 9.46-3.27 13.82-3.87 4.07-1.86 3.46-3.36-.19-1.84-4.46-1.25-10-1.74-14.8-1-10-1.3-19.81-2.06-29.84s-4-21.61-3-31.71c.45-4.21 3-7.93 4.8-11.92s7.02-9.61 6.64-14.29zm19.93 11.74c.68 2.81-1.08 5.93-1 8.81a55.53 55.53 0 0 0 1.31 8.69 33.4 33.4 0 0 0 2.66 8.11c.57 1.07 5.1 4.41 4.17 5.93-.52.85-8.4.27-9-.16-2.13-1.54-1.72-4.69-2-7.48-.21-2.09-.26-4.53-.67-6.58-.86-4.31-3.32-4.88-4.7-8.8-1-2.82-.75-14 1.27-15.2-.81.48 7.75-.07 7.53-.2 2.06 1.19-.1 4.69.45 6.85zm3.13.51c-1.34-4 .11-12 4.07-14.31 1.55 1.75-1.17 11.64-1.39 14.85-.39 5.5-.31 12.95 2.1 18 4.86 10.19 24.45 17.93 24.1 30.21-.21 7.3-3 1.69-5.08-1.68-2.84-4.6-6.45-7.93-10.28-11.84-5.44-5.54-9.2-8.61-11.59-16.23a37.28 37.28 0 0 1-1.76-8.55c-.31-2.71.58-8.26-.15-10.48zM508 538c-.82-3.25 4.25.78 4.48 1 1.69 2 1.94 5.48.47 7.27-7.27 8.9-4.5-6.54-4.95-8.27zm2-10.14c-.62-5.38 18.38-17.52 21.93-20.71 2.24-2 16.37-18.64 16.69-18.45-.15 5.71 3.65 17.13.69 22.36-2.68 4.73-11.1 5.33-13.89 11.76-2.93 6.77.87 14.31 6.66 18.25 5.13 3.49 5.38.48 6 6 .27 2.33-1.54 3-.41 5.42-7.59-.17-15.37-5.92-18.86-12.44-2.58-4.82-2.35-9.92-2.35-15.32 0-3.56-.41-8.88-3.36-2.07-3.47 8 2.72 20.58 8.55 25.58 2.82 2.42 5.87 5.73 9.51 7 4.22 1.49 5.49-.59 6.83 4.31.81 3-.29 6.77-.47 9-.32 4.13 2.81 1.84.06 5.31-2 2.45-4 .71-6.32.24-.72-.15-5.38-.79-5.93-1.44-2.08-2.43.76-.56.07-4.32-.76-4.21-1.28-6.2-6.22-8.25-4.54-1.89-7 .74-10.29-.82-5.61-2.64-5.16-6.65-3.48-10.73s2-3 .94-7.66c-.29-1.32-.86-5-1.55-5.91s-3.11-1.1-3.33-1.51a3.2 3.2 0 0 1-2.32-1.07 37 37 0 0 1 .85-4.56zm22.31 40.65c-6.93 18-27.49-12.49-23.67-15.42 1-.81 9.37 11.69 11.33 12 2.33.35 4.48-2.51 7.07-1.9 1.38.27 5.84 3.88 5.29 5.29zm-37 32.19c-1.78-10.21 2.57-9.51 10.41-10 4.4-.3 18.63-3.09 18.14 4.59-.31 4.78-12.46 6.12-16.48 8.11-1.52.75-7.89 6.44-9.28 6.07-2.82-.85-2.32-6.47-2.73-8.8zm-.67-17.75c.43-2.73.16-4.31 2.24-5.65-.05 0 8.08-.46 8.45-.4 2.09.34 14.88 6.83 13.83 9.67-.72 1.94-11.38.37-13.42.45-6.23.24-9.49 3.37-11.04-4.1zm-10.46 30.9c-1.05-3.93.69-8.6.62-12.55-.06-3.46-2.35-8.36-.9-11.73 1-2.29 1.81-3.85 5.36-3.09 4.52 1 2.3.58 2.92 4.83.55 3.78-.26 7.89 0 11.7.24 3.1 2 7.29 1.22 10.33-.48 1.84-5.14 8.21-7 8.37-4.18.35-1.4-5.21-2.16-7.89zm3.16-31.61c.07-2.1 2.11-.27 2.29-.28 1.01-.07-2.33 3.25-2.23.25zm3.71-23.7c1.57 2.8.66 10.2.14 13.15-.47 2.66.61 2.79-1.47 4.65s-4.65 1.44-5.74-.33c-2.06-3.49.42-29.48 7.13-17.5zm-10.23 25.43a1.73 1.73 0 0 1-.46 1.72c-4 2.27-5.59-9.6-.73-8.57 2.62.52.79 5.14 1.25 6.82zm-12.55 67.32c4.88-.24 12.36-7.78 13.81-1.09.88 4-.78 3.9-3.62 4.67-1.84.5-10.34-.44-12.1-2.13zm-1.1 5.71c2.35-.7 9.69.24 12.21.54 3.54.42 8.39.8 10.23 3.52 2.39 3.53.72 11.44.58 15.18-.1 2.7 1.43 13.33.62 15.08-2.11 4.49-9 2.86-13.63 2.49-3.95-.31-13 1-7.91 7.72 4.36 5.84 20.37-2.8 21.49 5 1.29 9-18 4.47-23.19 5-2.4.25-12.52 3-14.48 1.9-2.4-1.31-1.93-8.76-1.92-11.44.06-9.52.56-18.91.39-28.52-.05-2.51-1.34-12.37-.4-14 2.71-4.53 12.09-1.33 16.01-2.47zm26.94-13.46c.41 1.56.68 11.82-.05 12.5-1.26 1.17-5.8.58-7.12-.8-2-2.11-1.17-4.31-1.14-7.1 0-2.57.46-10.86 5-11.43 3.54-.45 2.61 4.14 3.31 6.82zm1 26.79c.67 2.64.79 8.5-.61 11-1.4-.23-1.61-18-.71-18.17 2.12-.43 1.07 6.23 1.31 7.16zm.75 27.39c.43 1.72 1.44 15.17-.76 15.56-2.64.48-1.51-14.8-1.58-16.7-.14-3.42-1.09-9.89 1.05-12.75 2.08 2.23.51 10.8 1.28 13.88zm.81-63.89c-.58-2 8.33-12 9.77-10.6-.2-.2-5.79 14-6.54 15.2-4.21 6.78-2.12-.74-3.24-4.61zm.76 93.58c-1 3.82-4.39 1.05-4.29-1.75.17-5.45 5.77-3.76 4.28 1.74zm20.49 4.83c2.43-1.27 17.84-.76 19.22 1.36 2.77 4.23-7 3.16-8.32 3.24-11.37.62-23.31 1.45-34.67 1.78-22.58.67-45.3.34-67.67 2.13a152.82 152.82 0 0 1-18.41.39c-6.52-.27-7.86-4.74-.7-6.38 6.06-1.39 14.07-.14 20.42-.84 6.86-.77 13.65.21 20.52-.11 10.33-.48 21.37-.38 31.85-1.32 6.17-.56 12.24.91 18.26.39 5.11-.46 14.88 1.78 19.49-.65zm-3.4-7.5c3.19-8.17 6.72-15.48 17.6-15.21 3.78.1 20.4 7.21 18.83 12-.91 2.76-3.7 1.09-6 0-5.16-2.36-6.88-5.76-12.7-6-3.18-.15-8.29.37-11 2.71-2.07 1.81-2.77 8.83-5.17 9.72-1.42.46-1.79-2.67-1.57-3.23zm37 46c.53 2 .9 9.47-.48 11-2.75 3.08-2.77-6.55-2.69-7.6.2-2.91 2.74-7.61-.6-9.47-2.33-1.29-5.82.88-5.74 3.47 0 1.29 2.58 2.22 3.23 3.68s1.67 8.9.7 10.44c-1.95 3.08-5-.16-6.69 1.9-2.8 3.35 9.07 2.19 9.38 2.31 9.35 3.56-6.26 4.46-8.9 4.85-2 .29-6.4 2.48-8.19 1.69-2.83-1.26-3.52-6.63-4-9.48-1.44-8.81-4.36-17.74 5.78-20.3a44.62 44.62 0 0 1 11.25-1.5c8.76.04 5.11 2.27 6.9 8.98zm-15.94-11c-5 1.43-10.5 2.41-15.38 4.26-2.5.95-5.13 3.24-7.81 3.54-4.88.54-3.37-.48-6.1-3.67s-4.54-6.19-8.8-6.9c-7.76-1.28-8 5.73-13.69 8.33-11.46 5.2-17.18-9.94-28-7.41-11.18 2.6-9.83 20.27.39 22.88 7.63 2 26.77-14 31.79-2.15 4.28 10.1-19.9 8.08-25.18 8-11.54-.19-22.28-4.16-19.59-18 2.28-11.66 11.63-14.63 22.3-15.85 13-1.49 25.8-1.22 38.89-1 6.68.09 13.09 0 19.73 1 2.62.4 6 .38 8.41 1.67.74.41 6.74 4.21 2.99 5.28zm-36.63 8.94c-2.4-3.28-10.06-2.41-9.93-4.5.27-4.47 8.22-3.67 10.48-2.39 1.85 1.06 5.24 4.72 5.1 7.29-.07 1.2-3.71 6.43-5.54 4.83a6.83 6.83 0 0 0-.16-5.25zm-48-.73c-.49-9.6 16.88-6.17 15.28-3-.66 1.35-6.13 0-7.68 1.77-4.92 5.67 5.19 6.74 5.61 8.64.71 3.21-6.66 2.55-8.56 1.73-4.01-1.68-4.52-5.09-4.72-9.16zM461.8 772c-2.95-.46-.84-2.72.38-3.51 1.92-1.22 6.72 0 8.87 0 6.45.24 13.69-1.22 20-.18 10.62 1.76-1 3.85-5.82 4-7.42.41-16.23.81-23.43-.31zm31.12 3.14q2.58-1.61 4.13.13c.95 3.28-6.95 1.2-4.13-.14zM413 747c-.7 1.51-4.6-.56-4.49-1.76.08-.61 6.36-2.24 4.49 1.76zm-22 3c.1.1 3.45 1 3.17 1.68 0 0-7.48 2.32-7.55 2.3-2.07-.6-3.87-3.72-5.13-5.74-2.09-3.33-4.94-7.23.59-6.68 4.26.36 6.06 5.51 8.92 8.38zm-.2-5c1-.32 1.6.15 1.73 1.43-.73.33-2.48-.2-1.73-1.43zm1.39-5.17c-4.27-1.92-20.26.33-22.27-2-4.63-5.23 12.55-3.57 15.05-3.22 14.11 2 24.52-8.77 32.31-19.15 1.76-2.34 5.53-6.93 8.87-6.2 4.13.9 2.31 4.51 2.36 7.87.1 6 3 13-4.47 14.28-5.36.9-11.06-.31-16.28.48a13.46 13.46 0 0 0-8.68 4.64c-2.72 3.15-1.68 5.66-6.89 3.32zm33.29-56.06c.79-.85 1.45-5.33 2.52-5.39 1.92-.11 1.21 18.81 1.06 20.3-.69 6.63-5.71 7.47-10.48 11.76-8.1 7.26-21.09 27.66-34.63 19.74 8.69-7 18.06-12.05 25.94-20 3.36-3.37 5.33-7.67 7.88-11.46 1.5-2.23 3-4.1 4.32-6.43s1.83-6.84 3.39-8.5zm7.14-.45c-2.7-5.82-.25-16-.41-22.09-.12-4.46 1.69-14-.72-18 5.21-2.17 9.23 7.52 9.95 10.75 1.26 5.77 0 11.89-.11 17.71-.19 13.75-.09 27.74.12 41.34 0 2.57 1.45 15.64-.24 17.2-6.36 5.88-9-3.2-9-7.59 0-6.15.15-12 .12-18.17 0-3.29.17-6.77 0-10-.36-1.77-.64-3.56-.85-5.35a11.36 11.36 0 0 0 1.14-5.78zm12.48-1c-1.72-4.19-.19-9.23-.14-13.52s-1-9.34-.14-13.44c1.1-5 1.24-4.9 7-4.05 1.17.17 13.12.06 13.13 1.11 0 1.9-8.09 2-9.37 2.25-6.19 1.3-7.3 2.5-7.53 9-.38 10.33-.58 21.84.41 32.17.31 3.16.39 23.32-4.07 16.3-.59-.92.23-12.5.15-14.43a63.19 63.19 0 0 1-.27-7.87c.17-2.26 1.73-5.32.83-7.54zm6 41c4.06-.61 44.43-6 38.75 4.24-1.78 3.19-15.32 2.1-19 2.15-4.86.06-9.77.24-14.6.15-2.29 0-3.66 1.51-5.73-.62-1.03-1.09-1.94-5.53.62-5.92zm-4.06 3.78c-1.82 8.06-4.45-1.91-1.54-3.09 1.18.5 1.69 1.53 1.58 3.09zm43.07-28.65c-.55 3.14-18.33 2.94-17-.33.44-1.12 17.63-3.03 17.04.33zm-121.32 54.7c1.48-.48 1.45 2.17.63 2.61s-2.36-2.04-.59-2.61zm1 9.39c.87-1.45 5.13-5.19 5.34-6.66.56-4.08.11-1.08-.69-3.39-.38-1.09-12-13.48-1.67-12 2.77.41 8.83 12.89 7.66 15.73-.89 2.22-10.1 5.41-10.64 6.32zm33.29-10.63c-.75-3.95-7.27-8.33 2.8-4.42 5 1.93 12.56 7.5 14.58 12.56-2.04 1.44-16.89-5.54-17.38-8.14zm2.45 24.88c3.88-6-3.85-19.36 5-17.29 9.13 2.13 15.74 7.45 16.78 16.41a46.87 46.87 0 0 1-.51 13.05c-.93 6.21-1 6.65-6.78 3.2-3.35-2-6.09-4.83-9.34-6.85s-8.92-2.71-5.15-8.52zM456.71 815c3.08-4.81 8.83-7.28 12.61-11.26 2.92-3.07 5-6.35 8.49-9.17 5.67-4.54 6.7-1 10.09 4.37 1.52 2.42 6.42 10.62 6.15 13.75-.35 4-7.9 7.82-10 9.69-3.58 3.2-6.48 6.87-10.26 10-.43.36-4.2 4.86-4.62 4.82-3-.26-4.38-6.25-5.45-8.39-1.34-2.66-8.65-11.24-7.01-13.81zm37.16-11c-1-5.06-8.45-11-6.8-16.48 1-3.45 6.61-5.74 9.27-7.43 4-2.51 21.64-14.52 25.25-11.95 2.23 1.58 3.27 13.84 3.57 17 .22 2.27 1.23 5.23.33 7.57-1.56 4.06-2.61 2.66-6.23 4.66a176.13 176.13 0 0 0-15.26 9.18c-3.95 2.72-8.76 4.52-10.13-2.55zm19.83.27c6.1-4.24 34.23-16.33 37.87-6.84 3.81 9.93-13 6.83-18.48 7.21-4.25.28-8.44 1.11-12.75 1.34-1.23.02-9.55.28-6.64-1.74zm37.51-61.38c1.44 3.23 1.41 13.94-1.68 15.6h-7c-2.08-.81-3.06-3-4.86-4.42-4.23-3.43-6.35-2.57-6.1-8.48.27-6.52.84-3.11 5.07-5.69 1.52-.92 4-3.12 3.92-5.19-.13-7.86-12.73-4.49-17-6.11-2.47-.94-3.41 0-2-4.44 1.28-4 4.31-5 8.07-5.51 6.59-.87 9.56 3.48 14.74 6.39 3.59 2 4.92 1.45 6.41 4.57 1.96 3.95-1.26 9.39.43 13.25zm.25-30.12c0 2.75-8.05-2.12-9.18-2.63-6.79-3.07-13.65-5.54-20.56-1.41a22.31 22.31 0 0 0-9.22 10.77c-1.84 4.54-1.45 13.26-9.27 9.7-4.44-2-3.34-9.19-3.72-14.29-.43-5.84-.12-11.72-.24-17.52-.11-5.32-.3-10.21-.23-15.5.06-4.8-2.51-11-.61-15.55 3.69 5.47 4.8 11.75 8.87 17.07a53.53 53.53 0 0 0 13.8 12.82 42 42 0 0 0 16.23 6.28c2.69.41 8.3-.32 10.6.87 3.46 1.78 3.55 4.84 3.53 9.36zm-39.17-61.49c-2.25-5.22 6.31-18.73 9.17-22 5.57-6.4 14.85-11.19 23.39-11.74 4.91-.32 8.13 3.23 3.33 7-3.2 2.51-10.57 2.75-14.28 4.78-9.48 5.16-14.06 16.73-13.74 27.22.24 7.93 6.8 18.1 14 22 3.9 2.14 10.27.91 13.69 3 5.06 3.15 3.21 8.67-2.77 8.45-8.82-.31-17.72-6.44-23.08-12.29-3.76-4.1-6-6.7-7.61-12-1.24-4.23-.49-10.7-2.1-14.45zm20.58 5.85c1.9 3.77 2.78 6.81 6.17 9.64 3 2.48 6.6 2.29 9.41 4.36 1.59 1.18 3.89 4.34 1.93 6.74-2.42 3-7.49-.33-10.35-1.23-12.11-3.82-19.57-17.73-15.29-30.29 1.62-4.77 4.16-10.71 8.64-13.6 2.78-1.79 13.64-6.63 16.49-3.41 5.21 5.91-5.21 7.65-8 9.32-6 3.5-12.77 10.97-9 18.44zm18-5.09c-1.88 5.39 4.19 15.42-5.26 14.81-4.86-.31-8.22-5.12-9.24-9.41-1.28-5.33.29-12.52 5.22-15.65 2.11-1.35 6.71-3 8.52-.65.43.55.97 10.23.74 10.86zm-.35-39.56c-.28 2.43-11 2.71-13.13 3.33a36.57 36.57 0 0 0-11.08 5.31c-6.38 4.58-13.18 12.35-15.69 20.08-6.19 19.09 4 39.59 21.57 48.56a27.2 27.2 0 0 0 10.68 2.64c3.28.24 13.46 1.63 6.89 7.15s-25.64-4.76-31.12-8.55c-16.91-11.68-22.54-37.35-14.13-55.09 4.75-10 10.84-18.06 20.66-23.54 4.33-2.45 26.66-11.37 25.33.08zm-1.72-8.53c-2.55-1.11-10.43.1-13 .56-4.44.76-8.43 3.17-12.42 5-6.41 3-11.53 6.53-17.42 10.34A106.58 106.58 0 0 0 489 633.37c-1 1-14.78 16.58-17.12 11.43-.63-1.4 15.05-17.52 16.55-19.66a70.32 70.32 0 0 1 18-17.55c7.18-4.9 16.62-6.53 24.9-7.92 3.91-.66 10.54-2.35 14.48-1.2 1.32.39 2.26-.42 3.34.89s2.27 4.55-.37 4.56zm1.28-10.28c-.07 1.21-20.72 6-16.5-2.53 1-1.93 5.75-1.5 7.72-1.7 4.46-.44 9.14-1.63 8.76 4.2zm.1-10.78c-.08 4.35-10.45 4.28-13.73 3.61-4.16-.85-3.22-.22-5.74-3.31-1.16-1.43-3.94-4.53-2.6-6.47 1.13-1.62 11.79.72 13.44.91 4.62.51 7.99-.11 8.61 5.23zm-19.13-143.57c3.75-1.83 6.73-6.5 9.6-9.4 3.41-3.45 5.63-8.85 8.43-4.12 2.08 3.51.21 10.71 0 14.58-.37 6.6.79 13 .63 19.66-.29 11.93.61 21.19-7.36 30.66-3.29 3.91-6.29 8.59-10.13 12s-8.07 6.05-11.59 9.47a144.7 144.7 0 0 1-20.45 17c-5.66 3.71-7.77 3.91-12.31-1.45-2.91-3.43-5.68-6.72-8.61-10.05-6-6.83-12.32-14.1-18.16-21.08-5.24-6.25-.42-7.83 5.77-10.46 4.32-1.83 7.7-4.36 11.65-6.7 9.49-5.64 19.1-11.2 27.89-17.92 4.84-3.7 9.27-8 14.14-11.67 3.57-2.74 6.65-8.64 10.5-10.52zm-154 2.16c3.28-.62 10.4 7.74 13.45 9 5.55 2.28 13.79 3.71 19.69 4.46 11.18 1.4 24.5-1 34.87-4.19 12.06-3.73 25.66-3.9 38-5.69 10.54-1.53 20.6-4.85 30.91-6.82 2.81-.54 5.35-.47 8-1.29 1.18-.36 6-3.83 7.4-2.93 2.5 1.65-5.83 6-6.85 6.86-8.59 6.86-17.45 14.75-26.51 21.92-7.18 5.68-15.78 12.06-24.17 15.79-2.82 1.26-5.51 2.08-8.23 3.6-2.29 1.27-5.23 4.8-7.53 5.45-5.69 1.6-11.38-4.14-16.42-6.59-12.08-5.86-24.17-12.31-35.76-19.17-5.14-3-10.93-6.19-15.71-9.95-1.19-.93-12.95-10.11-11.19-10.45zm-2.49 50.36c1.72-4.26 1.18-12.79 1.35-17.58.23-6.23 0-12 .58-18.24.72-7.75.47-8.08 7.23-2.56 3.33 2.73 7.95 5 11.62 7.1 7.72 4.45 15.19 9.09 23.14 13.75 4.89 2.87 10.38 5.1 15.44 7.94 3.89 2.18 10.3 4 13.55 6.69 5.9 4.94-8.84 14.31-12.92 18.6-3.46 3.65-7.63 6.89-11 10.71-2.76 3.15-6.37 9.55-10.3 11.41-7.85 3.72-20.44-10.6-26.41-14.6-3.57-2.38-9.84-4.92-11.75-9.06-.72-1.57-.41-3.89-.46-5.53-.07-1.47-.54-7.56-.1-8.63zm1.22 19c1.68.78 4.17 3.15 4.6 5-5.99 2.97-6.24-5.78-4.63-5.04zm-.86 8.46c4.58 1.48 10.22 3.52 7.77 9.09-1.41 3.19-8.49 3.32-6.66 7.55s9.51 1.07 7.6 8.47c-.7 2.72-4.65 3.31-5.13 4.89-1.22 4.06-.39.66 1.13 3.83.9 1.89 5.6 4 2.8 7-1.72 1.84-7.38.49-8.65-1.12-2-2.5-.81-9.78-1.08-12.85-.46-5.28.86-10.61 1-15.86.01-2.03-.65-11.64 1.19-11.04zM361 453.57a23.91 23.91 0 0 1 6.56-7.62c1.19-1 2.47-4.54 4.59-3.37 1.61.89 1.22 6.05 1.18 7.45-.15 6.93-1.16 13.5-.93 20.39a111.54 111.54 0 0 1-.1 12.13 90.78 90.78 0 0 1-1.9 14.28 24 24 0 0 1-2.88 6.07 29 29 0 0 1-9.78 9.41 30.9 30.9 0 0 0-8 6.68c-3 3.37-6.81 7.3-10.59 9.77-2.84 1.85-5.31 0-7.8-1.74-4.44-3.11-9.32-7-12.72-11.23-3.94-4.94-3.54-7.48 0-12.14 2.45-3.25 4.77-6.49 7.28-9.67s5.82-5.74 8.33-9c3.56-4.58 6.64-9.51 10.24-14.05 2.27-2.86 5.08-6 7.52-8.78s7.34-5.4 9-8.58zm2.38 349c-42.07 2.37-85.07 4.37-127.28 4.9-22 .27-43.57 2.44-65.75 1.21-4.79-.27-9.93.16-14.7-.64-5.51-.93-6.26-1.7-6-6.59.38-9.09 3-19.12 4.95-28 .86-3.89 3-6.78 3.36-9.28a146.58 146.58 0 0 1 3.74-17.13c1.17-4.22 3.54-9.46 4.39-13.22.21-.91 0-3.68.33-5.19.47-1.94 3-5.38 3.12-7-2.46-2.08 4.42-20 5.63-24.28 2.27-8 5.74-16.14 6.85-24.4a88.92 88.92 0 0 1 7.15-24.56c3.09-6.81 4.51-14.67 7.24-21.69 1.78-4.58 3.59-8.89 5.2-13.58 1.18-3.44 1.67-11.61 4.74-13.42-.59.35.06-4.26.1-4.43a53.38 53.38 0 0 1 2.76-7.32 164.1 164.1 0 0 0 6.2-17.66c.88-3 2.69-5.34 3.72-8.27 1.43-4 2.63-8.21 4.16-12.19 1.64-4.26 5.28-9.79 6.29-13a157.78 157.78 0 0 1 8.08-19.53c5.43-10.86 14.29-17.81 25.35-23.27 5.61-2.77 14.39-7.71 19.74-10.41 8.22-4.15 15.35-6.53 23-10.89 13.56-7.69 30.47-13.45 45.25-21.12 1.36-.71 7.55-3.55 7.66-1.1 0 .82-5.84 7.21-6.64 8.13-1.58 1.83-3.67 3.44-5.41 5.18-6.11 6.11-11.57 13-17.14 19.58-5.37 6.38-10.66 12.93-14.55 20.37-2.16 4.14-3.77 7.09-.29 12 2.61 3.66 7.27 7.34 10.68 10.19 5.61 4.7 9.55 5.83 2.78 11.62-3.92 3.36-7.24 6.81-11 10.41a98.45 98.45 0 0 0-9.87 11.32l-1.7 2.17c-.22.28-3.51 3.07-2.89 1.9-2.45 4.58-1.66 18.56-.39 24 1.08 4.6 2.41 9.14 3.79 13.67.51 1.67.68 3.42 1.25 5.05 2.4 6.83 5 14 6.59 21.07.33 1.46.09 3.72.53 5 .3.88 1.06-.92 1.64.78a38.33 38.33 0 0 1 1.79 10.39c0-.53 2 4 2.07 4.11a41.13 41.13 0 0 1 2.86 6.71c.66 2.12 2.06 9.62 3.12 12.24 2.06 5.13 3.59 11.81 6.54 16.44 1.39 2.18 2.18 3.11 2.85 6 1.31 5.56 2.85 10.88 4.57 16.3 1.14 3.6 1.71 8 2.36 9.86.83 2.39 2.57 4.41 3.42 6.77.92 2.58 1.27 5.33 2.46 7.77s2.5 4.67 3.42 7.14a85.12 85.12 0 0 1 3.25 8.89c.62 2.54 2 4.71 2.47 7.29.47 2.73 1.79 5.26 2.53 8 1.18 4.27 4.13 7.91 5.07 12.12.64 2.71 2.07 29.44-1.43 29.63zm3.43-161.37q-.44 5-.74 10c-.14 2.3-.44 4.68-.35 7 .06 1.47.58 2.81.65 4.28.21 4.57-.63 9.4-.92 14-.28 4.42-.53 8.85-.53 13.29 0 7.55.55 15.6.25 23.73-.2 5.2 0 11.63-.22 17.41-.21 7 2.32 18.06 0 24.53-2.08 5.86-3.47-1.42-4.68-5.33-1.84-5.5-5.1-9.48-6.51-15.16a405.39 405.39 0 0 0-22.7-65.15c-3.13-7.06-4.3-14.81-7.36-21.93a101.57 101.57 0 0 1-4.09-13c-2-7.58-6.21-14.68-7.56-22.43-.58-3.27-.27-6.43-1.08-9.72-.92-3.72-3.65-6.76-4.3-10.52-.15-.84 0-4-.41-6.67-.6-4.06-2.9-8.86-2.44-12.84.36-3.11 4-8.74 6-11.29 10.85-14.18 25.63-27.18 39.71-38.74 3.43-2.82 6.53-6 9.91-8.92 1.46-1.25 10.55-9.4 11.3-4.74a7.34 7.34 0 0 1-.24 2.59c-1 5.15-.4 10.47-.08 15.71.7 11.55-.28 23.3-.86 34.84-.61 12.1-.35 24.25-1.26 36.43-.46 6.21-.53 12.44-.72 18.57a72 72 0 0 0 .26 10c.37 3.3-.35 6.71-.68 10-.1 1.39-.23 2.75-.34 4.1zm17.43 160.3c-2.5 1.21-12.25 2-14.64-.15-1.92-1.74-1.42-9.64-1.61-12.32-.26-3.82-1.3-11 1-14.41s9.4-5.88 11-.49c1.39 4.59-4.74 5.2-.71 10.69a18.78 18.78 0 0 0 6.25 4.39c3 1 8.51-1.8 9.22 3.52 1.01 7.43-6.75 7.01-10.5 8.81zm0 14.42c3.5-4.23 5.42-9.54 10-12.7.5.35 0 6.52.77 8.3 1.13 2.54 3.31 5.18 6.09 5.85 7.54 1.81 13.53-7.11 10.73-13.2-1.21-2.63-2.2-4.27-4.85-5.48a9.07 9.07 0 0 0-5.32-.73c-2.25.47-3.26 2.92-4.86 3.23-3.69.72-.92-2.9.4-5.34s4.41-8.89 7.27-9.59c2.27-.55 18.13 9.88 18.85 12.3 1.46 4.9-7.25 13.09-10 16.62-2.27 2.88-7.35 12.12-9.79 12.62-2.93.63-19.77-11.29-19.31-11.8zm19.08-2.9c.36 1.05-6.78-1.72-5.62-6.46 2.58-10.56 4.98 4.67 5.6 6.5zm1.57-8c-3.84-3.47 9.41-2.15 4.4 5.5-3.63 5.57-2.84-4-4.42-5.43zm-21.48 30.77c-2.18 1-3.35-8.2-3.16-9.55.83-5.86 3.82-4.73 8.09-3 3.24 1.31 10.3 4.1 12.15 6.94 1.1 1.69 2.76 9.63.28 10.49 1.07-.37-5.46-5.14-6.43-5.48-4.34-1.43-6.7-1.29-10.95.67zm18.13 11.47c-2.86 1.24-.24-3-.1-2.29.07.48 1.75 1.63.08 2.36zm-9.63-8.64c-.37-2.44 3.87 1.09 4 2.21a3.24 3.24 0 0 1-4.02-2.14zm.37 5.71c-1.45 2.7-9.32-4.53-6.17-5.21 1.24-.2 6.78 4.1 6.15 5.28zm3.29 15.46c-3.36-.16-13.14-9.72-9.81-12.26 6.09-4.53 11.09 12.4 9.79 12.33zm33.43 5c-6.28 1.08-20.2 3.35-25.82-1.22-1.26-1-7.2-9.89-6.42-11.6 1.33-2.93 8.25-1.73 11.46-1.73-1.78 3.18-4.41 3.53-3.87 7.41.61 4.48 4.2 5.74 8.07 5.63 3.15-.1 7.24-1.48 8.37-4.89 1.39-4.21-1.26-4.48-3.53-7.62-1-1.43-2.81-1.19-2.28-3 .46-1.53 2.93-2.31 4.38-2.2 3.18.23 4.1 3.43 5.55 6.14 1.25 2.45 9.79 12.16 4.09 13.14zm6.09-4c-2.59-4.76-6.72-8-8.81-13.29-2.59-6.62 3.45-8.22 8.83-12.43 4.21-3.29 8.86-6.13 12.69-9.9 3.56-3.51 3.7-7 8-3.13 3 2.75 4.14 8.28 6.15 11.65 4.27 7.18 4.86 6.24-2.09 11.81-3.03 2.5-22.37 19.85-24.79 15.38zm32.29 67.38c-4.71 1.94-14.54-.1-20.08.09-2.85.1-17.19.2-19-1.82-1-1.08.24-6.53.24-7.89a64.29 64.29 0 0 1 .15-8.67c1-7.6 2.27-15.61 3.88-23.05a142 142 0 0 1 5.43-18.27c2.18-5.85 7.09-7.3 12.13-10.49 2.77-1.76 27.69-23.2 27.52-23.39 2.49 2.83-5.6 17.29-6.59 20.7a217.7 217.7 0 0 0-5.59 24.51 111.72 111.72 0 0 0-1 23.5 71.38 71.38 0 0 0 1.82 13.93c.47 1.98 3.54 9.92 1.07 10.94zm317-35.34c-5.11 9.71-8.46 5.65-14.95-.16-5-4.5-10.63-7.82-15.77-12.18-10.39-8.83-21.54-18.09-33.39-24.71-5.11-2.85-9-7-14.23-9.91-6.73-3.78-13-7.81-20.45-10.26-14.3-4.61-28.35-10.02-43.65-12.61-2.45-.41-14-3.1-13 .54.72 2.47 17.23 3.48 19.79 4.25 11.74 3.51 24.36 5.31 35.43 10.57 25.49 12.09 47.82 29.25 70 46.39 5.71 4.41 11.72 9.1 17 13.81 4.12 3.66 11.2 9.24 5.47 15.23-5.26 5.5-10.92-2.33-15.15-5.49-5.19-3.89-11.05-7-16.28-10.72-9.65-6.88-18.82-12.81-28.9-18.93-12.22-7.42-25.43-16.3-38.91-21.23-7.24-2.64-14.9-3.3-22.24-5.48a54.86 54.86 0 0 0-11.69-2.16c-2.11-.19-9.59-2.71-11.37-1.68-6.85 4 10.09 5 11.8 5.23 7.73 1.14 15 3.63 22.58 5.16 15.48 3.15 27 12.47 41 20a339.36 339.36 0 0 1 29.91 18.1c5.71 3.85 35.18 18.7 31.23 27.83-5.4 12.48-27.81-8.82-34-12.27-12.5-7-24.31-14.61-37.5-20.85a161.47 161.47 0 0 0-16.38-6.67c-7-2.44-13.64-6.87-20.81-8.13-2.31-.41-18.06-4.22-17.47-.16.27 1.86 14.86 2.84 17.63 3.65 14.05 4.12 28 10.4 41 17.07 10.93 5.62 21.29 11.91 31.61 18.41 5.47 3.44 11 6.82 16.51 10.36 1.71 1.11 6.81 2.78 7.57 4.82 2.09 5.65-4.38 5.13-8 5-13.09-.55-26.21-9.47-38.22-14.39-6.3-2.59-12.79-5.68-19.22-8.36-6.75-2.8-13.55-6.32-20.43-8.26-11.55-3.25-23.83-7.67-35.89-7.33-7.27.21-14.42 4.64-21.65 5.45-2.48.27-6.24-.64-8.57.15-1.06.36-2.21 2.15-3.62 2.84-6.5 3.22-15.58 2.87-22.64 4.84-8 2.23-16.81 4.09-24.28 7.6-13.52 6.34-27.66 6.49-41.44 2.48-6.32-1.83-12.46-2.46-18.77-4.8a96.79 96.79 0 0 0-10.49-2.87c-3-.74-9.73-.86-12-2.43-3-2.05-3-8.78-3.22-12.61a40.06 40.06 0 0 1 .67-10.63c.33-1.48 2.43-4.47 2.42-6.06 0-2.47-1.79-1.73-1.83-4.2-.05-3.06 2.94-8.93 3.83-11.69 1.38-4.26 3.18-8.48 4.46-12.82 2.19-7.42 4-14.83 6.56-22.25 2.5-7.2 8.34-10.24 13.83-15 6.35-5.53 11.83-5.8 20.14-6.23 29.63-1.54 58.88-5.59 88.45-6.61 29-1 56 3.29 82.78 13.73 13.56 5.3 23.73 15.28 35.54 23.74 10.88 7.8 21.56 16.56 31.82 25.06 4 3.42 30.91 21.24 27.39 27.92z" transform="translate(-145.11 -29.44)"/><path class="cls-6" d="M454.68 269.63c12.35-5.95 19.85 1.65 29.68 7.71 5.59 3.45 18.62 15 25.9 11.37 4-2 .44-4.31-2.33-6.78-4.25-3.79-8.87-7.46-13.22-11.19-7.51-6.42-16-14.71-25.94-16.8-8.82-1.85-19.35 1.88-27.56 4.92-8.81 3.27-19.29 6.16-19.52 16.68-.27 12.15 10.37 16.8 20.48 20.7 10.9 4.21 22.74 3.26 33.49-1.32 3.17-1.36 5.34-3.21 9-3.23 2.07 0 5.46 2 7.23 1 5.11-2.82-6.29-4.44-8.16-5.72-4.88-3.35-7.74-8.28-13.06-11.24a42.1 42.1 0 0 0-10.19-4c-.15-.02-7.99-1.05-5.8-2.1zM445 294.45c-1.6-.14-6.85-2.05-7.45-3.47-.89-2.12 4.44-8.56 6.58-8 .31.02 1.93 11.57.87 11.47zm26-9.45c2 1.35 6.38 3 5.26 6-.39 1-8.9 3.42-10.28 3.2-4.18-.67-2.95-2.82-1.3-7.28 1.23-3.55.75-5.71 6.32-1.92zm-14.16-10c2.23.53 9.87-.44 11.14 2.63s-2.76.81-4.55.52c-3.22-.5-6.32-1.43-9.68-1.13-3.11.27-9.23 3.6-12.07 1.76 4.64-2.66 9.63-5.17 15.11-3.87zM431.87 384.58a57.33 57.33 0 0 1 10.82-1.05c2.54 0 10.5 3.72 12.09 2.26 4.39-4-13.56-6.83-16.14-7.48-3.93-1-7.57-2.49-11.42-3.78-2.73-.91-5.42-2.84-8.09-3.42-6.67-1.44-13.18 2.72-19.82 1.95-10-1.16-12.24-.51-21.16 5.12-2 1.27-11 3.81-9.8 7.16.38 1 9.78-1.86 11.39-1.85 8.05 0 16.07 2.78 24.13 2.71 8.56-.07 19.62-3.32 28-1.62zm-10.73-3.07c-4.41-2.18-15.89 1.09-21.19 1-1.58 0-17.12-1.2-17.36-2.36-1.34-6.38 20.91-3.81 23.93-4.29 4.57-.72 9-1.63 13.46-.41 2.65.73 9.46 3 11.13 4.95-1.11 2.01-8.22 1.98-9.97 1.11zM557 343.7c.52 1.61-1.58 8.78 1.48 8.93 4 .2.41-6.15 1.45-8.25 2.43-4.91 10.79-4.7 13.7-11.84 3.26-8-.14-13.25-4.14-19.63-4.62-7.38 2.59-16.08 9.75-19.63 4.8-2.37 8.78-.25 13.4-.7 3.4-.33 5.53-.26 2.3-3.06-5.14-4.48-16.73-.36-21.09 3.12-7.23 5.77-10.64 13-12.8 21.71-2 8.11-6.69 21.02-4.05 29.35zm3.48-6.94c.94-4.06.75-29.31 8.23-19.8 2.76 3.52 3 10.91 1.36 14.85-1.07 2.57-10.78 10.19-9.58 4.95zM421.28 392.7c-5.95 1.85-15.21 1.91-21.33 1.3-3.36-.33-14.05-3.53-8.84 2 4.38 4.62 13.9 4.44 19.47 3.59 3.29-.51 7.51-.8 10.25-3.07.72-.64 5.48-5.4.45-3.82zM463.11 659.94c-9-1.18-13 9.53-4.69 13.66 10.85 5.4 13.4-12.52 4.69-13.66zM480.62 754.9c-4.61.58-7.27 7-1.46 8.39 6.18 1.53 7.19-9.12 1.46-8.39zm-.42 5.73c-2.75.11-.2-2.31-.21-2.47.01-.01 3.17 2.35.21 2.47zM499.83 785c5.2 1.08 4.87-1.68 6.27 5.86.56 3 .82 3.26-.36 5.62-.5 1-5.86 3.43-3.86 5.11 1.44 1.19 13.88-4.89 14.35-6.27 1.14-3.36-5.21-1.09-6.25-2.15-2.38-2.42-1.06-13.54-5-15-2.98-1.12-7.93 6.26-5.15 6.83zM440.44 840.53c5.35-.92-1.59-6.18 4.52-.59.93.84 3.15 4.39 3.24 5.6.18 2.26-1.19 2.17-1.51 3.7-.13.68-4.8 1.66-1 3.18 2.07.84 7.19-3.13 8.64-4.54 4.22-4.11 2.73-2.4-.39-4.08-2.13-1.13-3.31-1.44-5.06-4.3-1.57-2.56-3.19-8.55-7-7.51-2.36.64-5.25 9.2-1.44 8.54zM415.14 539.09c-10.43-4.05-18.28 10.27-8.84 16.07 4.63 2.85 10.49 0 12.53-4.68 1.3-2.99-.08-9.99-3.69-11.39zM485.2 819c8.38-5.43-9.32-25.15-17.68-11.19-3.08 5.15-.41 13.66 5.05 16.06 2.35 1 4.32.17 6.6-.42 3.83-1 3.64-2.91 6.03-4.45zm-9-6.15c-1 3-3.06 12.4-6.06 2.5-2.35-7.61 8.99-11.95 6.02-2.5zm7 2.31c-4.05 11.47-7.08-5.07-2.49-6.58 1.7-.58 2.83 5.49 2.45 6.58zM411.3 774.54c.74.81 3.88-.7 5-.41 3.19.85 2.78 2 4.52 4.21 1.34 1.73 1.05 5.4 3.79 3.17.93-.76-.38-6.28-.35-6.1-.24-1.49-.31-5.73-1.81-6.67-1.87-1.19-2.11 2.47-3.9 2.23-4.09-.54-14.55-4.53-7.25 3.57zM379.45 789.27c-2.72-1.68-3.6-4.79-7.28-2.72-2.94 1.65-2.82 4.29-1.36 6.59 4.19 6.66 12.19-1.66 8.64-3.87zm-4.58 2.29l-1.07-.77c.36-.95.94-1.2 1.72-.75.61.67.39 1.17-.65 1.52zM546.44 564.09c1.8 0 .15-3.75.15-4.51-.52.64-1.93 4.51-.15 4.51zM586 342a1.4 1.4 0 0 0 .6-1.81c-.17.03-2.03 1.94-.6 1.81z" transform="translate(-145.11 -29.44)"/><path d="M365.82 648.33a45.49 45.49 0 0 0 .77-11c1.82 5.8-.49 11.51-.65 17.59a49.46 49.46 0 0 0 .22 5l.35 4.57" transform="translate(-145.11 -29.44)" fill="none"/></svg>